<svg width="27" height="30" viewBox="0 0 27 30" fill="none" xmlns="http://www.w3.org/2000/svg">
<g clip-path="url(#clip0_1_4)">
<path d="M13.4999 0C12.4332 0 11.5713 0.837891 11.5713 1.875V3C7.17179 3.86719 3.85706 7.65234 3.85706 12.1875V13.2891C3.85706 16.043 2.81442 18.7031 0.934066 20.7656L0.488084 21.252C-0.0181659 21.8027 -0.138702 22.5938 0.168664 23.2676C0.476031 23.9414 1.16911 24.375 1.92849 24.375H25.0713C25.8307 24.375 26.5178 23.9414 26.8312 23.2676C27.1446 22.5938 27.018 21.8027 26.5117 21.252L26.0658 20.7656C24.1854 18.7031 23.1428 16.0488 23.1428 13.2891V12.1875C23.1428 7.65234 19.828 3.86719 15.4285 3V1.875C15.4285 0.837891 14.5667 0 13.4999 0ZM16.23 28.9043C16.9533 28.2012 17.3571 27.2461 17.3571 26.25H13.4999H9.64277C9.64277 27.2461 10.0466 28.2012 10.7698 28.9043C11.493 29.6074 12.4754 30 13.4999 30C14.5245 30 15.5068 29.6074 16.23 28.9043Z" fill="#00143C"/>
</g>
<defs>
<clipPath id="clip0_1_4">
<rect width="27" height="30" fill="white"/>
</clipPath>
</defs>
</svg>
