<svg width="32" height="29" viewBox="0 0 32 29" fill="none" xmlns="http://www.w3.org/2000/svg">
<path d="M16 26C24.8375 26 32 20.1812 32 13C32 5.81875 24.8375 0 16 0C7.16245 0 -4.87878e-05 5.81875 -4.87878e-05 13C-4.87878e-05 15.8188 1.1062 18.425 2.9812 20.5562C2.86245 22.0875 2.2687 23.45 1.6437 24.4875C1.29995 25.0625 0.949951 25.525 0.693701 25.8375C0.562451 25.9937 0.462451 26.1125 0.387451 26.1938C0.349951 26.2313 0.324951 26.2625 0.306201 26.2812L0.287451 26.3C-4.87864e-05 26.5875 -0.0812988 27.0125 0.0749512 27.3875C0.231201 27.7625 0.593701 28.0063 0.999951 28.0063C2.7937 28.0063 4.59995 27.45 6.09995 26.8C7.5312 26.175 8.74995 25.4313 9.4937 24.8875C11.4812 25.6063 13.6812 26.0063 16 26.0063V26ZM7.99995 11C8.53038 11 9.03909 11.2107 9.41416 11.5858C9.78924 11.9609 9.99995 12.4696 9.99995 13C9.99995 13.5304 9.78924 14.0391 9.41416 14.4142C9.03909 14.7893 8.53038 15 7.99995 15C7.46952 15 6.96081 14.7893 6.58574 14.4142C6.21066 14.0391 5.99995 13.5304 5.99995 13C5.99995 12.4696 6.21066 11.9609 6.58574 11.5858C6.96081 11.2107 7.46952 11 7.99995 11ZM16 11C16.5304 11 17.0391 11.2107 17.4142 11.5858C17.7892 11.9609 18 12.4696 18 13C18 13.5304 17.7892 14.0391 17.4142 14.4142C17.0391 14.7893 16.5304 15 16 15C15.4695 15 14.9608 14.7893 14.5857 14.4142C14.2107 14.0391 14 13.5304 14 13C14 12.4696 14.2107 11.9609 14.5857 11.5858C14.9608 11.2107 15.4695 11 16 11ZM22 13C22 12.4696 22.2107 11.9609 22.5857 11.5858C22.9608 11.2107 23.4695 11 24 11C24.5304 11 25.0391 11.2107 25.4142 11.5858C25.7892 11.9609 26 12.4696 26 13C26 13.5304 25.7892 14.0391 25.4142 14.4142C25.0391 14.7893 24.5304 15 24 15C23.4695 15 22.9608 14.7893 22.5857 14.4142C22.2107 14.0391 22 13.5304 22 13Z" fill="white"/>
</svg>
