<svg width="24" height="22" viewBox="0 0 24 22" fill="none" xmlns="http://www.w3.org/2000/svg">
<path d="M2.4 21.6C1.74 21.6 1.175 21.365 0.705 20.895C0.235 20.425 0 19.86 0 19.2V4.8C0 4.14 0.235 3.575 0.705 3.105C1.175 2.635 1.74 2.4 2.4 2.4H6V0H8.4V2.4H15.6V0H18V2.4H21.6C22.26 2.4 22.825 2.635 23.295 3.105C23.765 3.575 24 4.14 24 4.8V19.2C24 19.86 23.765 20.425 23.295 20.895C22.825 21.365 22.26 21.6 21.6 21.6H2.4ZM11.1 19.2H12.9V17.4H11.1V19.2ZM16.2 15.6H19.2C19.54 15.6 19.825 15.485 20.055 15.255C20.285 15.025 20.4 14.74 20.4 14.4V9.6C20.4 9.26 20.285 8.975 20.055 8.745C19.825 8.515 19.54 8.4 19.2 8.4H16.2C15.86 8.4 15.575 8.515 15.345 8.745C15.115 8.975 15 9.26 15 9.6V14.4C15 14.74 15.115 15.025 15.345 15.255C15.575 15.485 15.86 15.6 16.2 15.6ZM3.6 15.6H9V13.8H5.4V12.6H7.8C8.14 12.6 8.425 12.485 8.655 12.255C8.885 12.025 9 11.74 9 11.4V9.6C9 9.26 8.885 8.975 8.655 8.745C8.425 8.515 8.14 8.4 7.8 8.4H3.6V10.2H7.2V11.4H4.8C4.46 11.4 4.175 11.515 3.945 11.745C3.715 11.975 3.6 12.26 3.6 12.6V15.6ZM11.1 15H12.9V13.2H11.1V15ZM16.8 13.8V10.2H18.6V13.8H16.8ZM11.1 10.8H12.9V9H11.1V10.8ZM11.1 6.6H12.9V4.8H11.1V6.6Z" fill="white"/>
</svg>
