<svg xmlns="http://www.w3.org/2000/svg" width="32" height="32" viewBox="0 0 32 32">
    <g fill="none">
        <circle cx="16" cy="16" r="16" fill="#4E598F"/>
        <g fill="#FFF">
            <path d="M16.418.03H2.582C1.172.03.03 1.173.03 2.582v13.836c0 1.41 1.143 2.552 2.552 2.552h6.824l.012-6.768H7.659c-.228 0-.414-.185-.415-.413l-.008-2.182c-.001-.23.185-.417.415-.417h1.755V7.082c0-2.446 1.494-3.778 3.676-3.778h1.791c.229 0 .415.186.415.415v1.84c0 .229-.186.414-.415.414l-1.099.001c-1.186 0-1.416.564-1.416 1.392V9.19h2.607c.249 0 .442.217.412.463l-.258 2.182c-.025.209-.202.366-.412.366h-2.338l-.012 6.768h4.06c1.41 0 2.553-1.143 2.553-2.552V2.582c0-1.41-1.143-2.552-2.552-2.552z" transform="translate(6 6)"/>
            <path d="M9.425 18.97L9.443 12.202 9.398 12.202 9.398 18.97z" transform="translate(6 6)"/>
        </g>
    </g>
</svg>
