<svg xmlns="http://www.w3.org/2000/svg" width="32" height="32" viewBox="0 0 32 32">
    <g fill="none">
        <circle cx="16" cy="16" r="16" fill="#6C27B3"/>
        <g fill="#FFF">
            <path d="M13.328.03H5.672C2.562.03.03 2.561.03 5.672v7.656c0 3.11 2.531 5.642 5.642 5.642h7.656c3.11 0 5.642-2.531 5.642-5.642V5.672c0-3.11-2.531-5.642-5.642-5.642zm3.736 13.298c0 2.063-1.673 3.736-3.736 3.736H5.672c-2.063 0-3.736-1.673-3.736-3.736V5.672c0-2.063 1.673-3.736 3.736-3.736h7.656c2.063 0 3.736 1.673 3.736 3.736v7.656z" transform="translate(6 6)"/>
            <path d="M9.5 4.601C6.799 4.601 4.601 6.8 4.601 9.5c0 2.7 2.198 4.898 4.899 4.898s4.898-2.197 4.898-4.898c0-2.701-2.197-4.899-4.898-4.899zm0 7.892c-1.653 0-2.993-1.34-2.993-2.993 0-1.653 1.34-2.993 2.993-2.993 1.653 0 2.993 1.34 2.993 2.993 0 1.653-1.34 2.993-2.993 2.993z" transform="translate(6 6)"/>
        </g>
    </g>
</svg>
