<svg xmlns="http://www.w3.org/2000/svg" width="32" height="32" viewBox="0 0 32 32">
    <g fill="none">
        <circle cx="16" cy="16" r="16" fill="#65A2D9"/>
        <path fill="#FFF" d="M24.714 9.745c-.4.178-.815.318-1.241.42.47-.448.822-1.007 1.021-1.63.057-.178-.136-.333-.297-.237-.592.352-1.23.616-1.897.785-.039.01-.079.015-.119.015-.121 0-.239-.045-.332-.127C21.14 8.345 20.229 8 19.281 8c-.41 0-.823.064-1.229.19-1.258.391-2.23 1.431-2.534 2.714-.114.481-.145.963-.092 1.431.006.054-.02.092-.035.11-.027.03-.066.048-.107.048h-.014c-2.754-.257-5.238-1.586-6.994-3.744-.089-.11-.26-.096-.332.026-.344.591-.526 1.267-.526 1.955 0 1.054.423 2.047 1.157 2.771-.308-.073-.607-.189-.885-.343-.134-.075-.3.021-.301.175-.02 1.566.896 2.959 2.266 3.586l-.083.001c-.217 0-.437-.02-.653-.062-.152-.03-.279.114-.232.261.445 1.392 1.641 2.418 3.072 2.65-1.187.8-2.57 1.22-4.01 1.22h-.45c-.138 0-.255.09-.29.225-.034.132.03.272.148.34C8.779 22.5 10.629 23 12.509 23c1.645 0 3.183-.327 4.573-.972 1.274-.591 2.4-1.437 3.347-2.512.882-1.002 1.57-2.16 2.049-3.439.456-1.219.697-2.52.697-3.763v-.059c0-.2.09-.387.247-.515.596-.485 1.115-1.056 1.543-1.696.113-.17-.065-.382-.251-.3z"/>
    </g>
</svg>
