<svg width="30" height="30" viewBox="0 0 30 30" fill="none" xmlns="http://www.w3.org/2000/svg">
<circle cx="15" cy="15" r="14" stroke="white" stroke-width="2"/>
<path d="M15.0007 20.9971C18.8667 20.9971 22 18.0884 22 14.4985C22 10.9087 18.8667 8 15.0007 8C11.1347 8 8.00142 10.9087 8.00142 14.4985C8.00142 15.9076 8.48536 17.2104 9.30559 18.2758C9.25364 19.0413 8.9939 19.7224 8.72049 20.241C8.57011 20.5285 8.417 20.7597 8.30491 20.9159C8.24749 20.994 8.20374 21.0533 8.17093 21.094C8.15453 21.1127 8.14359 21.1283 8.13539 21.1377L8.12719 21.1471C8.00142 21.2908 7.96588 21.5032 8.03423 21.6907C8.10258 21.8782 8.26116 22 8.43888 22C9.22356 22 10.0137 21.7219 10.6699 21.397C11.296 21.0846 11.8292 20.7128 12.1545 20.441C13.024 20.8003 13.9864 21.0002 15.0007 21.0002V20.9971ZM11.5011 13.4988C11.7331 13.4988 11.9556 13.6041 12.1197 13.7916C12.2838 13.9791 12.376 14.2334 12.376 14.4985C12.376 14.7637 12.2838 15.018 12.1197 15.2055C11.9556 15.393 11.7331 15.4983 11.5011 15.4983C11.269 15.4983 11.0465 15.393 10.8824 15.2055C10.7183 15.018 10.6262 14.7637 10.6262 14.4985C10.6262 14.2334 10.7183 13.9791 10.8824 13.7916C11.0465 13.6041 11.269 13.4988 11.5011 13.4988ZM15.0007 13.4988C15.2328 13.4988 15.4553 13.6041 15.6194 13.7916C15.7834 13.9791 15.8756 14.2334 15.8756 14.4985C15.8756 14.7637 15.7834 15.018 15.6194 15.2055C15.4553 15.393 15.2328 15.4983 15.0007 15.4983C14.7687 15.4983 14.5461 15.393 14.3821 15.2055C14.218 15.018 14.1258 14.7637 14.1258 14.4985C14.1258 14.2334 14.218 13.9791 14.3821 13.7916C14.5461 13.6041 14.7687 13.4988 15.0007 13.4988ZM17.6254 14.4985C17.6254 14.2334 17.7176 13.9791 17.8817 13.7916C18.0458 13.6041 18.2683 13.4988 18.5004 13.4988C18.7324 13.4988 18.9549 13.6041 19.119 13.7916C19.2831 13.9791 19.3753 14.2334 19.3753 14.4985C19.3753 14.7637 19.2831 15.018 19.119 15.2055C18.9549 15.393 18.7324 15.4983 18.5004 15.4983C18.2683 15.4983 18.0458 15.393 17.8817 15.2055C17.7176 15.018 17.6254 14.7637 17.6254 14.4985Z" fill="white"/>
</svg>
