<svg width="201" height="184" viewBox="0 0 201 184" fill="none" xmlns="http://www.w3.org/2000/svg">
<path d="M103.873 11.0192C99.9644 11.0192 96.1141 11.3084 92.3216 11.829C53.0075 18.2207 23.0731 51.5674 23.0731 91.7397H22.7547C22.7547 91.8265 22.7547 91.9422 22.7547 92.0289C22.7547 136.8 59.058 173.068 103.873 173.068C110.85 173.068 117.624 172.2 124.08 170.522C124.167 170.494 124.253 170.465 124.369 170.436C124.804 170.32 125.238 170.204 125.701 170.089C126.222 169.944 126.743 169.799 127.264 169.626C127.293 169.626 127.322 169.597 127.351 169.597C130.507 168.643 133.604 167.486 136.586 166.184C136.702 166.126 136.789 166.097 136.905 166.04C137.223 165.895 137.542 165.75 137.831 165.606C165.681 152.793 184.991 124.682 184.991 92.0289C184.991 47.287 148.658 11.0192 103.873 11.0192Z" fill="#3F5A6B"/>
<path d="M92.3216 11.829L92.3795 12.176L92.3216 11.829Z" fill="#395672"/>
<path d="M23.0731 92.1157H23.1311V92.0578C23.1311 91.9711 23.1311 91.8843 23.1311 91.7686H22.7547V92.1446H23.0731V92.1157Z" fill="#395672"/>
<path d="M125.585 169.771C125.151 169.886 124.717 170.002 124.282 170.118C124.196 170.146 124.109 170.175 123.993 170.204C117.566 171.853 110.821 172.721 103.873 172.721C81.5811 172.721 61.374 163.697 46.7832 149.091C32.1924 134.515 23.16 114.356 23.1311 92.1157H23.0732H22.7547V91.7397H22.6968C22.6968 91.624 22.6968 91.5083 22.6968 91.3637H22.3784V91.7397C22.3784 91.8265 22.3784 91.9422 22.3784 92.0289C22.3784 136.973 58.8554 173.444 103.873 173.444C110.879 173.444 117.682 172.547 124.167 170.898C124.253 170.87 124.369 170.841 124.456 170.812C124.89 170.696 125.354 170.58 125.788 170.465L125.701 170.118L125.585 169.771Z" fill="#395672"/>
<path d="M103.873 10.6432C99.9355 10.6432 96.0562 10.9324 92.2927 11.453C52.9207 17.8736 22.8705 51.1914 22.6968 91.3926H22.7547H23.0732V91.7686H22.7547H23.1311C23.1311 91.8843 23.1311 91.9711 23.1311 92.0578V92.1157H23.4495V91.7397C23.4495 51.741 53.2681 18.5677 92.4085 12.176L92.3506 11.8001L92.4085 12.1471C96.172 11.6265 99.9934 11.3373 103.902 11.3373C126.193 11.3373 146.4 20.3609 160.991 34.9664C175.611 49.5718 184.643 69.7303 184.643 92C184.643 124.479 165.42 152.475 137.715 165.259C137.397 165.403 137.078 165.548 136.789 165.693C136.702 165.75 136.586 165.779 136.47 165.837C133.489 167.139 130.42 168.296 127.264 169.25C127.235 169.25 127.206 169.279 127.177 169.279C126.656 169.423 126.135 169.597 125.614 169.742L125.701 170.089L125.788 170.436C126.309 170.291 126.859 170.146 127.38 169.973C127.409 169.973 127.438 169.944 127.467 169.944C130.651 168.99 133.749 167.833 136.76 166.502C136.847 166.445 136.963 166.416 137.078 166.358C137.397 166.213 137.715 166.069 138.034 165.924C165.971 153.025 185.367 124.768 185.367 92C185.338 47.0846 148.861 10.6432 103.873 10.6432Z" fill="#395672"/>
<path d="M22.7547 91.7397H23.0732V91.3926H22.7547H22.6968C22.6968 91.5083 22.6968 91.624 22.6968 91.7686H22.7547V91.7397Z" fill="#395672"/>
<path d="M137.86 165.635C137.542 165.779 137.223 165.924 136.934 166.069C137.223 165.924 137.542 165.779 137.86 165.635Z" fill="#3F5A6B"/>
<path d="M137.86 165.635L137.715 165.317C137.397 165.461 137.078 165.606 136.789 165.75L137.078 166.416C137.397 166.271 137.715 166.126 138.034 165.982L137.715 165.317L137.86 165.635L137.715 165.317C137.397 165.461 137.107 165.606 136.789 165.75L137.078 166.416C137.397 166.271 137.715 166.126 138.034 165.982L137.715 165.317L137.86 165.635Z" fill="#395672"/>
<path d="M136.586 166.213C133.604 167.515 130.507 168.671 127.351 169.626C130.507 168.671 133.604 167.515 136.586 166.213Z" fill="#3F5A6B"/>
<path d="M136.586 166.213L136.441 165.866C133.46 167.168 130.391 168.324 127.235 169.279L127.438 169.973C130.623 169.019 133.72 167.862 136.731 166.531L136.441 165.866L136.586 166.213L136.441 165.866C133.46 167.168 130.391 168.324 127.235 169.279L127.438 169.973C130.623 169.019 133.72 167.862 136.731 166.531L136.441 165.866L136.586 166.213Z" fill="#395672"/>
<path d="M127.264 169.655C126.743 169.799 126.222 169.973 125.701 170.118C126.193 169.973 126.714 169.799 127.264 169.655Z" fill="#3F5A6B"/>
<path d="M127.264 169.655L127.149 169.308C126.627 169.452 126.106 169.626 125.585 169.771L125.788 170.465C126.309 170.32 126.859 170.175 127.38 170.002L127.177 169.308L127.264 169.655L127.149 169.308C126.627 169.452 126.106 169.626 125.585 169.771L125.788 170.465C126.309 170.32 126.859 170.175 127.38 170.002L127.177 169.308L127.264 169.655Z" fill="#395672"/>
<path d="M124.08 170.551C124.167 170.522 124.254 170.494 124.369 170.465C124.254 170.494 124.167 170.522 124.08 170.551Z" fill="#3F5A6B"/>
<path d="M124.08 170.551L124.167 170.898C124.253 170.87 124.369 170.841 124.456 170.812L124.282 170.118C124.196 170.146 124.109 170.175 123.993 170.204L124.167 170.898L124.08 170.551L124.167 170.898C124.253 170.87 124.369 170.841 124.456 170.812L124.282 170.118C124.196 170.146 124.08 170.175 123.993 170.204L124.167 170.898L124.08 170.551Z" fill="#395672"/>
<path d="M59.4055 82.4558L88.645 56.6866L31.4687 56.1949C27.4157 64.293 24.6944 73.143 23.6232 82.4558H59.4055Z" fill="#3F5A6B"/>
<path d="M59.4055 82.4558L59.6371 82.7161L89.6003 56.3106L31.2371 55.8189L31.1213 56.0214C27.0393 64.1484 24.318 73.0563 23.2179 82.4269L23.16 82.8318H59.5213L59.6371 82.745L59.4055 82.4558V82.0798H23.5943V82.4558L23.9706 82.4848C25.0418 73.2009 27.7631 64.3798 31.7871 56.3395L31.4687 56.166V56.542L87.6896 57.0336L59.1739 82.1666L59.4055 82.4558V82.0798V82.4558Z" fill="#395672"/>
<path d="M75.299 59.5788H30.2817C27.1262 66.6357 24.9839 74.1842 24.0285 82.1088H35.319L34.2768 81.6749H43.3961L43.425 81.646H43.1934L52.1679 75.4279L52.2837 75.4857L75.299 59.5788Z" fill="#3577A2"/>
<path d="M30.2817 59.5788H29.8764C26.6919 66.7513 24.5496 74.4445 23.6232 82.4848H36.2165L35.348 82.1088H24.0285C24.9839 74.1842 27.1262 66.6067 30.2817 59.5788Z" fill="#3275A5"/>
<path d="M43.2513 81.9931H23.2179C22.8126 85.1745 22.6099 88.4426 22.6099 91.7397H22.1178V92.0868H22.2336C22.2336 92.2314 22.2336 92.376 22.2336 92.5206C22.2336 100.069 23.2758 107.386 25.2154 114.328L38.8799 110.799L49.9098 107.878L63.2847 101.573L43.2513 81.9931Z" fill="#32CDFC"/>
<path d="M168.489 141.572H42.9618C42.9618 141.572 42.2091 142.468 41.0801 143.914C55.7288 161.73 77.8466 173.183 102.657 173.53V173.241C129.465 173.27 153.319 160.863 168.489 141.572Z" fill="#32CDFC"/>
<path d="M133.807 123.033C133.344 123.351 132.881 123.669 132.388 123.987V124.045C132.388 124.045 131.549 124.624 130.043 125.462C129.667 125.665 129.32 125.896 128.914 126.099C130.478 125.318 132.012 124.508 133.46 123.669C133.546 123.467 133.691 123.235 133.807 123.033ZM138.844 119.013L139.25 119.967L138.844 119.013ZM176.595 56.9469C174.395 63.7146 167.794 80.2867 153.175 93.1279L147.877 89.773L140.871 86.6784C140.929 88.0377 141.044 89.397 141.218 90.6985C141.247 90.9588 141.218 91.1323 141.131 91.248C141.131 91.3637 141.102 91.4505 141.073 91.5373L141.218 91.624L141.016 91.6529C140.958 91.7108 140.929 91.7686 140.871 91.7975L141.131 91.9711L133.083 92.752C135.573 99.4329 137.657 107.068 138.757 115.571C147.703 104.436 158.53 101.024 168.402 101.024C169.995 101.024 171.529 101.11 173.063 101.255C175.582 101.515 177.985 101.949 180.243 102.47L180.272 102.528C181.488 102.817 182.646 103.164 183.775 103.511C184.296 99.751 184.585 95.9334 184.585 92.0289C184.614 79.4769 181.719 67.5611 176.595 56.9469Z" fill="#3577A2"/>
<path d="M176.827 56.2238C176.769 56.4552 176.682 56.6866 176.595 56.9469C181.748 67.5611 184.614 79.448 184.614 92.0289C184.614 95.9334 184.325 99.751 183.804 103.511C184.035 103.598 184.267 103.655 184.499 103.742C185.049 99.9246 185.338 96.0201 185.338 92.0289C185.338 85.5505 184.585 79.2455 183.138 73.2009C181.632 67.2719 179.49 61.5743 176.827 56.2238Z" fill="#3275A5"/>
<path d="M101.904 132.809C99.7039 135.672 97.3589 138.593 94.8692 141.572H108.649L107.376 137.812C107.347 137.812 107.289 137.812 107.26 137.812L105.581 132.837C105.118 132.837 104.654 132.866 104.191 132.866C103.409 132.866 102.657 132.866 101.904 132.809Z" fill="#3577A2"/>
<path d="M185.801 92.376C185.801 92.4917 185.801 92.5784 185.801 92.6941C185.83 92.5784 185.83 92.4627 185.801 92.376ZM185.801 91.8265C185.801 92 185.801 92.2025 185.83 92.376C185.801 92.1735 185.801 92 185.801 91.8265Z" fill="#95C9EB"/>
<path d="M104.307 10.8167V10.73C104.828 10.73 105.349 10.701 105.87 10.701C105.812 10.701 105.726 10.701 105.668 10.701C71.5355 10.701 42.2092 30.8306 29.4422 59.5787H100.138L125.672 42.6306L136.905 29.8472L139.481 19.8114V18.9148C128.943 13.7378 117.19 10.8456 104.741 10.8456C104.596 10.8167 104.452 10.8167 104.307 10.8167Z" fill="#35B6DF"/>
<path d="M113.716 110.597C112.702 112.216 111.631 113.778 110.647 114.993C110.531 115.137 110.56 115.311 110.705 115.427C110.85 115.542 111.023 115.513 111.139 115.369C112.152 114.125 113.224 112.563 114.237 110.915C114.324 110.77 114.295 110.597 114.15 110.481C113.976 110.423 113.803 110.452 113.716 110.597Z" fill="white"/>
<path d="M119.506 100.098C119.506 100.098 119.477 100.156 119.419 100.301C118.985 101.168 117.132 104.899 114.903 108.659C114.816 108.804 114.874 108.977 115.018 109.064C115.163 109.151 115.337 109.093 115.424 108.948C118 104.61 120.056 100.358 120.056 100.358C120.143 100.214 120.056 100.011 119.911 99.9535C119.766 99.8956 119.593 99.9535 119.506 100.098Z" fill="white"/>
<path d="M139.134 141.572H139.018C127.901 147.53 117.971 148.311 113.484 148.311C112.384 148.311 111.631 148.253 111.226 148.224C112.789 148.6 116.437 149.265 121.416 149.265C127.872 149.265 136.644 148.108 146.198 143.625C144.924 143.336 143.592 142.989 142.231 142.584L142.145 142.353L142.231 142.584C141.218 142.295 140.176 141.948 139.134 141.572Z" fill="#2DB8E2"/>
<path d="M139.047 141.543L139.018 141.572H139.135L139.047 141.543Z" fill="#306B91"/>
<path d="M109.923 145.361L110.329 148.021C110.329 148.021 110.531 148.079 110.879 148.166L109.923 145.361Z" fill="#2DB8E2"/>
<path d="M163.307 119.071L151.322 110.018C149.064 112.274 128.046 132.751 105.957 131.42L106.42 131.044L105.204 131.507L110.879 148.195C110.908 148.224 141.131 151.666 163.307 119.071Z" fill="white"/>
<path d="M105.668 132.837C105.639 132.837 105.581 132.837 105.552 132.837L107.231 137.812C107.26 137.812 107.318 137.812 107.347 137.812L105.668 132.837ZM133.431 123.669C131.983 124.508 130.449 125.318 128.885 126.099L128.857 126.128C130.449 125.347 131.983 124.537 133.431 123.669Z" fill="#306B91"/>
<path d="M133.431 123.669C131.954 124.508 130.449 125.347 128.857 126.099C123.038 129.367 115.047 132.519 105.639 132.837L107.318 137.812C107.52 137.812 107.723 137.812 107.955 137.812C111.834 137.812 119.737 137.234 128.972 133.242C130.391 129.714 131.867 126.533 133.431 123.669ZM139.25 119.996L141.681 125.896L139.25 119.996Z" fill="#E5E5E5"/>
<path d="M130.015 125.462C129.32 125.838 128.509 126.272 127.554 126.735C128.017 126.533 128.451 126.301 128.914 126.099C129.291 125.896 129.667 125.665 130.015 125.462ZM133.112 92.752L130.188 93.0412C132.157 101.891 133.315 112.361 132.388 124.016C132.881 123.698 133.373 123.351 133.807 123.062C133.865 122.975 133.923 122.888 133.952 122.802L134.01 122.917L133.952 122.802C135.226 120.604 136.528 118.579 137.889 116.757L138.844 119.042L137.889 116.757C138.178 116.352 138.497 115.976 138.786 115.6C137.686 107.068 135.602 99.4329 133.112 92.752Z" fill="#306B91"/>
<path d="M105.407 132.433C104.857 132.461 104.278 132.461 103.728 132.461C103.236 132.461 102.715 132.461 102.194 132.433C102.107 132.548 101.991 132.693 101.904 132.809C102.657 132.837 103.409 132.866 104.162 132.866C104.625 132.866 105.089 132.866 105.552 132.837L105.407 132.433Z" fill="#306B91"/>
<path d="M105.523 132.433C105.494 132.433 105.436 132.433 105.407 132.433L105.552 132.866C105.581 132.866 105.639 132.866 105.668 132.866L105.523 132.433ZM128.886 126.099C128.451 126.33 127.988 126.533 127.525 126.735L127.438 126.764C127.93 126.561 128.422 126.359 128.886 126.099Z" fill="#2B6082"/>
<path d="M128.885 126.128C128.422 126.359 127.959 126.59 127.496 126.793C122.748 129.107 114.903 132.086 105.552 132.433L105.697 132.866C115.076 132.548 123.067 129.367 128.885 126.128Z" fill="#CECECE"/>
<path d="M132.359 124.045C135.254 88.8764 118.811 64.0616 118.811 64.0616C111.226 64.8136 105.639 66.3754 105.639 66.3754C87.1396 74.0975 83.6077 86.2735 83.6077 86.2735L77.3255 124.277C77.3255 124.277 79.8731 126.417 84.7367 128.384C109.721 139.605 132.359 124.045 132.359 124.045Z" fill="#2B93D8"/>
<path d="M55.9604 79.4191L59.5792 76.9607C59.7239 76.8739 59.7529 76.6715 59.666 76.5269C59.5792 76.3823 59.3765 76.3533 59.2318 76.4401L55.613 78.8985C55.4682 78.9852 55.4393 79.1877 55.5261 79.3323C55.6419 79.4769 55.8156 79.5058 55.9604 79.4191Z" fill="white"/>
<path d="M47.7675 84.9431L53.5286 81.0387C53.6733 80.9519 53.7023 80.7495 53.6154 80.6049C53.5286 80.4602 53.3259 80.4313 53.1812 80.5181L47.4201 84.4514C47.2754 84.5382 47.2464 84.7407 47.3333 84.8853C47.4491 85.0009 47.6228 85.0588 47.7675 84.9431Z" fill="white"/>
<path d="M25.0128 137.696L26.1419 135.845L23.9127 137.523L25.0128 137.696Z" fill="#31A0FD"/>
<path d="M127.525 88.9054L133.286 81.0387H133.199C134.502 79.2455 135.197 78.2043 135.197 78.2043L134.039 78.5225C138.41 72.4489 139.279 68.6891 139.279 68.6891C138.757 63.7724 132.91 55.9635 132.91 55.9635L132.881 56.1081L58.8844 82.5137L30.9186 128.094C35.8691 138.217 42.875 147.154 51.4153 154.384L75.907 159.445C75.907 159.445 76.486 158.925 77.4992 157.942C84.8525 150.885 115.597 120.228 128.017 89.3103L127.525 88.9054Z" fill="#31A0FD"/>
<path d="M114.526 102.643L89.6582 125.723L36.1007 130.148L33.2346 132.548C41.7459 147.501 54.9182 159.503 70.7538 166.56C112.934 128.355 127.988 89.2814 127.988 89.2814L114.526 102.643Z" fill="#31A0FD"/>
<path d="M103.294 10.8167C103.438 10.8167 103.583 10.8167 103.728 10.8167V10.73C102.975 10.7589 102.251 10.7878 101.499 10.8167C102.078 10.8167 102.686 10.8167 103.294 10.8167Z" fill="white"/>
<path d="M176.653 55.8768C176.711 55.9925 176.769 56.1081 176.827 56.2528C176.769 56.1081 176.711 55.9925 176.653 55.8768Z" fill="#324C64"/>
<path d="M171.355 55.7032C170.979 55.7032 170.602 55.7032 170.226 55.7032C168.518 63.8881 164.031 78.9563 152.972 92.0578L147.877 89.8019L153.175 93.1569C167.794 80.3156 174.366 63.7145 176.595 56.9758C176.421 56.5998 176.219 56.2238 176.045 55.8478C174.569 55.7322 172.976 55.7032 171.355 55.7032Z" fill="#2F698E"/>
<path d="M176.335 55.2694C176.421 55.4719 176.537 55.6743 176.624 55.8768C176.421 55.8478 176.219 55.8478 176.016 55.8478C176.19 56.2238 176.392 56.5998 176.566 56.9758C176.653 56.7155 176.74 56.4841 176.798 56.2527C176.74 56.1371 176.682 56.0214 176.624 55.8768C176.537 55.6743 176.45 55.4719 176.335 55.2694Z" fill="#2C6791"/>
<path d="M176.885 55.8768L176.914 55.9346L176.943 55.8768H176.885ZM177.435 53.8233C177.406 54.0258 177.377 54.1993 177.377 54.3728C177.464 54.0547 177.493 53.8812 177.493 53.8812L177.435 53.8233Z" fill="#E0E0E0"/>
<path d="M176.653 55.8768C176.711 55.9925 176.769 56.1081 176.827 56.2238C176.856 56.1371 176.885 56.0214 176.914 55.9346L176.885 55.8768C176.798 55.8768 176.74 55.8768 176.653 55.8768Z" fill="#324C64"/>
<path d="M132.331 41.0399L126.483 67.4165L123.819 79.5058L140.639 86.6206L152.972 92.0578C169.126 72.9406 171.239 49.6586 171.239 49.6586C151.351 32.9997 132.331 41.0399 132.331 41.0399Z" fill="white"/>
<path d="M162.496 42.6017C162.381 42.486 162.178 42.486 162.062 42.6017C161.946 42.7174 161.946 42.9198 162.062 43.0355L170.834 51.7988C170.95 51.9145 171.152 51.9145 171.268 51.7988C171.384 51.6831 171.384 51.4807 171.268 51.365L162.496 42.6017Z" fill="white"/>
<path d="M156.012 49.0802L164.784 57.8434C164.899 57.9591 165.102 57.9591 165.218 57.8434C165.334 57.7278 165.334 57.5253 165.218 57.4096L156.446 48.6463C156.33 48.5306 156.127 48.5306 156.012 48.6463C155.896 48.762 155.896 48.9645 156.012 49.0802Z" fill="white"/>
<path d="M153.435 51.6542L162.207 60.4175C162.323 60.5332 162.525 60.5332 162.641 60.4175C162.757 60.3018 162.757 60.0993 162.641 59.9836L153.869 51.2204C153.754 51.1047 153.551 51.1047 153.435 51.2204C153.319 51.365 153.319 51.5385 153.435 51.6542Z" fill="white"/>
<path d="M78.4256 63.7724C78.4256 63.7724 78.4256 63.7724 78.4546 63.7724C78.8599 63.6278 82.4207 62.4709 87.3133 62.4709C89.0213 62.4709 90.8741 62.6155 92.7848 62.9915C92.9585 63.0204 93.1033 62.9047 93.1322 62.7601C93.1612 62.5866 93.0454 62.442 92.9006 62.4131C90.932 62.0371 89.0213 61.8925 87.3133 61.8925C82.0154 61.8925 78.223 63.2518 78.223 63.2518C78.0782 63.3097 77.9914 63.4832 78.0493 63.6278C78.0782 63.7435 78.2519 63.8302 78.4256 63.7724Z" fill="white"/>
<path d="M132.533 15.878C124.138 17.353 112.239 21.7491 104.22 34.3879C104.22 34.3879 104.133 34.5325 103.96 34.8217C102.802 36.7017 101.701 38.784 100.746 41.0399C100.746 41.0688 100.775 41.0978 100.775 41.1267C98.8933 45.3493 96.751 51.2782 95.6798 57.988C95.6798 57.988 111.226 64.64 116.726 76.5269C122.227 88.4137 129.522 93.2436 139.915 91.9132C139.915 91.9132 141.363 92.3181 141.189 91.0745C139.423 79.1587 144.258 63.3386 145.705 59.0003C152.19 54.8934 172.803 55.3273 174.424 55.5586C174.627 54.5174 174.742 53.4763 174.829 52.464C165.334 35.6605 150.395 22.6168 132.533 15.878Z" fill="#3F5A6B"/>
<path d="M173.179 39.7384C172.484 37.7428 171.616 35.7762 170.574 33.9252L161.396 29.5002H167.621C162.931 23.5712 156.214 18.9148 148.137 16.6589C144.721 15.7045 141.276 15.2417 137.889 15.2417C136.384 15.3285 134.56 15.531 132.533 15.878C150.395 22.6168 165.334 35.6894 174.8 52.4351C175.061 49.1959 174.8 45.9566 174.076 42.8331L167.707 39.7674H173.179V39.7384Z" fill="#3F5A6B"/>
<path d="M153.638 51.712V56.7155C153.638 56.7155 167.65 55.1827 176.653 55.8479C175.379 53.3317 173.99 50.9022 172.484 48.5307C167.186 48.8488 158.617 49.6586 153.638 51.712Z" fill="#35B6DF"/>
<path d="M177.145 48.3571C177.145 48.3571 175.263 48.386 172.484 48.5306C173.99 50.9022 175.379 53.3317 176.653 55.8478C176.827 55.8478 177 55.8768 177.145 55.8768C177.145 55.9057 178.158 50.3816 177.145 48.3571Z" fill="#35B6DF"/>
<path d="M16.212 81.5593L17.37 78.7249C17.4279 78.5803 17.37 78.3779 17.1963 78.32C17.0226 78.2622 16.8489 78.32 16.791 78.4935L15.633 81.3279C15.5751 81.4725 15.633 81.6749 15.8067 81.7328C15.9804 81.7906 16.1541 81.7328 16.212 81.5593Z" fill="white"/>
<path d="M92.698 77.0475L91.3373 79.5347C91.2215 79.7372 91.3084 79.9686 91.4821 80.0843C91.6847 80.1999 91.9163 80.1132 92.0321 79.9396L93.3928 77.4524C93.5086 77.2499 93.4217 77.0186 93.248 76.9029C93.0454 76.7872 92.8138 76.845 92.698 77.0475Z" fill="white"/>
<path d="M92.8716 70.6847C92.8716 70.6847 92.8716 70.6847 92.9006 70.6558C93.1032 70.4533 94.1454 69.5857 95.4192 68.718C96.0561 68.2842 96.7509 67.8504 97.4457 67.5033C98.1405 67.1562 98.8353 66.9249 99.4143 66.8381C99.8196 66.7803 100.283 66.7513 100.775 66.7513C102.165 66.7513 103.815 66.9249 105.089 67.0984C105.725 67.1852 106.304 67.2719 106.681 67.3587C106.883 67.3876 107.028 67.4165 107.144 67.4455C107.26 67.4744 107.318 67.4744 107.318 67.4744C107.491 67.5033 107.636 67.3876 107.665 67.243C107.694 67.0695 107.578 66.9249 107.433 66.8959C107.433 66.8959 103.641 66.1729 100.775 66.1729C100.254 66.1729 99.7617 66.2018 99.3275 66.2597C98.5748 66.3464 97.7931 66.6646 97.0115 67.0695C94.6955 68.2553 92.4374 70.2798 92.4374 70.2798C92.3216 70.3955 92.2926 70.5979 92.4084 70.7136C92.5532 70.7715 92.7269 70.8004 92.8716 70.6847Z" fill="white"/>
<path d="M49.244 117.682L61.5478 115.224L54.5129 106.49L42.0933 110.828L29.0079 123.901C30.0212 126.33 31.1792 128.731 32.424 131.015L49.244 117.682Z" fill="white"/>
<path d="M20.5835 135.296L20.3229 135.614L21.7415 136.279L24.2601 138.39L29.1816 133.561L32.424 131.015C31.1792 128.702 30.0212 126.33 29.0079 123.901L18.9044 133.908L20.5835 135.296Z" fill="white"/>
<path d="M99.1538 68.9494H112.21C112.413 68.9494 112.587 68.7759 112.587 68.5734C112.587 68.3709 112.413 68.1974 112.21 68.1974H99.1538C98.9512 68.1974 98.7775 68.3709 98.7775 68.5734C98.8064 68.7759 98.9512 68.9494 99.1538 68.9494Z" fill="#395672"/>
<path d="M108.563 71.6969H100.37C100.167 71.6969 99.9933 71.8705 99.9933 72.0729C99.9933 72.2754 100.167 72.4489 100.37 72.4489H108.563C108.765 72.4489 108.939 72.2754 108.939 72.0729C108.939 71.8705 108.765 71.6969 108.563 71.6969Z" fill="#31A0FD"/>
<path d="M98.0248 71.6969H95.014C94.8113 71.6969 94.6376 71.8705 94.6376 72.0729C94.6376 72.2754 94.8113 72.4489 95.014 72.4489H98.0248C98.2274 72.4489 98.4011 72.2754 98.4011 72.0729C98.4011 71.8705 98.2274 71.6969 98.0248 71.6969Z" fill="#31A0FD"/>
<path d="M84.0129 57.1782C84.0129 57.1782 86.9369 64.4954 87.7475 65.5655C88.5581 66.6356 96.693 68.5734 96.693 68.5734L118.753 70.0195C103.381 54.2571 84.0129 57.1782 84.0129 57.1782Z" fill="#2B93D8"/>
<path d="M141.16 92L116.698 76.5269L124.717 93.5618L141.16 92Z" fill="#3F5A6B"/>
<path d="M119.795 20.1874C114.266 23.0217 108.649 27.5046 104.22 34.4747C104.22 34.4747 104.133 34.6193 103.96 34.9085C102.802 36.7884 101.701 38.8419 100.746 41.1267V41.1556V41.1845L100.775 41.2424C98.9222 45.4071 96.8089 51.1915 95.7377 57.7567C98.8933 58.3351 102.454 59.3474 106.16 61.0827C106.594 61.2562 107.028 61.4297 107.462 61.6322C107.462 61.6322 107.81 61.8346 108.418 62.2106C109.692 62.9048 110.965 63.6856 112.239 64.5533L105.812 50.4106L114.497 41.8497L119.795 20.1874Z" fill="#364D5B"/>
<path d="M108.36 62.1528C109.142 62.6444 110.415 63.4832 111.979 64.5822L112.239 64.6111L112.181 64.4954C110.908 63.6278 109.634 62.8469 108.36 62.1528ZM95.7088 57.6988C95.7088 57.7567 95.6798 57.8145 95.6798 57.9013C98.8354 58.5086 102.338 59.492 106.131 61.0248C102.425 59.3185 98.8643 58.3062 95.7088 57.6988Z" fill="#257DB8"/>
<path d="M32.4819 131.16C33.7268 133.445 35.0874 135.701 36.5349 137.841C35.3769 136.106 34.2768 134.341 33.2346 132.548C32.9741 132.085 32.7425 131.623 32.4819 131.16Z" fill="#354F69"/>
<path d="M61.4609 115.484L50.3151 117.74L49.215 117.972L32.4819 131.16C32.7425 131.623 33.003 132.086 33.2636 132.548L36.1007 130.148L47.5359 129.193L52.3706 125.376L73.0409 122.397V122.165C69.5959 120.661 65.5429 118.492 61.4609 115.484Z" fill="#2D93E9"/>
<path d="M47.5359 129.193L36.1007 130.148L33.2635 132.548C34.3058 134.37 35.4059 136.135 36.5639 137.841L47.5359 129.193Z" fill="#2D93E9"/>
<path d="M7.78754 125.578L15.8646 131.507V118.203L7.78754 125.578Z" fill="white"/>
<path d="M65.8034 102.065C65.485 100.821 62.2426 93.5618 62.2426 93.5618H51.4153L45.5094 95.9912L35.5506 100.243L24.6365 110.221L15.8646 118.232V131.507L23.9127 137.378L32.3082 130.813L49.0703 117.682L61.7215 114.877C61.7215 114.906 66.1219 103.308 65.8034 102.065Z" fill="white"/>
<path d="M61.2003 115.282L49.244 117.682L48.7808 118.058L49.215 117.972L49.244 117.943L50.3151 117.711L61.2293 115.311L61.2003 115.282Z" fill="#2C90E3"/>
<path d="M32.3372 131.044L29.1527 133.561L25.0997 137.552L25.0128 137.725H24.9549L24.2601 138.419L21.7415 136.308L20.4677 135.73L20.3229 135.903L21.7415 136.568L24.2601 138.68L29.1816 133.85L32.453 131.276C32.3951 131.16 32.3661 131.102 32.3372 131.044Z" fill="#E5E5E5"/>
<path d="M32.3951 130.986L32.3372 131.044C32.3661 131.102 32.3951 131.16 32.424 131.218L32.4819 131.16C32.453 131.102 32.424 131.044 32.3951 130.986Z" fill="#334D66"/>
<path d="M25.1011 137.523L24.9549 137.669L25.0134 137.698L25.1011 137.523Z" fill="#2C90E3"/>
<path d="M19.0491 134.023L18.9044 134.139L20.4677 135.44L20.5835 135.296L19.0491 134.023Z" fill="#E5E5E5"/>
<path d="M60.9398 115.08L49.0703 117.711L32.3082 130.842C32.3372 130.9 32.3661 130.958 32.3951 130.986C32.3661 130.929 32.3372 130.871 32.3082 130.842L48.7808 118.058L49.244 117.682L61.2003 115.282C61.1135 115.224 61.0267 115.137 60.9398 115.08Z" fill="#E5E5E5"/>
<path d="M32.3082 130.842L23.9127 137.407L19.1649 133.908L19.0491 134.023L20.5835 135.325L20.4677 135.469L20.5835 135.585L20.4677 135.73L21.7415 136.308L24.2601 138.419L24.9549 137.725L25.0997 137.581L29.1527 133.589L32.3372 131.073L32.3951 131.015C32.3661 130.929 32.3372 130.9 32.3082 130.842Z" fill="#E5E5E5"/>
<path d="M61.2293 115.311L50.2862 117.711L61.432 115.456C61.3741 115.427 61.3162 115.369 61.2293 115.311Z" fill="#2884D1"/>
<path d="M32.3951 130.986C32.4243 131.045 32.4536 131.103 32.4828 131.162C32.4536 131.103 32.4243 131.045 32.3951 130.986Z" fill="#30475E"/>
<path d="M49.215 117.972L48.7808 118.058L32.3951 130.986C32.424 131.044 32.453 131.102 32.4819 131.16L49.215 117.972Z" fill="#2884D1"/>
<path d="M48.7808 118.058L32.3082 130.842C32.3372 130.9 32.3661 130.958 32.3951 130.986L48.7808 118.058Z" fill="#D3D3D3"/>
<path d="M52.718 107.329L42.0644 111.03L29.0369 124.016L19.1649 133.908L23.9127 137.378L32.3082 130.813L49.0703 117.682L60.9398 115.051C58.1027 112.939 55.2945 110.365 52.718 107.329Z" fill="#E5E5E5"/>
<path d="M107.202 61.6033C87.5159 53.0714 75.4727 59.4631 75.4727 59.4631L41.4275 83.0632C41.4275 83.0632 41.6591 86.6206 43.7435 91.8554C53.6154 119.562 82.4207 125.434 82.4207 125.434C111.747 101.371 118.724 70.0773 118.724 70.0773C112.587 64.7268 107.202 61.6033 107.202 61.6033Z" fill="#2B93D8"/>
<path d="M177.29 57.5253H177.464C177.406 57.4096 177.348 57.2939 177.29 57.2072V57.5253Z" fill="#C0CAD2"/>
<path d="M179.316 54.9802L177.348 54.9223L177.29 57.1782C177.348 57.2939 177.406 57.4096 177.464 57.4964L178.361 57.5253L179.316 54.9802Z" fill="#C0CAD2"/>
<path d="M141.102 91.5662C141.073 91.5951 141.073 91.624 141.044 91.6819L141.247 91.6529L141.102 91.5662ZM140.784 86.6784C140.813 88.1823 140.929 89.6573 141.16 91.0745C141.16 91.1613 141.16 91.2191 141.16 91.3059C141.247 91.1613 141.276 90.9877 141.247 90.7564C141.044 89.4549 140.929 88.1245 140.9 86.7362L140.784 86.6784Z" fill="#2D658A"/>
<path d="M143.534 66.2597C142.087 71.9283 140.581 79.6215 140.784 86.6495L140.871 86.6784C140.639 79.7083 142.116 72.0151 143.534 66.2597Z" fill="#D9D9D9"/>
<path d="M146.053 58.393L132.533 60.9959L120.895 79.1877L140.697 91.7108L141.044 91.6819C141.073 91.6529 141.073 91.624 141.102 91.5662L140.958 91.4794C141.044 91.4216 141.102 91.3637 141.16 91.277C141.16 91.2191 141.16 91.1323 141.16 91.0456C140.958 89.6284 140.842 88.1534 140.784 86.6495C140.581 79.5926 142.087 71.9283 143.534 66.2597C144.403 62.818 145.271 60.0993 145.734 58.6243C145.821 58.5665 145.937 58.5086 146.053 58.4508V58.393Z" fill="#364D5B"/>
<path d="M120.895 79.1588L119.332 81.6171L124.804 93.2147L140.697 91.7108L120.895 79.1588Z" fill="#364D5B"/>
<path d="M156.735 100.185C157.43 99.5196 158.067 98.8255 158.675 98.1314L149.093 93.9956L149.15 95.4995C149.179 95.9912 148.977 96.425 148.658 96.7142L156.735 100.185Z" fill="#C0CAD2"/>
<path d="M138.671 69.9616C138.381 70.6268 138.7 71.4077 139.365 71.6969L167.563 83.7862C167.968 82.774 168.286 81.9352 168.518 81.299L140.408 69.2386C139.771 68.9783 138.96 69.2964 138.671 69.9616Z" fill="#C0CAD2"/>
<path d="M134.27 77.8283C133.981 78.4935 134.299 79.2744 134.965 79.5637L163.452 91.7686C163.944 90.9877 164.407 90.2068 164.812 89.4549L136.007 77.1053C135.341 76.845 134.56 77.1632 134.27 77.8283Z" fill="#C0CAD2"/>
<path d="M134.733 59.8969C134.01 59.9258 133.431 60.5332 133.431 61.2562L133.865 79.072L136.528 79.0141L136.094 61.1984C136.094 60.4753 135.486 59.8969 134.733 59.8969Z" fill="#C0CAD2"/>
<path d="M134.82 60.8224C134.183 61.1694 133.923 61.9793 134.27 62.6155L138.873 71.4077L139.279 71.5813C138.786 71.2342 138.584 70.569 138.815 69.9616C139.105 69.2964 139.887 68.9783 140.552 69.2675L140.784 69.3543L136.586 61.343C136.268 60.7356 135.457 60.4753 134.82 60.8224Z" fill="#C0CAD2"/>
<path d="M134.212 59.6077C133.575 59.9547 133.315 60.7645 133.662 61.4008L138.265 70.193L138.671 70.3665C138.178 70.0195 137.976 69.3543 138.207 68.7469C138.497 68.0817 139.279 67.7636 139.944 68.0528L140.176 68.1396L136.007 60.1572C135.66 59.5209 134.849 59.2606 134.212 59.6077Z" fill="#C0CAD2"/>
<path d="M149.353 96.9745C150.077 96.9456 150.656 96.2515 150.627 95.4128L149.99 75.1675L147.327 75.2543L147.964 95.4995C147.993 96.3383 148.629 97.0034 149.353 96.9745Z" fill="#C0CAD2"/>
<path d="M148.05 56.9179C147.327 56.9469 146.748 57.641 146.777 58.4797L147.414 78.7249L150.077 78.6382L149.44 58.393C149.411 57.5542 148.774 56.889 148.05 56.9179Z" fill="#C0CAD2"/>
<path d="M177.435 57.5831C177.435 57.5831 176.769 57.5831 175.611 57.5542C175.032 57.5542 174.337 57.5253 173.526 57.5253C172.716 57.5253 171.818 57.5253 170.834 57.5542C168.865 57.5542 166.549 57.641 164.089 57.7278C162.844 57.7856 161.57 57.8724 160.296 57.9302C158.994 58.0459 157.691 58.1327 156.388 58.2483C151.148 58.7111 145.937 59.5209 142.087 60.2729C140.147 60.6488 138.555 61.0248 137.455 61.2851C136.355 61.5454 135.718 61.719 135.718 61.719C135.11 61.8925 134.444 61.4587 134.212 60.7645C133.981 60.0704 134.357 59.3185 135.023 59.1449C135.023 59.1449 135.689 58.9714 136.818 58.6822C137.976 58.393 139.597 58.017 141.566 57.641C145.503 56.8601 150.801 56.0792 156.127 55.5875C157.459 55.4719 158.791 55.3851 160.094 55.2694C161.396 55.1826 162.699 55.1248 163.944 55.038C166.434 54.9513 168.779 54.8645 170.776 54.8645C171.789 54.8645 172.687 54.8645 173.497 54.8356C174.308 54.8645 175.032 54.8645 175.611 54.8645C176.769 54.8934 177.435 54.8934 177.435 54.8934C178.101 54.8934 178.622 55.5297 178.593 56.2527C178.651 57.0047 178.072 57.6121 177.435 57.5831Z" fill="#C0CAD2"/>
<path d="M156.735 100.185L154.13 98.1314L149.498 94.8922C149.498 94.8922 148.89 92.3471 149.006 92.2024C149.15 92.0578 147.732 87.2279 147.732 87.2279L147.964 96.4829L156.735 100.185Z" fill="#C0CAD2"/>
<path d="M134.096 77.2499L133.865 79.1009L147.356 84.8853L136.528 79.0142L134.096 77.2499Z" fill="#C0CAD2"/>
<path d="M133.633 61.4008L134.82 60.8224L136.007 60.1572L136.528 58.74L133.489 59.4631L133.633 61.4008Z" fill="#C0CAD2"/>
<path d="M134.27 59.2606L133.489 59.4631L133.46 62.066L134.56 61.6033L134.791 61.2273L134.704 60.0704L134.27 59.2606Z" fill="#C0CAD2"/>
<path d="M168.518 81.299L165.652 80.0842C161.454 92.3471 153.667 98.8255 153.667 98.8255L156.735 99.8667C164.031 94.0534 168.518 81.299 168.518 81.299Z" fill="#C0CAD2"/>
<path d="M128.278 56.4841C129.109 56.4841 129.783 55.8108 129.783 54.9802C129.783 54.1496 129.109 53.4763 128.278 53.4763C127.446 53.4763 126.772 54.1496 126.772 54.9802C126.772 55.8108 127.446 56.4841 128.278 56.4841Z" fill="white"/>
<path d="M133.662 55.3562C134.494 55.3562 135.168 54.6828 135.168 53.8522C135.168 53.0216 134.494 52.3483 133.662 52.3483C132.831 52.3483 132.157 53.0216 132.157 53.8522C132.157 54.6828 132.831 55.3562 133.662 55.3562Z" fill="white"/>
<path d="M126.512 88.3848C127.039 88.3848 127.467 87.9575 127.467 87.4304C127.467 86.9033 127.039 86.476 126.512 86.476C125.984 86.476 125.556 86.9033 125.556 87.4304C125.556 87.9575 125.984 88.3848 126.512 88.3848Z" fill="white"/>
<path d="M141.392 26.8394L135.689 34.2433H129.378L133.083 39.1311L130.043 46.0434L137.136 42.7752L142.463 46.0434L143.129 39.1311L149.469 34.2433H143.158L141.392 26.8394Z" fill="#C0CAD2"/>
<path d="M36.1586 88.8186H49.3019L37.8377 82.9475L36.1586 88.8186Z" fill="#32CDFC"/>
<path d="M107.781 33.6938L109.46 28.1698H96.2878L107.781 33.6938Z" fill="#364D5B"/>
<path d="M93.7981 38.3502H106.97L95.4772 32.8262L93.7981 38.3502Z" fill="#35B6DF"/>
<path d="M104.365 45.7252L107.086 38.4948H85.9526L104.365 45.7252Z" fill="#364D5B"/>
<path d="M102.338 56.0503L104.017 50.5262H90.8452L102.338 56.0503Z" fill="#364D5B"/>
<path d="M88.4713 50.4973H101.615L90.1504 44.9444L88.4713 50.4973Z" fill="#35B6DF"/>
<path d="M101.644 28.1987H114.816L103.323 22.6746L101.644 28.1987Z" fill="#35B6DF"/>
<path d="M110.415 41.4448H123.559L112.095 35.9208L110.415 41.4448Z" fill="#364D5B"/>
<path d="M162.67 36.0075L162.96 39.1311H165.478C164.581 38.061 163.654 37.0198 162.67 36.0075Z" fill="#364D5B"/>
<path d="M165.507 39.1311C165.594 39.2179 165.681 39.3335 165.768 39.4203C165.652 39.3335 165.594 39.2468 165.507 39.1311Z" fill="#364D5B"/>
<path d="M165.739 39.4492L164.147 44.6841L161.194 43.2669L155.085 50.5552L159.428 50.0924C163.857 49.1959 168.894 48.762 172.455 48.5596C170.429 45.3493 168.171 42.3125 165.739 39.4492Z" fill="#364D5B"/>
<path d="M161.541 23.7447L162.091 29.5002H167.447C165.71 27.4178 163.741 25.48 161.541 23.7447Z" fill="#364D5B"/>
<path d="M173.179 39.7384C172.716 38.3502 172.166 37.0198 171.5 35.6894C171.181 35.082 170.863 34.4747 170.516 33.8963L162.091 29.8472L162.67 36.0075C166.318 39.8541 169.589 44.0478 172.455 48.5596C173.353 48.5017 174.163 48.4728 174.858 48.4439C174.771 46.535 174.482 44.6551 174.076 42.8331L167.707 39.7674H173.179V39.7384Z" fill="#364D5B"/>
<path d="M172.484 48.5596C168.923 48.762 163.886 49.1958 159.457 50.0924L172.571 48.7042C172.542 48.6463 172.513 48.5885 172.484 48.5596Z" fill="#2D9BBE"/>
<path d="M174.945 48.4439H174.858C174.192 48.4728 173.382 48.5017 172.455 48.5596C172.484 48.6174 172.513 48.6463 172.542 48.7042L174.945 48.4439Z" fill="#2D9BBE"/>
<path d="M165.739 39.4203C165.652 39.3335 165.565 39.2179 165.478 39.1311H162.96H152.653L161.165 43.238L164.118 44.6551L165.739 39.4203Z" fill="#364D5B"/>
<path d="M165.507 39.1311C165.594 39.2179 165.681 39.3335 165.768 39.4203L165.855 39.1311H165.507Z" fill="#364D5B"/>
<path d="M153.377 62.818L150.772 63.8592L155.838 68.9494L158.501 68.1685L161.57 71.8994L163.336 67.0984L153.377 62.818Z" fill="#CCCCCC"/>
<path d="M52.6891 89.3392L55.4104 81.6749H34.2769L52.6891 89.3392Z" fill="#2B93D8"/>
<path d="M37.4034 68.342L61.6057 63.5121L67.4536 60.9381L68.1484 57.1493H30.5712C28.8342 60.7356 27.3578 64.4954 26.1708 68.342H37.4034Z" fill="#3577A2"/>
<path d="M81.2048 64.7268L84.013 57.0626H61.8951L81.2048 64.7268Z" fill="#2B93D8"/>
<path d="M107.462 109.555L105.783 115.108H118.956L107.462 109.555Z" fill="#31A0FD"/>
<path d="M137.889 116.728L149.122 144.03C156.07 145.158 162.091 144.638 167.302 143.018C176.421 131.97 182.617 118.55 184.759 103.858C172.253 99.6932 152.393 97.553 137.889 116.728Z" fill="#2B93D8"/>
<path d="M133.952 122.773C131.752 126.648 129.696 131.131 127.901 136.366C132.938 139.056 137.628 141.022 142.029 142.353L133.952 122.773Z" fill="#2B93D8"/>
<path d="M149.151 144.03L137.918 116.728C136.557 118.55 135.226 120.546 133.981 122.773L142.058 142.382C144.49 143.105 146.863 143.654 149.151 144.03Z" fill="#2B93D8"/>
<path d="M180.272 102.499C178.014 101.978 175.611 101.544 173.092 101.284L180.706 119.794C181.835 116.757 182.79 113.633 183.543 110.423L180.272 102.499Z" fill="#2B93D8"/>
<path d="M184.701 104.436C184.383 106.403 184.006 108.312 183.572 110.221C183.572 110.279 183.543 110.336 183.543 110.394C184.006 108.456 184.383 106.461 184.701 104.436Z" fill="#7EABC8"/>
<path d="M182.79 113.373C180.185 122.802 175.871 131.565 170.226 139.287C170.197 139.316 170.168 139.374 170.139 139.403C175.842 131.652 180.185 122.859 182.79 113.373Z" fill="#D9D9D9"/>
<path d="M170.226 139.287C169.647 140.068 169.068 140.82 168.489 141.572C168.113 142.063 167.736 142.526 167.331 143.018L167.302 143.047C168.286 141.861 169.213 140.646 170.11 139.432C170.168 139.374 170.197 139.345 170.226 139.287Z" fill="#314961"/>
<path d="M168.489 141.572C168.113 142.063 167.736 142.526 167.331 143.018C167.707 142.555 168.113 142.063 168.489 141.572Z" fill="#2BAED6"/>
<path d="M182.964 112.708C182.327 115.108 181.575 117.48 180.706 119.794C178.129 126.793 174.569 133.329 170.226 139.287C175.9 131.536 180.185 122.802 182.79 113.373V113.344C182.848 113.113 182.906 112.91 182.964 112.708Z" fill="#7EABC8"/>
<path d="M170.226 139.287C169.647 140.068 169.068 140.82 168.489 141.601C169.068 140.82 169.647 140.068 170.226 139.287Z" fill="#2B648C"/>
<path d="M167.331 143.018C164.031 144.059 160.383 144.638 156.359 144.638C154.101 144.638 151.756 144.464 149.266 144.059L149.353 144.29C151.872 144.695 154.275 144.898 156.562 144.898C159.544 144.898 162.323 144.58 164.928 143.972L167.331 143.018Z" fill="#2BAED6"/>
<path d="M177.493 111.927L170.139 112.968L167.968 117.943L156.533 124.971L144.316 132.086L149.237 144.059C151.727 144.464 154.072 144.638 156.33 144.638C160.325 144.638 163.973 144.03 167.302 143.018C167.679 142.555 168.084 142.064 168.46 141.601C169.068 140.849 169.647 140.068 170.197 139.287C174.54 133.329 178.101 126.793 180.677 119.794L177.493 111.927ZM184.701 104.465L182.269 107.039L183.601 110.25C184.035 108.341 184.412 106.403 184.701 104.465Z" fill="#257DB8"/>
<path d="M183.543 110.423C182.79 113.576 181.864 116.641 180.764 119.649L177.579 111.898L177.464 111.927L180.706 119.794C181.575 117.48 182.327 115.108 182.964 112.708C183.167 111.927 183.369 111.175 183.543 110.423Z" fill="#257DB8"/>
<path d="M134.096 123.12C133.836 123.583 133.575 124.045 133.315 124.508L137.57 131.565L134.096 123.12Z" fill="#257DB8"/>
<path d="M134.183 123.033C134.154 123.062 134.154 123.12 134.125 123.149L137.599 131.594L137.947 132.172L134.183 123.033Z" fill="#257DB8"/>
<path d="M141.71 141.572L142.029 142.353C141.247 142.121 140.437 141.861 139.655 141.572H139.134C140.176 141.948 141.218 142.295 142.26 142.613L142.174 142.382C142.145 142.382 142.087 142.353 142.058 142.353L141.71 141.572Z" fill="#269DC0"/>
<path d="M139.25 141.456C139.192 141.485 139.105 141.543 139.047 141.572L139.105 141.601H139.626C139.51 141.543 139.394 141.485 139.25 141.456Z" fill="#295B7B"/>
<path d="M128.162 136.511C128.162 136.539 128.133 136.597 128.133 136.626C131.983 138.68 135.602 140.299 139.076 141.572C139.134 141.543 139.221 141.514 139.279 141.456C135.747 140.212 132.07 138.564 128.162 136.511Z" fill="#D9D9D9"/>
<path d="M133.344 124.537C131.462 128.036 129.725 131.999 128.162 136.511C132.07 138.593 135.747 140.213 139.25 141.456C139.365 141.514 139.51 141.543 139.626 141.601C140.437 141.89 141.218 142.15 142 142.382L141.681 141.601L137.57 131.594L133.344 124.537Z" fill="#257DB8"/>
<path d="M137.599 131.565L141.71 141.572L142.029 142.353C142.058 142.353 142.116 142.382 142.145 142.382L137.947 132.172L137.599 131.565Z" fill="#257DB8"/>
<path d="M148.514 142.526L149.122 144.03C148.253 143.886 147.385 143.712 146.487 143.539C146.371 143.596 146.284 143.625 146.169 143.683C147.24 143.915 148.311 144.146 149.324 144.29L149.237 144.059C149.208 144.059 149.15 144.059 149.122 144.03L148.514 142.526Z" fill="#2BAED6"/>
<path d="M142.145 142.411L142.231 142.642C143.592 143.047 144.895 143.394 146.198 143.683C146.313 143.625 146.4 143.596 146.516 143.538C145.097 143.22 143.65 142.844 142.145 142.411ZM148.137 141.572L148.514 142.526L148.137 141.572Z" fill="#269DC0"/>
<path d="M146.255 137.031L148.137 141.572L146.255 137.031Z" fill="#295B7B"/>
<path d="M144.229 132.114L146.256 137.031L144.229 132.114Z" fill="#D9D9D9"/>
<path d="M144.345 132.057L144.287 132.086H144.258L146.284 137.002L148.166 141.572L148.543 142.526L149.15 144.03C149.179 144.03 149.237 144.03 149.266 144.059L144.345 132.057Z" fill="#257DB8"/>
<path d="M144.229 132.114L137.947 132.172L142.174 142.411C143.65 142.873 145.097 143.22 146.516 143.539C147.413 143.741 148.282 143.886 149.151 144.03L148.543 142.526L148.166 141.572L146.284 137.002L144.229 132.114Z" fill="#257DB8"/>
<path d="M182.24 107.01L182.154 107.097L183.514 110.423C183.514 110.365 183.543 110.307 183.543 110.25L182.24 107.01Z" fill="#257DB8"/>
<path d="M182.183 107.097L177.579 111.898L180.764 119.649C181.864 116.641 182.79 113.576 183.543 110.423L182.183 107.097Z" fill="#257DB8"/>
<path d="M183.572 110.25C183.572 110.308 183.543 110.367 183.543 110.425C183.543 110.367 183.572 110.308 183.572 110.25Z" fill="#7EABC8"/>
<path d="M152.352 123.506L150.835 124.407L153.957 129.652L155.475 128.75L152.352 123.506Z" fill="white"/>
<path d="M155.502 121.622L153.984 122.524L157.107 127.769L158.624 126.867L155.502 121.622Z" fill="white"/>
<path d="M158.65 119.742L157.133 120.644L160.255 125.889L161.773 124.987L158.65 119.742Z" fill="white"/>
<path d="M161.963 117.688L160.445 118.59L163.568 123.834L165.086 122.932L161.963 117.688Z" fill="white"/>
<path d="M165.142 115.895L163.624 116.797L166.747 122.042L168.264 121.14L165.142 115.895Z" fill="white"/>
<path d="M167.707 104.234C148.6 104.234 139.771 120.69 139.771 120.69C152.046 108.254 170.052 105.738 174.742 105.304L174.598 104.928C172.166 104.465 169.879 104.234 167.707 104.234Z" fill="#2784C2"/>
<path d="M174.598 104.928L174.742 105.304C175.466 105.246 175.871 105.217 175.871 105.217C175.466 105.102 175.032 105.015 174.598 104.928Z" fill="#2784C2"/>
<path d="M52.1969 75.4278L43.2224 81.646H43.454L52.3127 75.4857L52.1969 75.4278Z" fill="#306B91"/>
<path d="M52.3127 75.4857L43.454 81.646H64.3559L52.3127 75.4857Z" fill="#2784C2"/>
<path d="M116.755 76.6426C113.05 87.1122 103.525 108.08 82.5076 125.347C82.5944 125.376 82.6523 125.376 82.6523 125.376C103.525 108.225 113.079 87.4304 116.842 76.8739C116.842 76.8161 116.784 76.7293 116.755 76.6426Z" fill="#2C90E3"/>
<path d="M116.755 76.6426C116.784 76.7293 116.842 76.8161 116.871 76.9029L116.755 76.6426ZM117.479 68.7759C117.913 69.1808 118.348 69.6146 118.782 70.0484C118.782 70.0484 118.232 72.5068 116.784 76.5847L116.958 76.7004C118.435 72.5646 118.985 70.0484 118.985 70.0484C118.463 69.5857 117.971 69.1808 117.479 68.7759Z" fill="#395160"/>
<path d="M111.689 64.5533C113.658 65.9415 116.147 67.8214 118.753 70.0484C118.319 69.6146 117.884 69.1808 117.45 68.7759C115.424 67.0984 113.542 65.7102 111.95 64.5822L111.689 64.5533ZM89.1082 57.1493C91.1057 57.2361 93.3059 57.4964 95.6798 57.9302V57.8724C93.3059 57.4675 91.1057 57.2361 89.1082 57.1493Z" fill="#2784C2"/>
<path d="M116.784 76.5558L116.755 76.6136L116.871 76.8739C116.9 76.7872 116.929 76.7293 116.958 76.6715L116.784 76.5558Z" fill="#395160"/>
<path d="M106.131 61.0248C106.883 61.3719 107.607 61.7479 108.36 62.1528C107.752 61.7768 107.405 61.5743 107.405 61.5743C106.97 61.4008 106.565 61.1984 106.131 61.0248Z" fill="#304552"/>
<path d="M95.6798 57.9013V57.9591C99.1538 58.6243 103.004 59.7812 107.202 61.6033C107.202 61.6033 108.997 62.6445 111.689 64.5533L111.95 64.5822C110.386 63.4832 109.142 62.6734 108.331 62.1528C107.578 61.7479 106.826 61.3719 106.102 61.0248C102.338 59.492 98.8354 58.5086 95.6798 57.9013Z" fill="#2170A5"/>
<path d="M89.1371 57.1783L95.2456 68.6023L93.827 82.9475L96.2878 81.6749L99.1538 99.1437L84.013 113.084L81.3785 115.456L53.5576 108.052C65.1955 121.182 80.7995 124.971 82.5076 125.347C103.525 108.08 113.05 87.0833 116.755 76.6426L116.784 76.5847C118.232 72.5068 118.782 70.0484 118.782 70.0484C116.176 67.7925 113.687 65.9415 111.718 64.5533C109.026 62.6445 107.231 61.6033 107.231 61.6033C103.033 59.7812 99.1538 58.6243 95.7088 57.9591C93.3059 57.4964 91.1057 57.265 89.1371 57.1783Z" fill="#2784C2"/>
<path d="M96.2878 81.6749L93.827 82.9475L81.3785 89.2814L76.0517 104.783L53.5576 108.052L81.3785 115.484L84.013 113.084L99.1538 99.1437L96.2878 81.6749Z" fill="#2784C2"/>
<path d="M94.9271 151.116H73.8226L92.2348 158.346L94.9271 151.116Z" fill="#32CDFC"/>
<path d="M83.0866 145.418L81.3785 150.942H94.5508L83.0866 145.418Z" fill="#31A0FD"/>
<path d="M120.229 114.819H99.0959L117.508 122.05L120.229 114.819Z" fill="#2B93D8"/>
<path d="M29.9343 81.8774L23.2758 78.6671C23.1021 79.7372 22.9284 80.8073 22.8126 81.8774H29.9343Z" fill="white"/>
<path d="M40.2984 81.5303H53.4417L41.9775 75.6592L40.2984 81.5303Z" fill="#3577A2"/>
<path d="M29.8764 89.7152L32.5688 82.0509H23.6521C23.4495 83.6705 23.3047 85.2902 23.2179 86.9387L29.8764 89.7152Z" fill="#32CDFC"/>
<path d="M11.4642 81.8774L12.9407 82.5137V81.8774H11.4642Z" fill="#32CDFC"/>
<path d="M12.9407 82.5137L23.2179 86.7652C23.3048 85.1166 23.4785 83.497 23.6522 81.8774H12.9407V82.5137Z" fill="#32CDFC"/>
<path d="M35.6375 53.9969L37.3166 48.7042H35.7243C34.8558 50.0635 34.0163 51.4517 33.2057 52.8689L35.6375 53.9969Z" fill="#35B6DF"/>
<path d="M33.2056 52.8689C33.9873 51.4517 34.8268 50.0635 35.7243 48.7042H24.1443L33.2056 52.8689Z" fill="#35B6DF"/>
<path d="M47.5938 78.5514C47.5938 78.5514 47.6228 78.5514 47.6517 78.5803C47.7096 78.6093 47.7965 78.6382 47.8833 78.696C49.1282 79.3323 53.7602 81.6749 53.7602 81.6749L29.9054 81.8774L23.6232 78.8406C23.6232 78.8406 25.9971 65.5656 30.5423 57.1204L41.4275 61.8636L47.5649 67.5033L52.5153 75.2832" fill="#3577A2"/>
<path d="M72.433 61.3719L57.8711 66.4621L48.1729 72.8827L46.3201 74.5602L45.3358 77.0764L46.8991 79.2744L72.7514 61.3719C72.4619 61.3719 61.9241 57.0626 61.9241 57.0626L30.6581 56.9758L30.4554 57.4385C30.4554 57.4385 30.9476 58.0459 31.2081 58.1037C31.4687 58.1616 47.6228 60.7356 47.6228 60.7356L52.2838 61.8346L41.2249 74.0975L48.5782 69.2386" fill="#3577A2"/>
<path d="M11.4642 81.8774H34.798L35.8402 82.3112L33.4952 84.1333L27.2709 84.972L22.61 84.7117L20.9019 84.3357L11.4642 81.8774Z" fill="#32CDFC"/>
<path d="M49.3019 88.8186C49.0992 88.7029 34.7979 81.8774 34.7979 81.8774L43.6856 82.745L45.1041 83.5838" fill="#2B93D8"/>
<path d="M42.7302 38.6683C42.7302 38.6683 55.9025 21.6334 79.4678 14.8079C103.033 7.98239 81.4943 19.7246 81.4943 19.7246L57.6105 39.1311H42.7592V38.6683" fill="#35B6DF"/>
<path d="M81.0601 26.4345H69.0748V29.8472H81.0601V26.4345Z" fill="#30A3C8"/>
<path d="M63.0242 21.9516C59.0291 24.2653 55.2366 26.8972 51.6758 29.8183H69.0747L73.2725 26.4055L63.0242 21.9516Z" fill="#30A3C8"/>
<path d="M35.319 48.7042C35.319 48.7042 37.3745 44.9733 42.875 38.4948C48.3755 32.0453 45.3357 42.9488 45.3357 42.9488L40.9643 50.4973L35.9849 50.5262L35.319 48.7042Z" fill="#35B6DF"/>
<path d="M47.2175 39.1311H46.0884C45.8858 40.9242 45.3068 42.9488 45.3068 42.9488L41.9775 48.7042H75.0095L47.2175 39.1311Z" fill="#30A3C8"/>
<path d="M46.1463 38.784C46.1463 38.8997 46.1174 39.0154 46.1174 39.16H47.2464L46.1463 38.784Z" fill="#30A3C8"/>
<path d="M43.6277 37.9164C40.559 41.2713 37.7798 44.8865 35.319 48.7042H41.9775L45.3068 42.9777C45.3068 42.9777 45.8858 40.9532 46.0884 39.16C46.0884 39.0443 46.1174 38.8997 46.1174 38.784L43.6277 37.9164Z" fill="#30A3C8"/>
<path d="M70.8696 17.9026C70.8696 17.9026 96.6931 4.77209 124.514 13.3329C124.514 13.3329 94.4928 19.1173 93.798 19.1173C93.1032 19.1173 80.51 18.7991 79.323 19.1173C78.165 19.4354 70.8696 17.9026 70.8696 17.9026Z" fill="#35B6DF"/>
<path d="M167.331 143.018C166.984 143.452 147.992 173.212 102.251 173.559L103.265 170.118L113.455 165.201L133.691 155.165L148.398 150.624L167.331 143.018Z" fill="#32CDFC"/>
<path d="M152.74 157.97H152.306C148.282 160.892 143.418 163.842 137.657 166.358L137.744 166.387C143.042 164.073 148.079 161.268 152.74 157.97Z" fill="#E5E5E5"/>
<path d="M128.017 157.97H109.663L121.098 161.412L128.017 157.97Z" fill="#2DB8E2"/>
<path d="M152.306 157.97H128.046L121.127 161.412L137.657 166.387C143.418 163.842 148.282 160.892 152.306 157.97Z" fill="#2DB8E2"/>
<path d="M88.3265 56.9758L65.5718 57.0626C65.5718 57.0626 72.2592 59.0871 72.4329 59.0871C72.6066 59.0871 81.0311 59.6655 81.0311 59.6655L86.2421 59.8969" fill="#2B93D8"/>
<path d="M95.2166 68.6023L89.1082 57.1782C89.1082 57.1782 105.089 55.8478 118.753 70.0484L107.376 71.8994L95.2166 68.6023Z" fill="#2784C2"/>
<path d="M22.4942 86.4759C22.4942 86.4759 21.8573 92.1446 22.2626 93.8221C22.6679 95.4995 23.0442 91.277 23.0442 91.277L24.9839 86.9965V86.4759L23.6522 84.972" fill="#32CDFC"/>
</svg>