<svg width="351" height="204" viewBox="0 0 351 204" fill="none" xmlns="http://www.w3.org/2000/svg">
<g clip-path="url(#clip0_1865_167)">
<path d="M225.699 73.4766H225.758V73.4176L225.699 69.4639V68.4017C225.817 66.4543 226.171 64.566 226.76 62.7956L221.277 58.3698C221.041 58.1928 220.864 58.0158 220.628 57.8387C219.921 57.1896 219.331 56.4225 218.918 55.5963C217.562 56.0684 216.383 56.9536 215.499 58.1928C213.14 61.4384 213.848 65.9822 217.091 68.4017H217.149C217.385 68.5787 217.621 68.6967 217.857 68.8147L225.581 74.0077L225.64 73.8897L225.581 74.0077C225.64 73.7716 225.699 73.5946 225.699 73.5946V73.4766Z" fill="#EBEBEB"/>
<path d="M231.277 47.1195L231.218 47.1785C231.041 47.0014 230.805 46.7654 230.628 46.5884H230.569C227.739 44.1099 223.494 44.1689 220.723 46.5884L220.605 46.7064C220.546 46.7654 220.487 46.8244 220.428 46.8834C220.31 47.0014 220.133 47.1195 220.074 47.2375L220.015 47.2965C217.951 49.7159 217.657 53.0205 218.954 55.676C219.366 56.5022 219.897 57.2693 220.664 57.9184C220.899 58.0954 221.076 58.2725 221.312 58.4495L226.796 62.8753V62.7573C227.739 60.1608 229.213 57.7414 231.1 55.735C232.515 54.2007 234.284 52.8435 236.171 51.7223L231.277 47.1195Z" fill="#AB7643"/>
<path d="M218.128 52.2534C218.128 54.3188 219.013 56.3841 220.664 57.9184C220.899 58.0954 221.076 58.2725 221.312 58.4495L226.737 62.8163C227.68 60.2198 229.154 57.8594 231.041 55.794L220.723 46.5884L220.605 46.7064C220.546 46.7654 220.487 46.8244 220.428 46.8834C220.31 47.0014 220.133 47.1195 220.074 47.2375C218.777 48.7127 218.128 50.4831 218.128 52.2534Z" fill="#966B40"/>
<path d="M283.222 118.581C283.222 118.581 279.39 116.044 278.092 115.69C275.321 114.333 271.96 112.916 269.248 111.854C268.172 111.399 267.098 111.002 266.062 110.622C265.681 110.502 265.255 110.346 264.767 110.143C264.573 110.062 264.372 109.991 264.175 109.915C263.957 109.834 263.824 109.789 263.824 109.789C263.173 109.562 262.538 109.35 261.923 109.153C260.407 108.714 258.841 108.392 257.257 108.166L257.574 111.501V111.619C255.274 113.094 253.093 114.274 251.442 115.1L251.324 115.159C249.26 116.163 247.963 116.694 247.963 116.694C242.008 114.982 238.588 111.855 238.352 111.619V111.678V111.619V111.56C238.352 111.2 238.442 110.125 238.582 108.842C234.639 109.538 232.039 110.3 232.039 110.3C231.961 110.327 231.885 110.352 231.807 110.38C231.277 110.557 230.687 110.793 230.156 110.97C226.088 112.563 222.727 114.156 220.899 115.1C220.369 115.395 219.838 115.631 219.366 115.927C219.307 116.045 219.19 116.34 219.19 116.34C218.305 118.287 214.119 127.729 214.119 132.45L218.187 134.043L208.635 138.646L210.64 166.617H272.904L271.843 145.845L273.493 145.255L287.232 140.357L288.706 139.826L289.354 139.59C289.59 129.675 283.222 118.581 283.222 118.581Z" fill="#45C0DD"/>
<path d="M264.767 110.143C264.522 110.045 264.33 109.972 264.175 109.915C264.373 109.991 264.572 110.061 264.767 110.143Z" fill="#45C0DD"/>
<path d="M266.062 110.622C265.623 110.461 265.189 110.301 264.767 110.143C265.255 110.346 265.682 110.501 266.062 110.622Z" fill="#45C0DD"/>
<path d="M214.126 132.16C214.123 132.257 214.119 132.355 214.119 132.448L216.148 133.243L216.482 133.082L214.126 132.16Z" fill="#35B6DF"/>
<path d="M220.899 115.1C220.369 115.395 219.838 115.631 219.366 115.926C219.307 116.044 219.19 116.339 219.19 116.339C218.323 118.248 214.286 127.355 214.126 132.16L216.482 133.083L216.148 133.244L218.187 134.042L208.635 138.645L210.639 166.616H238.128C236.073 133.715 229.066 115.5 227.602 112.006C224.696 113.227 222.328 114.362 220.899 115.1Z" fill="#3AB2D2"/>
<path d="M299.378 119.053L288.588 110.261L278.269 102.058L277.444 101.409L274.26 98.8718L269.012 103.298L300.675 124.482L299.378 119.053Z" fill="#EBEBEB"/>
<path d="M320.486 131.977L323.847 128.259C323.847 128.259 323.08 127.492 322.668 127.197C322.668 127.197 321.96 127.551 321.194 127.846L319.543 126.312L307.986 115.277L288.352 96.5114L274.968 83.7061L271.96 80.8736C272.491 83.5881 273.022 86.6566 273.434 89.8432C273.67 91.6135 273.906 93.3838 274.024 95.1542C274.083 96.4524 274.142 97.6326 274.142 98.7538L276.383 100.583L277.267 101.291L278.092 101.94L288.293 110.084L299.024 118.699L300.852 118.227L301.441 118.05H301.5L303.918 122.594L313.47 130.266L314.531 131.092L316.654 132.803C316.359 133.511 316.123 134.16 316.123 134.16L317.302 135.222L320.486 131.977Z" fill="#966B40"/>
<path d="M305.392 118.404L308.045 115.336L288.411 96.5704L275.026 83.7651L272.019 80.9326C272.55 83.6471 273.081 86.7156 273.493 89.9022L305.392 118.404Z" fill="#AB7643"/>
<path d="M320.486 131.977L320.722 131.682L273.552 89.9022C273.788 91.6725 274.024 93.4429 274.142 95.2132C274.201 96.5114 274.26 97.6916 274.26 98.8128L276.5 100.642L277.385 101.35L278.21 101.999L288.411 110.143L299.142 118.758L300.97 118.286L301.559 118.109H301.618L304.036 122.653L313.587 130.325L314.649 131.151L316.771 132.862C316.477 133.57 316.241 134.219 316.241 134.219L317.42 135.281L319.72 132.744L320.486 131.977Z" fill="#966B40"/>
<path d="M304.684 123.184L305.156 123.538L307.868 125.722L304.684 123.184Z" fill="#EDC1B2"/>
<path d="M304.448 123.361V123.007L304.33 122.889L304.095 122.712L304.33 123.243L304.448 123.361Z" fill="#DAB2A4"/>
<path d="M301.618 118.168L300.97 118.345L301.618 118.227V118.168Z" fill="#AB7643"/>
<path d="M307.868 125.722L311.76 128.79L311.583 128.672L304.448 122.948L304.684 123.184L307.868 125.722Z" fill="#AB7643"/>
<path d="M304.449 122.948L304.33 122.889L304.449 123.008V122.948Z" fill="#AB7643"/>
<path d="M311.76 128.79L313.411 130.089L311.583 128.672L311.76 128.79Z" fill="#966B40"/>
<path d="M323.847 128.259C323.847 128.259 323.08 127.492 322.668 127.197C322.668 127.197 321.96 127.551 321.194 127.846L319.543 126.312L317.361 128.849L320.663 131.741L323.847 128.259Z" fill="#AB7643"/>
<path d="M288.706 139.825L288.765 140.356L288.706 139.825Z" fill="#EDC1B2"/>
<path d="M304.448 123.361L304.802 124.01L305.156 123.538L304.684 123.184L304.448 122.948V123.007V123.361Z" fill="#C4A093"/>
<path d="M313.411 130.089L311.76 128.79L307.868 125.722L305.156 123.538L303.505 121.119L301.677 118.168L301.618 118.227L300.97 118.345L299.142 118.817H299.083L298.788 118.876V118.994L301.029 125.899L301.205 126.666L289.354 139.589L288.706 139.825L285.168 141.124L273.493 145.254L276.206 155.463L286.878 161.541L297.668 147.084L307.691 134.337L313.882 132.154L314.708 131.21L313.411 130.089Z" fill="#EDC1B2"/>
<path d="M305.981 131.564L309.224 126.784L307.868 125.722L305.156 123.538L304.448 122.476V127.551L305.981 131.564Z" fill="#D5ADA0"/>
<path d="M301.441 129.321C301.441 129.026 301.205 126.666 301.205 126.666L300.97 126.961V126.902L289.354 139.589L288.706 139.825L288.47 139.884L289.708 147.202L301.323 129.557C301.382 129.439 301.441 129.321 301.441 129.321Z" fill="#D5ADA0"/>
<path d="M305.333 118.463L308.104 120.883L317.361 128.849L319.543 126.371L322.137 123.361L310.109 112.916L308.045 115.336L305.392 118.404L305.333 118.463Z" fill="#EDC1B2"/>
<path d="M287.231 140.356L288.706 139.825L289.354 139.589C289.413 137.996 289.236 136.403 289 134.809L275.38 139.235L270.899 133.511L271.842 145.785V145.844L273.493 145.254L287.231 140.356Z" fill="#288BAB"/>
<path d="M287.231 140.356L288.706 139.825L289.354 139.589C289.413 137.996 289.236 136.403 289 134.809L275.38 139.235L270.899 133.511L271.842 145.785V145.844L273.493 145.254L287.231 140.356Z" fill="#288BAB"/>
<path d="M221.725 103.77L221.666 103.711V103.77L221.784 103.829V103.77H221.725Z" fill="#85706B"/>
<path d="M232.039 110.299L247.801 126.253L264.095 109.886C263.922 109.822 263.824 109.789 263.824 109.789C263.791 109.772 263.757 109.758 263.724 109.741C250.453 104.89 232.039 110.299 232.039 110.299Z" fill="#253E4F"/>
<path d="M283.222 118.581C283.222 118.581 279.39 116.044 278.092 115.69C275.321 114.333 271.96 112.916 269.248 111.854C268.172 111.399 267.098 111.002 266.062 110.622C265.681 110.502 265.255 110.346 264.767 110.143C264.572 110.062 264.372 109.991 264.175 109.915C263.957 109.834 263.824 109.789 263.824 109.789L263.706 109.907L247.786 125.899L247.668 126.017L247.55 126.135L243.836 130.797V143.012V166.616H272.845L271.842 145.844L273.493 145.254L287.232 140.356L288.706 139.825L289.354 139.589C289.59 129.675 283.222 118.581 283.222 118.581Z" fill="#2D9BBE"/>
<path d="M266.062 110.622C265.623 110.461 265.189 110.301 264.767 110.143C265.255 110.346 265.682 110.501 266.062 110.622Z" fill="#2D9BBE"/>
<path d="M264.175 109.915C264.373 109.991 264.572 110.061 264.767 110.142C264.522 110.045 264.33 109.972 264.175 109.915Z" fill="#2D9BBE"/>
<path d="M260.817 122.771H260.758C260.64 122.771 260.581 122.83 260.522 122.948C260.404 123.066 260.345 123.184 260.345 123.302L263.352 142.835C263.411 143.071 263.588 143.248 263.824 143.248H263.883C264.119 143.189 264.295 142.953 264.295 142.717L261.288 123.184C261.229 122.948 261.053 122.771 260.817 122.771Z" fill="#6CB9D2"/>
<path d="M255.274 128.082H255.215C255.097 128.082 255.038 128.141 254.979 128.259C254.861 128.377 254.802 128.495 254.802 128.613L257.22 144.605C257.279 144.841 257.456 145.018 257.692 145.018H257.751C257.986 144.959 258.163 144.723 258.163 144.487L255.746 128.495C255.687 128.259 255.51 128.082 255.274 128.082Z" fill="#6CB9D2"/>
<path d="M247.786 137.17C247.255 137.17 246.843 137.583 246.843 138.114C246.843 138.645 247.255 139.058 247.786 139.058C248.317 139.058 248.729 138.645 248.729 138.114C248.729 137.642 248.317 137.17 247.786 137.17Z" fill="#6CB9D2"/>
<path d="M247.786 142.068C247.255 142.068 246.843 142.481 246.843 143.012C246.843 143.543 247.255 143.956 247.786 143.956C248.317 143.956 248.729 143.543 248.729 143.012C248.729 142.481 248.317 142.068 247.786 142.068Z" fill="#6CB9D2"/>
<path d="M247.786 146.966C247.255 146.966 246.843 147.379 246.843 147.91C246.843 148.441 247.255 148.854 247.786 148.854C248.317 148.854 248.729 148.441 248.729 147.91C248.729 147.438 248.317 146.966 247.786 146.966Z" fill="#6CB9D2"/>
<path d="M247.786 151.863C247.255 151.863 246.843 152.277 246.843 152.808C246.843 153.339 247.255 153.752 247.786 153.752C248.317 153.752 248.729 153.339 248.729 152.808C248.729 152.277 248.317 151.863 247.786 151.863Z" fill="#6CB9D2"/>
<path d="M247.786 156.702C247.255 156.702 246.843 157.115 246.843 157.646C246.843 158.178 247.255 158.591 247.786 158.591C248.317 158.591 248.729 158.178 248.729 157.646C248.729 157.115 248.317 156.702 247.786 156.702Z" fill="#6CB9D2"/>
<path d="M247.786 161.6C247.255 161.6 246.843 162.013 246.843 162.544C246.843 163.075 247.255 163.489 247.786 163.489C248.317 163.489 248.729 163.075 248.729 162.544C248.729 162.072 248.317 161.6 247.786 161.6Z" fill="#6CB9D2"/>
<path d="M274.259 98.5378C274.259 98.5378 274.259 98.5378 274.259 98.4788C274.259 97.3576 274.2 96.1774 274.141 94.8792C273.965 93.1089 273.788 91.2795 273.552 89.5682C273.139 86.3816 272.608 83.3131 272.078 80.5986C271.665 78.3562 271.252 76.4088 270.898 74.8155H251.736H251.618H237.762H225.321C224.437 77.7661 222.55 85.0834 221.783 94.6431L225.321 93.4039L221.629 101.381L222.312 101.783C222.313 101.783 222.313 101.784 222.314 101.784C222.322 101.789 222.332 101.795 222.34 101.801L223.275 102.352C225.758 103.747 232.076 106.86 238.646 106.86H255.568C256.125 106.772 256.667 106.678 257.201 106.58C258.158 106.376 269.782 103.841 274.259 100.431C274.259 99.8372 274.259 99.2371 274.259 98.5378Z" fill="#1E2E38"/>
<path d="M222.34 101.8C222.52 101.913 222.836 102.104 223.275 102.351L222.34 101.8Z" fill="#1E2E38"/>
<path d="M225.262 74.8746C224.378 77.8251 222.491 85.1424 221.724 94.7021L225.262 93.4629L221.604 101.366L222.216 101.727C223.212 101.323 228.592 99.21 229.92 98.6559C229.743 92.7548 230.333 85.6145 230.687 81.9558C230.745 80.8936 230.863 80.0085 230.981 79.4774L231.099 79.5364C231.099 79.4774 231.099 79.4774 231.099 79.4184C233.87 78.8873 236.052 77.117 237.703 74.8746H225.262Z" fill="#253E4F"/>
<path d="M248.139 105.206L248.257 105.088C248.021 105.147 247.844 105.147 247.609 105.206C244.484 104.616 241.771 103.613 239.531 102.61V102.669L239.413 102.61V102.551L239 102.374C239 102.433 239 102.551 239 102.728C238.941 103.377 238.882 104.793 238.764 106.268C238.764 106.327 238.764 106.327 238.764 106.386V106.504C238.764 106.681 238.705 106.917 238.705 107.094C238.587 108.865 238.411 110.517 238.411 110.989V111.048C238.646 111.284 242.007 114.648 248.021 116.477C248.021 116.477 249.318 115.946 251.381 114.825L250.972 104.552L248.139 105.206Z" fill="#D1ADA3"/>
<path d="M251.5 114.766L257.632 110.93L257.16 106.976L257.043 105.442V105.383V105.265L256.807 103.082V102.905V102.787C255.804 103.2 254.743 103.554 253.564 103.967L251.205 104.498L250.972 104.552L251.381 114.825C251.382 114.825 251.382 114.825 251.382 114.825L251.5 114.766Z" fill="#BC9B92"/>
<path d="M239.531 102.551C239.472 102.551 239.472 102.492 239.413 102.492V102.551C239.472 102.551 239.472 102.61 239.531 102.551Z" fill="#D1ADA3"/>
<path d="M264.413 87.4438C265.002 87.3848 265.474 87.2668 265.474 87.2668C266.476 86.5587 267.125 84.4933 267.538 82.9C267.774 81.7198 267.891 80.7756 267.891 80.7756C267.656 80.7166 267.42 80.5986 267.184 80.5396C264.118 79.4184 251.736 74.8746 251.736 74.8746H237.762C236.111 77.0579 233.929 78.8873 231.158 79.4184C231.158 79.4184 230.863 94.171 235.227 101.252C235.816 101.606 236.524 102.019 237.349 102.433C237.821 102.669 238.352 102.964 238.941 103.2C239.118 103.259 239.236 103.318 239.413 103.436C239.472 103.436 239.472 103.436 239.531 103.495C241.771 104.498 244.484 105.383 247.609 105.914C247.609 105.914 247.785 105.973 248.139 105.914L251.205 105.265L253.564 104.734C254.743 104.38 255.804 104.026 256.807 103.672C258.517 103.023 259.873 102.433 260.875 101.901C262.29 99.364 263.528 93.5809 264.413 87.4438Z" fill="#EDC1B2"/>
<path d="M264.354 87.4438C264.943 87.3848 265.415 87.2668 265.415 87.2668C266.417 86.5587 267.066 84.4933 267.479 82.9C267.715 81.7198 267.833 80.7756 267.833 80.7756C267.538 80.6576 267.243 80.5986 266.948 80.4806L266.771 80.7166C266.771 80.7166 262.644 80.2445 256.866 77.589L257.514 81.2477H250.262L251.5 89.9813L248.375 89.9223L249.967 96.5905L244.778 96.3544L251.323 99.0099L252.208 102.078L248.198 105.796L248.08 105.914L251.146 105.265L253.505 104.734C254.684 104.38 255.745 104.026 256.748 103.672C258.458 103.023 259.814 102.433 260.816 101.901C262.231 99.364 263.469 93.5809 264.354 87.4438Z" fill="#D5ADA0"/>
<path d="M245.427 81.1887L235.285 81.1297L233.399 82.841L239.531 85.2014L241.594 83.6671L245.545 85.6145L245.427 81.1887Z" fill="#D5ADA0"/>
<path d="M270.839 74.8746H251.618C253.623 76.2318 259.578 79.8905 267.773 81.1297C267.715 81.4837 267.597 82.1329 267.42 82.9L267.361 86.6767L266.953 103.889C269.836 102.898 272.668 101.686 274.377 100.341C274.37 97.9985 274.21 84.8297 270.839 74.8746Z" fill="#253E4F"/>
<path d="M274.377 100.662C274.377 100.724 274.439 100.662 274.377 100.662V100.662Z" fill="#253E4F"/>
<path d="M281.783 74.6634C281.901 74.4864 282.078 74.3094 282.255 74.0733C284.083 72.126 284.555 68.8804 284.555 68.8804L272.644 70.2376L271.17 70.4147L271.111 68.4083C270.345 57.7864 261.206 49.3478 249.826 48.5217C249.59 47.6365 248.824 46.9874 247.88 47.0464C246.937 47.0464 246.229 47.6955 245.994 48.5217C242.338 48.8167 239.036 49.9379 236.088 51.5902C234.142 52.7705 232.255 54.1867 230.781 55.78C228.836 57.9044 227.244 60.3828 226.3 63.0973C226.3 63.1563 226.3 63.1563 226.241 63.2154C225.593 65.1037 225.239 67.051 225.121 69.1164V70.2376L225.239 74.3684V74.4274L225.257 74.8753H281.263C281.318 74.8629 281.371 74.8505 281.43 74.8405C281.548 74.7809 281.724 74.7224 281.783 74.6634Z" fill="#35B6DF"/>
<path d="M247.88 48.462H247.762C247.173 48.462 246.583 48.521 245.994 48.521C242.338 48.816 239.036 49.9372 236.088 51.5895C234.142 52.7697 232.255 54.186 230.781 55.7793C228.836 57.9037 227.244 60.3821 226.3 63.0966C226.3 63.1556 226.3 63.1556 226.241 63.2146C225.593 65.103 225.239 67.0503 225.121 69.1157V70.2369L225.239 74.3677V74.4267L225.257 74.8746H233.544H247.91V73.1874V48.462H247.88Z" fill="#32A8CD"/>
<path d="M247.821 48.4619H247.939C248.588 48.4619 249.237 48.4619 249.826 48.521C249.59 47.6358 248.824 46.9867 247.88 47.0457C246.937 47.0457 246.229 47.6948 245.994 48.521C246.583 48.5215 247.173 48.4619 247.821 48.4619Z" fill="#2AA1BC"/>
<path d="M237.68 53.8909C237.621 53.8909 237.503 53.8909 237.444 53.9499C234.319 55.5432 232.314 57.9037 231.135 59.91C229.956 61.8574 229.543 63.4507 229.543 63.5097C229.484 63.7457 229.661 64.0408 229.897 64.0998C229.956 64.0998 229.956 64.0998 230.015 64.0998C230.251 64.0998 230.428 63.9228 230.487 63.7457C230.546 63.5687 230.958 62.0934 232.079 60.2641C233.199 58.4348 235.027 56.3104 237.857 54.8941C238.093 54.7761 238.211 54.481 238.093 54.245C238.034 53.9499 237.857 53.8909 237.68 53.8909Z" fill="#70C2DC"/>
<path d="M271.165 70.2334L247.91 72.5843L225.257 74.8746H247.91H281.263C281.318 74.8622 281.371 74.8498 281.43 74.8397C281.548 74.7807 281.724 74.7217 281.783 74.6627C281.901 74.4857 282.078 74.3086 282.255 74.0726C284.083 72.1252 284.555 68.8797 284.555 68.8797L271.165 70.2334Z" fill="#30A3C8"/>
<path d="M247.91 72.5843L225.257 74.8746H247.91V73.1874V72.5843Z" fill="#2D97B8"/>
<path d="M79.0373 131.408L78.9958 131.444C78.9958 131.444 79.0127 131.431 79.0367 131.413L79.0373 131.408Z" fill="#725744"/>
<path d="M73.1586 108.429C72.7524 108.603 72.3308 108.793 71.9033 108.991L71.911 109.016C72.3273 108.82 72.7429 108.625 73.1586 108.429Z" fill="#725744"/>
<path d="M88.1998 146.18C83.7777 134.731 70.924 129.125 59.4854 133.551C48.0468 138.036 42.3865 150.9 46.8676 162.289C51.2897 173.738 64.1434 179.344 75.582 174.918C86.9616 170.492 92.622 157.628 88.1998 146.18Z" fill="#EA913C"/>
<path d="M78.2353 160.814C76.0967 160.814 73.845 160.93 71.5914 161.269C71.0631 156.304 70.0567 151.557 68.9181 147.352C74.9717 145.576 80.2742 142.953 84.375 139.77C83.9652 139.291 83.5365 138.834 83.0914 138.396C79.2176 141.307 74.1551 143.804 68.3963 145.493C68.3544 145.349 68.3132 145.201 68.2713 145.058C66.4718 138.947 64.5237 134.355 63.6345 132.391C62.9665 132.51 62.299 132.658 61.6339 132.841C62.3633 134.485 64.4594 139.226 66.3845 145.648C66.4211 145.769 66.4564 145.895 66.4924 146.017C66.4364 146.031 66.3816 146.047 66.3255 146.062C62.0213 147.124 57.835 147.655 53.9435 147.655C51.3333 147.655 48.8339 147.396 46.5633 146.987C46.3504 147.6 46.1647 148.223 46.0061 148.854C48.476 149.331 51.0986 149.602 53.8846 149.602C57.953 149.602 62.2572 149.071 66.7383 147.95C66.8338 147.926 66.927 147.899 67.0225 147.875C68.161 152.021 69.1492 156.692 69.6628 161.562C62.2755 162.813 55.7796 165.513 50.9984 169.05C51.4259 169.528 51.8705 169.987 52.3345 170.423C56.7578 167.195 62.8892 164.644 69.8385 163.459C69.967 165.102 70.0407 166.761 70.0407 168.427C70.0407 171.082 69.8638 173.738 69.4511 176.334L69.4759 176.338C70.1209 176.281 70.766 176.198 71.411 176.083C71.7736 173.543 71.9859 170.956 71.9859 168.368C71.9859 166.621 71.9063 164.884 71.7689 163.166C73.9817 162.878 76.138 162.762 78.2358 162.762C81.5283 162.762 84.6639 163.123 87.5548 163.743C87.8372 163.146 88.0943 162.536 88.3225 161.916C85.2287 161.201 81.816 160.814 78.2353 160.814Z" fill="white"/>
<path opacity="0.15" d="M40.5303 136.864L40.5899 137.131L46.489 163.69L46.788 164.541L61.95 175.327L63.0673 172.854L63.1293 172.716L60.2024 169.246L58.9807 167.797L54.3292 162.281L54.3398 160.67L54.3893 160.671L61.3775 160.746L61.3946 160.679L61.8215 159.014L62.1069 157.901L62.085 157.898L55.5686 156.647L55.5674 156.571L55.4554 149.845L55.4542 149.787L55.4223 147.884L55.2915 140.034L55.2366 137.403L55.236 137.375L55.2354 137.337L55.1694 134.162C49.3994 134.825 43.7915 135.456 40.3033 135.845L40.5303 136.864Z" fill="black"/>
<path d="M64.1959 109.904C64.0579 109.973 63.9341 110.03 63.8108 110.088C63.9635 110.011 64.1163 109.928 64.2548 109.845C64.8415 109.569 65.4276 109.293 66.0142 109.016L66.0066 108.991C65.131 109.396 64.223 109.841 63.3114 110.317C63.4347 110.268 63.5703 110.204 63.7053 110.138C63.5496 110.213 63.4011 110.287 63.2525 110.376C63.0166 110.494 62.8397 110.612 62.6039 110.73L62.6475 110.738C58.9129 112.77 54.6853 115.491 50.3988 119.169C47.5686 121.411 44.0309 124.716 41.2597 128.433C41.1418 128.61 41.0238 128.787 40.9059 128.964H40.9018L39.9036 130.381L40.2951 135.381L40.3163 135.654L42.4389 162.777L42.6158 163.663L56.1181 176.468L57.5703 174.175L57.6511 174.048L55.239 170.202L54.2325 168.596L50.3988 162.482L50.6346 160.889L50.6836 160.896L57.5921 161.951L57.6187 161.887L58.2743 160.298L58.7124 159.236L58.6924 159.229L52.4153 157.078L52.4247 157.002L53.2555 150.327L53.2626 150.269L53.4972 148.381L54.4671 140.589L54.7814 137.977L54.785 137.948L54.7891 137.912L55.1983 134.511L55.2337 134.216L59.4199 131.325C63.4883 128.551 69.2666 124.657 70.5637 123.771L66.0225 109.044C65.414 109.33 64.8049 109.617 64.1959 109.904Z" fill="#725744"/>
<path d="M53.2555 150.327L53.2626 150.27L53.4972 148.381L54.4671 140.59L54.7814 137.978L54.785 137.949L54.7891 137.912L55.1983 134.512L55.2337 134.217L59.4199 131.325C63.4883 128.552 69.2666 124.657 70.5637 123.772L72.1327 128.52L73.0991 131.443L73.1398 131.408L73.1392 131.413C73.1156 131.431 73.0991 131.443 73.0991 131.443L73.0785 131.771L77.4493 127.963V113.152L61.0491 119.809L50.5538 129.428L50.2001 152.619L50.0822 156.986L51.5332 156.991L52.4194 157.041L52.4241 157.003L53.2555 150.327Z" fill="#644C3C"/>
<path d="M79.0444 131.341L79.0035 131.376L79.0444 131.346V131.341Z" fill="#725744"/>
<path d="M73.1657 108.361C72.7595 108.535 72.3379 108.726 71.9104 108.924L71.9181 108.949C72.3343 108.753 72.75 108.557 73.1657 108.361Z" fill="#725744"/>
<path d="M130.543 111.758H130.483C130.483 111.819 130.543 111.758 130.543 111.758Z" fill="#FFCB4D"/>
<path d="M73.1477 131.341L73.1068 131.376L73.1477 131.346V131.341Z" fill="#725744"/>
<path d="M50.4066 162.415L50.6424 160.822L50.6914 160.83L57.5999 161.884L57.6265 161.82L58.2821 160.231L58.7202 159.17L58.7002 159.162L52.4231 157.01L52.4325 156.934L53.2633 150.26L53.2704 150.202L53.5056 148.313L54.475 140.522L54.7892 137.91L54.7928 137.881L54.7975 137.844L55.2061 134.444L55.2415 134.149L59.4278 131.258C63.4961 128.484 69.2744 124.589 70.5715 123.704L72.1405 128.452L73.1069 131.376L73.1476 131.34L73.147 131.345L73.1069 131.376L72.9937 133.201L70.9188 166.637H126.907L124.699 129.959L125.334 129.717L130.182 145.892L140.795 142.942C141.09 134.208 137.906 124.766 137.081 122.406C135.665 117.331 133.189 112.02 132.305 110.191C132.232 110.026 132.112 109.87 131.982 109.729L131.977 109.72C131.65 109.25 130.064 108.42 130.064 108.42C129.474 108.066 128.826 107.712 128.177 107.417H128.154C128.084 107.38 128.013 107.34 127.943 107.302L127.942 107.299L127.874 107.265C127.768 107.209 127.66 107.158 127.552 107.103C127.334 106.991 127.114 106.883 126.894 106.773L126.753 106.704C126.442 106.549 126.131 106.393 125.819 106.237H125.793C124.834 105.771 123.872 105.321 122.911 104.902C122.371 104.651 121.839 104.44 121.338 104.231L121.335 104.254L121.279 104.232V104.231C121.213 104.205 121.148 104.179 121.082 104.153C120.457 103.899 119.831 103.642 119.215 103.405C118.72 103.219 118.236 103.044 117.758 102.875C116.44 102.384 115.186 101.979 114.085 101.615H114.085C114.052 101.603 113.947 101.573 113.789 101.529L113.785 101.557L113.778 101.555L113.782 101.527C112.653 101.206 108.856 100.162 108.823 100.162C108.793 100.162 108.541 97.4302 108.449 96.4135L89.9948 96.3131L89.97 96.502L89.5107 99.9222L89.4983 99.9246L89.4623 100.284L89.4393 100.456L84.8474 101.811L84.8403 101.813C82.8946 102.403 80.3592 103.229 77.588 104.232C77.4111 104.291 77.2932 104.35 77.1163 104.409L77.0037 104.465L76.9984 104.468C74.1682 105.472 71.1022 106.711 67.9772 108.068C67.8593 108.127 67.8003 108.127 67.6824 108.186C67.5055 108.245 67.3876 108.304 67.2107 108.422C66.2084 108.894 65.206 109.366 64.2037 109.838C64.0657 109.907 63.9419 109.965 63.8186 110.023C63.9714 109.945 64.1241 109.863 64.2626 109.779C65.265 109.307 66.2673 108.835 67.2697 108.363C66.0315 108.894 64.6754 109.543 63.3192 110.251C63.4425 110.202 63.5781 110.138 63.7131 110.073C63.5574 110.148 63.4089 110.222 63.2603 110.31C63.0244 110.428 62.8475 110.547 62.6117 110.665L62.6553 110.673C58.9207 112.705 54.6931 115.426 50.4066 119.103C47.5764 121.345 44.0387 124.65 41.2675 128.368C41.1496 128.545 41.0317 128.722 40.9137 128.899H40.9096L39.9114 130.315L40.3029 135.315L40.3241 135.589L42.4467 162.712L42.6236 163.597L45.8306 166.639H53.054L50.4066 162.415Z" fill="#725744"/>
<path d="M124.647 111.758H124.586C124.586 111.819 124.647 111.758 124.647 111.758Z" fill="#FFCB4D"/>
<path d="M126.573 130.207L125.617 126.752C121.75 117.914 122.204 107.42 122.404 104.68C122.404 104.68 116.464 102.076 114.616 101.789L114.453 103.077L112.819 115.947C112.819 115.947 112.405 117.309 110.845 118.812C109.094 120.529 105.854 122.452 100.021 122.745C99.899 122.745 99.8383 122.745 99.7174 122.745C99.596 122.745 99.5353 122.745 99.4144 122.745L99.4403 122.8C88.6698 122.221 86.7983 116.068 86.7983 116.068L86.7582 115.758L86.7564 115.747L85.9457 109.463L85.0766 102.728L84.9846 101.982L84.9593 101.776L84.8473 101.809L84.8402 101.811C82.8944 102.401 80.3591 103.227 77.5879 104.23L77.457 104.279V127.894L73.0861 131.703L72.9936 133.2L72.9541 133.838L70.9187 166.636H127.338L126.573 130.207Z" fill="#FFCB4D"/>
<path d="M88.2069 146.112C83.7848 134.664 70.9311 129.058 59.4925 133.484C48.0539 137.969 42.3935 150.833 46.8746 162.222C47.4884 163.812 48.2703 165.284 49.183 166.637H85.8756C89.8178 160.805 90.941 153.189 88.2069 146.112Z" fill="#EA913C"/>
<path d="M69.845 163.392C69.9293 164.467 69.9789 165.55 70.0107 166.637H71.957C71.924 165.451 71.8704 164.269 71.7766 163.098C73.9895 162.811 76.1457 162.694 78.2435 162.694C81.536 162.694 84.6716 163.055 87.5625 163.676C87.8449 163.078 88.1014 162.469 88.3302 161.849C85.237 161.134 81.8237 160.747 78.2435 160.747C76.105 160.747 73.8532 160.863 71.5997 161.201C71.0714 156.237 70.065 151.49 68.9264 147.285C74.98 145.509 80.2825 142.886 84.3838 139.703C83.9741 139.224 83.5454 138.767 83.1002 138.329C79.2264 141.24 74.164 143.736 68.4052 145.426C68.3633 145.281 68.322 145.134 68.2796 144.991C66.4801 138.879 64.532 134.288 63.6422 132.323C62.9742 132.443 62.3067 132.591 61.6422 132.774C62.3716 134.418 64.4677 139.159 66.3928 145.581C66.4294 145.702 66.4647 145.828 66.5007 145.95C66.4447 145.964 66.3899 145.98 66.3338 145.994C62.0296 147.056 57.8433 147.588 53.9518 147.588C51.3416 147.588 48.8428 147.329 46.5716 146.92C46.3587 147.533 46.173 148.156 46.0144 148.787C48.4843 149.264 51.1069 149.535 53.8929 149.535C57.9613 149.535 62.2655 149.004 66.7466 147.883C66.8421 147.858 66.9353 147.832 67.0308 147.808C68.1693 151.954 69.1575 156.625 69.6711 161.495C64.0208 162.452 58.8952 164.259 54.6559 166.637H58.897C62.1676 165.195 65.8716 164.069 69.845 163.392Z" fill="white"/>
<path d="M55.1876 134.592L55.0378 135.834C55.0956 135.795 55.1528 135.756 55.2106 135.718L55.1876 134.592Z" fill="#D9D9D9"/>
<path d="M55.4583 149.509C54.9324 149.526 54.4099 149.535 53.8911 149.535C53.7113 149.535 53.532 149.534 53.3528 149.531L53.269 150.202L53.262 150.26L52.4312 156.934L52.4218 157.01L58.6988 159.162L58.7195 159.17L58.2814 160.231L58.111 160.644L61.384 160.68L61.4011 160.613L61.8279 158.948L62.1133 157.835L62.0921 157.831L55.5762 156.581L55.575 156.504L55.463 149.779L55.4618 149.72L55.4583 149.509ZM55.2112 135.718C55.1535 135.756 55.0963 135.795 55.0385 135.834L54.7967 137.844L54.792 137.881L54.7885 137.91L54.4742 140.522L53.5951 147.586C53.713 147.587 53.8315 147.588 53.95 147.588C54.4377 147.588 54.9294 147.579 55.4259 147.563L55.2991 139.967L55.2443 137.336L55.2437 137.307L55.2431 137.27L55.2112 135.718Z" fill="#C77B33"/>
<path d="M55.4259 147.562C54.9294 147.579 54.4377 147.587 53.9501 147.587C53.8316 147.587 53.713 147.586 53.5951 147.585L53.5043 148.313L53.3528 149.531C53.5314 149.533 53.7107 149.534 53.8911 149.534C54.4094 149.534 54.9318 149.525 55.4583 149.508L55.43 147.816L55.4259 147.562Z" fill="#D9D9D9"/>
<path d="M40.3382 135.775C40.3294 135.776 40.3205 135.777 40.3116 135.778L40.3536 135.966L40.3382 135.775Z" fill="#D9D9D9"/>
<path d="M57.0279 165.406L54.3363 162.214L54.3416 161.387L50.6907 160.829L50.6417 160.821L50.4059 162.415L53.0527 166.636H54.67C55.4318 166.21 56.2113 165.794 57.0279 165.406Z" fill="#C77B33"/>
<path d="M57.0278 165.406C56.2112 165.794 55.4317 166.21 54.6699 166.637H58.0655L57.0278 165.406Z" fill="#D9D9D9"/>
<path d="M127.942 107.303L127.941 107.299L127.873 107.266L127.941 107.299L127.942 107.303Z" fill="#D9D9D9"/>
<path d="M122.911 104.902C123.872 105.321 124.833 105.771 125.793 106.237C124.833 105.771 123.872 105.321 122.911 104.902Z" fill="#D9D9D9"/>
<path d="M128.177 107.417C128.826 107.712 129.474 108.066 130.064 108.42C129.474 108.066 128.825 107.712 128.177 107.417H128.154C128.083 107.38 128.013 107.34 127.943 107.303C128.014 107.34 128.083 107.38 128.154 107.418H128.177V107.417Z" fill="#D9D9D9"/>
<path d="M126.893 106.773L126.753 106.704C126.441 106.549 126.13 106.393 125.819 106.237C126.13 106.393 126.441 106.549 126.753 106.704L126.893 106.773Z" fill="#D9D9D9"/>
<path d="M127.873 107.266C127.766 107.21 127.658 107.159 127.551 107.103C127.332 106.991 127.112 106.883 126.892 106.773C127.112 106.884 127.332 106.991 127.551 107.103C127.658 107.159 127.766 107.209 127.873 107.266Z" fill="#D9D9D9"/>
<path d="M131.977 109.72C131.711 109.338 130.614 108.719 130.212 108.5C130.614 108.719 131.711 109.339 131.977 109.72Z" fill="#D9D9D9"/>
<path d="M120.319 103.796C120.471 103.859 120.619 103.921 120.76 103.979C120.619 103.921 120.471 103.859 120.319 103.796Z" fill="#D9D9D9"/>
<path d="M137.854 124.745C138.97 128.317 140.671 134.693 140.805 141C140.671 134.693 138.97 128.317 137.854 124.745Z" fill="#D9D9D9"/>
<path d="M137.08 122.406C135.665 117.331 133.189 112.02 132.304 110.191C132.231 110.026 132.112 109.87 131.981 109.729C132.112 109.87 132.231 110.026 132.304 110.191C133.189 112.02 135.665 117.331 137.08 122.406Z" fill="#D9D9D9"/>
<path d="M137.467 123.542C137.545 123.778 137.629 124.035 137.718 124.313C137.629 124.035 137.545 123.778 137.467 123.542Z" fill="#D9D9D9"/>
<path d="M113.778 101.554L113.786 101.556L113.778 101.554Z" fill="#D9D9D9"/>
<path d="M113.782 101.526C112.652 101.206 108.856 100.161 108.823 100.161C108.802 100.161 108.677 98.8701 108.57 97.7323C108.677 98.8701 108.802 100.161 108.823 100.161C108.855 100.161 112.652 101.206 113.782 101.526Z" fill="#D9D9D9"/>
<path d="M126.656 134.13V134.13L127.337 166.637H127.338L126.656 134.13Z" fill="#D9D9D9"/>
<path d="M114.085 101.614C114.259 101.671 114.436 101.73 114.616 101.789C114.438 101.73 114.256 101.671 114.085 101.614C114.052 101.603 113.947 101.573 113.789 101.528C113.947 101.573 114.052 101.603 114.085 101.614Z" fill="#D9D9D9"/>
<path d="M115.365 101.964C115.26 101.934 115.159 101.907 115.063 101.884C115.159 101.907 115.259 101.934 115.365 101.964Z" fill="#D9D9D9"/>
<path d="M115.063 101.884C114.934 101.852 114.812 101.824 114.706 101.805C114.813 101.824 114.935 101.852 115.063 101.884Z" fill="#D9D9D9"/>
<path d="M120.319 103.796C118.762 103.153 116.687 102.335 115.365 101.963C116.687 102.335 118.762 103.153 120.319 103.796Z" fill="#D9D9D9"/>
<path d="M124.646 111.758C124.646 111.758 124.619 111.785 124.602 111.785C124.593 111.785 124.586 111.779 124.586 111.758H124.646ZM122.371 104.666C122.393 104.675 122.404 104.68 122.404 104.68C122.204 107.42 121.75 117.915 125.617 126.753L126.573 130.207L126.656 134.131V134.131L130.182 145.893L140.795 142.943C140.808 142.559 140.814 142.174 140.814 141.788C140.815 133.393 137.87 124.664 137.081 122.407C135.666 117.332 133.189 112.021 132.305 110.192C132.232 110.027 132.112 109.871 131.982 109.73L131.977 109.722C131.65 109.251 130.064 108.422 130.064 108.422C129.475 108.067 128.826 107.713 128.178 107.418H128.155C128.084 107.381 128.014 107.341 127.943 107.303L127.942 107.3L127.875 107.266C127.768 107.211 127.66 107.159 127.553 107.104C127.334 106.992 127.114 106.884 126.894 106.774L126.754 106.706C126.442 106.55 126.131 106.394 125.82 106.238H125.794C124.834 105.773 123.873 105.322 122.912 104.903C122.741 104.824 122.573 104.753 122.405 104.681L122.379 104.67C122.376 104.668 122.373 104.667 122.371 104.666ZM122.029 104.517C122.12 104.556 122.195 104.589 122.255 104.615C122.179 104.582 122.104 104.549 122.029 104.517ZM101.656 96.3751L101.994 100.792L99.4462 122.746C99.547 122.746 99.6071 122.746 99.7174 122.746C99.8388 122.746 99.8996 122.746 100.02 122.746C105.854 122.453 109.094 120.529 110.845 118.813C112.405 117.31 112.819 115.947 112.819 115.947L114.453 103.078L114.616 101.79C114.435 101.73 114.259 101.672 114.085 101.615H114.085C114.052 101.603 113.947 101.573 113.789 101.528L113.785 101.557L113.778 101.555L113.782 101.527C112.652 101.206 108.856 100.162 108.823 100.162C108.793 100.162 108.541 97.4302 108.448 96.4135L101.656 96.3751Z" fill="#614A3A"/>
<path d="M124.647 111.758H124.586C124.586 111.778 124.592 111.785 124.602 111.785C124.62 111.785 124.647 111.758 124.647 111.758Z" fill="#D9AD42"/>
<path d="M126.656 134.13L126.573 130.206L125.617 126.751C121.75 117.913 122.204 107.419 122.404 104.679C122.404 104.679 122.393 104.674 122.371 104.664C122.332 104.648 122.294 104.631 122.256 104.614C122.196 104.588 122.121 104.556 122.03 104.517C122.029 104.516 122.027 104.516 122.026 104.515C121.734 104.389 121.291 104.201 120.761 103.979C118.907 103.204 115.983 102.035 114.707 101.803C114.697 101.802 114.688 101.8 114.678 101.799C114.678 101.799 114.678 101.799 114.678 101.799C114.674 101.798 114.671 101.798 114.668 101.797C114.667 101.797 114.667 101.797 114.666 101.797C114.664 101.797 114.663 101.796 114.662 101.796C114.66 101.796 114.658 101.796 114.657 101.795C114.655 101.795 114.654 101.795 114.652 101.795C114.65 101.795 114.649 101.794 114.647 101.794C114.646 101.794 114.645 101.793 114.644 101.793C114.641 101.793 114.64 101.793 114.637 101.792C114.636 101.792 114.635 101.792 114.634 101.792C114.632 101.791 114.629 101.791 114.627 101.791C114.627 101.791 114.625 101.791 114.625 101.79C114.622 101.789 114.619 101.789 114.617 101.789L114.454 103.076L112.82 115.946C112.82 115.946 112.406 117.309 110.846 118.812C109.095 120.529 105.855 122.451 100.022 122.745C99.9002 122.745 99.8395 122.745 99.7186 122.745C99.6084 122.745 99.5482 122.745 99.4474 122.745L99.4409 122.799L106.382 166.636H127.339L126.656 134.13Z" fill="#D9AD42"/>
<path d="M50.4064 162.415L50.6423 160.822L50.6912 160.83L57.5998 161.884L57.6263 161.82L58.282 160.231L58.7201 159.17L58.7 159.162L52.4229 157.01L52.4324 156.934L53.2631 150.26L53.2702 150.202L53.5055 148.313L54.4748 140.522L54.7891 137.91L54.7926 137.881L54.7973 137.844L55.2059 134.444L55.2413 134.149L59.4276 131.257C63.496 128.484 69.2742 124.589 70.5714 123.704L66.0302 108.976C65.4211 109.263 64.812 109.55 64.2029 109.837C64.065 109.906 63.9411 109.963 63.8179 110.021C63.9706 109.943 64.1233 109.861 64.2619 109.778C64.8486 109.501 65.4346 109.225 66.0213 108.949L66.0137 108.924C65.1381 109.329 64.2301 109.774 63.3185 110.25C63.4417 110.201 63.5773 110.136 63.7124 110.071C63.5567 110.146 63.4081 110.22 63.2595 110.309C63.0237 110.427 62.8468 110.545 62.611 110.663L62.6546 110.671C58.92 112.703 54.6924 115.424 50.4059 119.101C47.5757 121.344 44.038 124.648 41.2668 128.366C41.1488 128.543 41.0309 128.72 40.913 128.897H40.9089L39.9106 130.313L40.3021 135.313L40.3234 135.587L42.446 162.71L42.6229 163.595L45.8298 166.637H53.0532L50.4064 162.415Z" fill="#725744"/>
<path d="M53.2626 150.26L53.2696 150.202L53.5043 148.314L54.4742 140.523L54.7885 137.91L54.792 137.881L54.7962 137.845L55.2054 134.445L55.2407 134.15L59.427 131.258C63.4954 128.485 69.2737 124.59 70.5708 123.705L72.1398 128.453L73.1062 131.376L73.1469 131.341L73.1463 131.345L73.1062 131.376L73.0855 131.704L77.4564 127.896V113.085L61.0561 119.742L50.5609 129.361L50.2072 152.552L50.0892 156.919L51.5403 156.924L52.4265 156.974L52.4312 156.935L53.2626 150.26Z" fill="#644C3C"/>
<path d="M77.1161 104.408L77.0035 104.464L76.9982 104.467C74.168 105.47 71.102 106.709 67.977 108.066C67.8591 108.125 67.8002 108.125 67.6822 108.184C67.5053 108.243 67.3874 108.302 67.2105 108.42C66.6339 108.692 66.0572 108.964 65.4806 109.235C66.0572 108.964 66.6339 108.692 67.2105 108.42C67.3874 108.302 67.5053 108.243 67.6822 108.184C67.8002 108.125 67.8591 108.125 67.977 108.066C71.102 106.709 74.168 105.47 76.9982 104.467L77.0035 104.464L77.1161 104.408ZM77.125 104.405C77.1244 104.405 77.1244 104.405 77.1238 104.405C77.1238 104.405 77.1244 104.405 77.125 104.405ZM89.3513 100.48L84.9592 101.776L84.8472 101.809L84.8401 101.812C82.8944 102.402 80.359 103.228 77.5878 104.231C80.359 103.228 82.8944 102.402 84.8401 101.812L84.8472 101.81L84.9592 101.777L89.3513 100.48Z" fill="#E5E5E5"/>
<path d="M77.5873 104.231L77.4564 104.28C77.348 104.321 77.2483 104.363 77.1245 104.405C77.1239 104.405 77.1239 104.405 77.1233 104.405C77.1209 104.406 77.118 104.407 77.1156 104.408L77.003 104.464L76.9977 104.467C74.1675 105.47 71.1015 106.709 67.9765 108.066C67.8586 108.125 67.7997 108.125 67.6817 108.184C67.5049 108.243 67.3869 108.302 67.21 108.42C66.6334 108.692 66.0567 108.964 65.4801 109.235C65.6635 109.149 65.8468 109.063 66.0296 108.976L66.1994 109.527L77.4564 107.78V104.28L77.5873 104.231ZM89.3514 100.48L84.9593 101.776L84.9847 101.983L85.0767 102.728L85.8007 108.338L88.1073 108.493L89.3514 100.48Z" fill="#664E3D"/>
<path d="M84.9593 101.776L84.8473 101.809L84.8402 101.811C82.8945 102.401 80.3591 103.227 77.5879 104.231L77.457 104.28V107.78L85.8001 108.338L85.0761 102.728L84.9841 101.982L84.9593 101.776Z" fill="#E5B645"/>
<path d="M66.0301 108.976C65.8468 109.062 65.6634 109.149 65.4806 109.235C65.0549 109.436 64.6292 109.637 64.2035 109.837L66.1999 109.527L66.0301 108.976Z" fill="#664E3D"/>
<path d="M113.411 61.9878C113.411 62.2238 113.47 62.4599 113.47 62.6959L113.411 61.9878Z" fill="#755C4B"/>
<path d="M118.305 77.9207V77.4486C118.246 77.9207 118.246 78.3337 118.246 78.6288C118.246 78.3928 118.305 78.1567 118.305 77.9207Z" fill="#755C4B"/>
<path d="M118.305 60.0404V59.7454L117.892 58.2701V58.1521C117.892 58.1521 115.475 54.5524 105.982 52.9001C104.862 52.7231 103.565 52.6051 102.091 52.4871V52.5461C101.855 52.5461 101.678 52.4871 101.442 52.4871C100.735 52.4281 99.968 52.4281 99.3194 52.4281C99.2015 52.4281 99.1426 52.4281 99.0246 52.4281H98.9067C98.2581 52.4281 97.6685 52.4281 97.0789 52.4871C95.6638 52.5461 94.3077 52.7231 93.1874 52.9001C83.6945 54.5524 81.2771 58.1521 81.2771 58.1521L80.8644 59.6274V60.0994V60.8076V61.4567V65.7055V67.0627V79.1009C81.2771 84.7069 81.9847 90.1949 83.046 93.6175C83.046 93.6175 89.5318 98.1023 99.1426 99.6366C99.6143 99.5776 100.086 99.5186 100.558 99.4006L100.44 99.5186L102.621 98.9875C103.152 98.8695 103.683 98.7515 104.213 98.6334L106.041 98.2204C111.878 96.45 115.475 94.0896 115.475 94.0896C116.831 90.667 117.716 84.7659 118.305 78.8649C118.305 78.5108 118.305 78.0977 118.364 77.6256V76.0914V65.4104V63.6401H118.423L118.305 60.0404Z" fill="#896C58"/>
<path d="M103.329 82.5825L103.977 82.6415V82.4645L103.329 82.5825Z" fill="#896C58"/>
<path d="M96.0176 73.0818L85.8762 73.0228L83.9304 74.7341L90.1214 77.1535L92.1851 75.6193L96.1355 77.5076L96.0176 73.0818Z" fill="#755C4B"/>
<path d="M118.305 60.0404V59.7454L117.892 58.2701C117.716 58.0341 115.18 54.6705 106.1 53.0182L109.284 73.2588H102.798L104.036 82.2875H100.617L101.088 88.6016L95.7817 88.3656L103.506 91.5521L104.685 95.4468L100.617 99.3416L100.499 99.4596L102.68 98.9285L104.272 98.5744L106.1 98.1613C111.937 96.391 115.534 94.0306 115.534 94.0306C116.89 90.608 117.775 84.7069 118.364 78.8058C118.364 78.4518 118.364 78.0387 118.423 77.5666V76.0323V65.3514V64.7613V63.5811H118.482L118.305 60.0404Z" fill="#755C4B"/>
<path d="M88.1167 59.4503C87.8809 59.4503 87.704 59.5684 87.645 59.8044L86.5247 63.4631C86.4658 63.6991 86.5837 63.9942 86.8785 64.0532C86.9375 64.0532 86.9964 64.0532 86.9964 64.0532C87.2323 64.0532 87.4092 63.9351 87.4681 63.6991L88.5884 60.0404C88.6474 59.8044 88.5295 59.5093 88.2346 59.4503C88.2346 59.4503 88.1757 59.4503 88.1167 59.4503Z" fill="#745B4B"/>
<path d="M86.4067 64.8793C86.1709 64.8793 85.994 64.9973 85.935 65.2334L85.2865 67.4168C85.2275 67.6528 85.3454 67.9479 85.6402 68.0069C85.6992 68.0069 85.7582 68.0069 85.7582 68.0069C85.994 68.0069 86.1709 67.8889 86.2299 67.6528L86.8784 65.4694C86.9374 65.2334 86.8195 64.9383 86.5247 64.8793C86.5247 64.8793 86.4657 64.8793 86.4067 64.8793Z" fill="#745B4B"/>
<path d="M122.55 53.7263C109.815 48.5333 95.6048 47.5892 95.6048 47.5892C83.2818 48.8874 78.5648 52.074 78.5648 52.074C76.9729 59.2143 78.5648 72.1376 78.5648 72.1376L80.2747 73.7309L80.3679 73.8011L80.8644 74.2591L84.8413 56.1504L117.723 58.0624L118.305 75.0888L121.725 72.4923L121.784 71.7842C121.961 69.7772 123.022 60.6896 122.55 53.7263Z" fill="#3D3935"/>
<path d="M116.697 85.7579L114.079 92.0101L103.906 95.8806L100.454 97.1906H98.7292L85.1043 92.0101L82.6651 85.7579L81.4098 84.8444C81.8172 88.2818 82.3573 91.3834 83.0478 93.6099C83.0478 93.6099 89.5424 98.1006 99.1656 99.6372C99.6432 99.7175 100.39 99.5446 100.722 99.4566L102.649 98.9875C103.18 98.8695 103.712 98.7509 104.243 98.6328L106.074 98.2192C111.918 96.4465 115.52 94.0831 115.52 94.0831C116.39 91.8862 117.066 88.6677 117.595 85.0846L116.697 85.7579Z" fill="#3D3935"/>
<path d="M228.91 151.973C229.028 141.174 225.078 126.598 223.662 121.7C223.662 121.641 222.955 119.635 222.483 118.278C222.424 118.159 222.365 118.041 222.306 117.982C222.247 117.805 222.188 117.628 222.188 117.51C222.188 117.51 222.129 117.392 222.011 117.215C220.891 116.625 219.771 116.094 218.71 115.563V115.504L218.651 115.563H218.592C218.12 115.327 217.648 115.15 217.177 114.914C216.705 114.678 216.233 114.501 215.82 114.324C215.703 114.265 215.585 114.206 215.408 114.147C215.349 114.088 215.231 114.088 215.172 114.029C214.936 113.911 214.7 113.852 214.523 113.734H214.464C213.639 113.38 212.754 113.026 211.929 112.671C211.87 112.671 211.811 112.612 211.752 112.612C211.634 112.553 211.575 112.553 211.457 112.494L211.339 112.435C201.729 108.541 193.592 106.593 188.757 105.649C185.455 105.118 183.215 104.882 182.389 104.823L183.391 114.324L175.314 117.215L170.715 118.868L158.097 114.324L159.335 104.882C159.099 104.882 158.804 104.882 158.569 104.882L158.863 104.941C158.863 104.941 157.33 105.059 154.854 105.354C149.842 106.298 138.934 108.659 126.198 114.324H126.139H126.022C124.017 115.209 122.012 116.212 119.948 117.274C119.89 117.392 119.89 117.451 119.89 117.451C119.654 118.278 119.241 119.635 118.828 121.051L118.71 121.228V121.287L118.651 121.346C118.651 121.464 118.592 121.582 118.592 121.7C117.708 124.533 113.109 140.289 112.932 152.091L108.392 155.513L115.055 156.575C114.996 155.631 115.055 154.746 115.173 154.038L124.783 152.917L135.868 151.678V166.548H204.146V151.501L226.375 154.038C226.493 154.746 226.493 155.572 226.493 156.457L232.507 155.572L228.91 151.973Z" fill="#31A0FD"/>
<path d="M228.91 151.973C229.028 141.174 225.078 126.598 223.663 121.7C223.663 121.641 222.955 119.635 222.483 118.278L222.457 118.227L222.188 117.51C222.188 117.51 222.13 117.392 222.012 117.215C220.891 116.625 219.771 116.094 218.71 115.563C218.71 115.563 218.71 115.563 218.651 115.563H218.592C216.174 114.324 212.696 112.671 208.745 111.314C200.314 108.128 193.179 106.416 188.757 105.531C185.455 105 183.215 104.764 182.389 104.705L159.335 104.823C159.099 104.823 158.804 104.823 158.569 104.823L158.863 104.882C158.863 104.882 157.33 105 154.854 105.295C150.373 106.121 141.234 108.069 130.267 112.553C130.267 112.553 123.015 115.445 120.243 117.156C120.125 117.215 120.067 117.274 119.949 117.274C119.949 117.274 119.949 117.333 119.89 117.392C119.241 118.573 114.76 127.129 113.286 146.839C113.109 148.609 112.991 150.379 112.991 152.091L108.451 155.513L115.114 156.575C115.055 155.631 115.114 154.746 115.232 154.038L124.842 152.917L119.064 146.072L123.781 121.818L139.701 113.852L139.583 113.793L151.375 114.973L155.031 115.681L170.892 127.837L191.234 113.144L201.611 119.104L204.213 124.878L200.031 139.615L198.906 149.042L198.88 150.907L201.521 151.213L201.552 151.264L226.207 154.065L226.349 156.575L232.507 155.572L228.91 151.973Z" fill="#2494E0"/>
<path d="M132.663 118.85L132.665 118.849L132.582 118.689C132.414 118.348 132.245 118.008 132.067 117.671L132.056 117.676L132.067 117.671C131.992 117.527 131.909 117.386 131.832 117.244L131.659 116.912L131.65 116.915C131.506 116.653 131.368 116.388 131.217 116.13H131.156V116.069H131.217C130.606 115.033 129.921 113.997 129.192 112.99C128.849 113.131 128.438 113.301 127.981 113.493C127.394 113.74 126.731 114.022 126.039 114.324C125.744 114.452 125.445 114.584 125.144 114.718C125.142 114.719 125.141 114.719 125.14 114.72C123.575 115.417 121.97 116.174 120.819 116.82L120.822 116.817L120.02 117.237L120.034 117.253C120.036 117.255 120.039 117.258 120.042 117.26C120.902 118.05 122.224 119.385 123.833 121.379L124.5 122.219C128.478 127.359 133.958 136.337 138.796 150.996C138.796 150.996 138.796 150.935 138.796 150.812C138.855 149.095 139.281 132.416 132.663 118.85Z" fill="#6FBDFE"/>
<path d="M132.068 117.671C131.795 117.152 131.514 116.637 131.218 116.13H131.157V116.069H131.218C130.607 115.033 129.922 113.997 129.193 112.99C128.85 113.131 128.439 113.301 127.983 113.493C127.395 113.74 126.732 114.022 126.04 114.324C125.744 114.452 125.444 114.585 125.141 114.72C123.576 115.417 121.971 116.174 120.821 116.82L120.823 116.817L120.022 117.237L120.035 117.253L120.045 117.259C120.045 117.259 120.043 117.26 120.043 117.26C120.947 118.089 122.354 119.51 124.073 121.672L132.068 117.671Z" fill="#66B4E9"/>
<path d="M217.942 115.235C215.569 114.042 212.359 112.556 208.745 111.314C208.664 111.284 208.585 111.255 208.505 111.225C207.778 112.231 207.094 113.265 206.484 114.298H206.545V114.36H206.484C205.123 116.695 204.015 119.17 203.095 121.68H203.088L202.977 121.988C202.968 122.015 202.956 122.042 202.947 122.069L202.948 122.071L202.947 122.069C202.929 122.12 202.912 122.172 202.894 122.222L202.793 122.503L202.795 122.507C198.53 134.742 198.855 147.548 198.906 149.042C198.906 149.164 198.906 149.226 198.906 149.226C201.418 141.613 204.103 135.541 206.663 130.733L206.838 130.405C211.751 121.265 216.167 116.809 217.942 115.235Z" fill="#6FBDFE"/>
<path d="M208.504 111.225C207.777 112.231 207.094 113.265 206.483 114.298H206.545V114.36H206.483C205.052 116.816 203.893 119.426 202.946 122.069L206.763 130.541C211.706 121.307 216.158 116.818 217.941 115.236C215.568 114.042 212.359 112.557 208.744 111.315C208.664 111.284 208.585 111.256 208.504 111.225Z" fill="#66B4E9"/>
<path d="M202.436 141.705C202.436 141.646 202.436 141.646 202.436 141.587C202.495 141.646 202.436 141.705 202.436 141.705Z" fill="#50A9E6"/>
<path d="M157.801 165.722H157.684L157.212 165.132L151.375 166.371L151.964 166.961L154.382 169.322L159.629 168.201L157.801 165.722Z" fill="#E5B645"/>
<path d="M150.49 143.062L144.653 143.298C144.948 148.55 146.304 158.759 152.141 166.312L157.801 165.132C154.323 160.175 151.375 153.035 150.49 143.062Z" fill="#E5B645"/>
<path d="M150.549 139.875H144.594V143.298H150.726C150.726 143.239 150.726 143.121 150.726 143.062C150.608 142 150.549 140.938 150.549 139.875Z" fill="#E5B645"/>
<path d="M150.254 143.062L144.653 143.298C144.653 143.298 144.653 143.239 144.653 143.18L140.113 150.556L124.783 152.268L115.172 153.389C115.054 154.097 115.054 154.982 115.054 155.926C115.231 161.06 117.295 168.732 118.297 172.213L118.238 172.272L118.592 173.63L118.769 173.571L118.828 173.689L136.516 169.676L141.469 168.555V168.614L151.787 166.312L157.212 165.132C153.91 160.116 151.08 153.035 150.254 143.062Z" fill="#EDC1B2"/>
<path d="M120.066 152.858L137.401 156.221L140.113 150.556H140.054L120.066 152.858Z" fill="#D5ADA0"/>
<path d="M183.627 165.722H183.745L184.216 165.132L190.054 166.371L189.464 166.961L187.047 169.322L181.799 168.201L183.627 165.722Z" fill="#E5B645"/>
<path d="M191.233 143.062L196.834 143.298C196.834 143.298 196.834 143.239 196.834 143.18L201.374 150.556L216.704 152.268L226.315 153.389C226.433 154.097 226.433 154.982 226.433 155.926C226.256 161.06 224.192 168.732 223.19 172.213L223.249 172.272L222.895 173.63L222.718 173.571L222.659 173.689L204.971 169.676L200.018 168.555V168.614L189.7 166.312L184.275 165.132C187.577 160.116 190.407 153.035 191.233 143.062Z" fill="#EDC1B2"/>
<path d="M221.421 152.858L204.087 156.221L201.374 150.556H201.433L221.421 152.858Z" fill="#D5ADA0"/>
<path d="M191.469 133.915H185.631H176.61H170.95H170.773H170.596H164.936H155.856H150.077C150.018 135.922 150.018 137.81 150.077 139.639C150.136 140.82 150.195 141.941 150.254 143.062C151.08 153.035 153.91 160.116 157.212 165.132C157.801 166.017 158.391 166.784 158.981 167.551C161.398 170.62 163.933 172.685 166.056 174.043L165.584 173.748C167.648 175.164 169.299 175.872 170.242 176.226C170.478 176.344 170.655 176.403 170.773 176.403C170.891 176.344 171.068 176.285 171.304 176.226C172.247 175.872 173.898 175.164 175.962 173.748L175.49 174.043C177.613 172.685 180.148 170.62 182.565 167.551C183.155 166.784 183.745 166.017 184.334 165.132C187.636 160.116 190.466 153.035 191.292 143.062C191.41 141.941 191.469 140.82 191.469 139.639C191.528 137.81 191.528 135.922 191.469 133.915Z" fill="#FFCB4D"/>
<path d="M191.469 133.915H185.631H176.61H176.139L170.832 176.344C170.832 176.344 170.773 176.344 170.655 176.344C170.714 176.344 170.773 176.403 170.832 176.403C170.95 176.344 171.127 176.285 171.363 176.226C172.306 175.872 173.957 175.164 176.021 173.748L175.549 174.043C177.672 172.685 180.207 170.62 182.624 167.551C183.214 166.784 183.804 166.017 184.393 165.132C187.695 160.116 190.525 153.035 191.351 143.062C191.469 141.941 191.528 140.82 191.528 139.639C191.528 137.81 191.528 135.922 191.469 133.915Z" fill="#E5B645"/>
<path d="M183.096 193.811L182.507 192.277L181.74 190.094L181.681 189.976C181.681 189.976 181.622 189.917 181.504 189.857H177.907H173.721H171.716H163.934H163.816H163.757H163.462H160.278C160.16 189.917 160.101 189.976 160.101 189.976L158.686 193.752H158.863L158.804 193.811H171.658H180.384H183.096Z" fill="#FFCB4D"/>
<path d="M181.681 190.094C181.622 190.094 181.563 190.035 181.386 189.857H178.143H177.848H177.79H173.662H171.716L171.657 193.811H180.384H183.096L182.506 192.277L181.681 190.094C181.74 190.094 181.681 190.094 181.681 190.094Z" fill="#E5B645"/>
<path d="M177.318 183.956L176.846 180.003L176.139 173.689C173.544 175.459 171.481 176.167 170.95 176.344H170.773C170.655 176.285 170.478 176.226 170.242 176.167C169.299 175.813 167.648 175.105 165.584 173.689L163.816 189.857H163.933H171.716H173.721H177.907L177.318 183.956Z" fill="#F2C149"/>
<path d="M177.318 183.956L176.846 180.003L176.139 173.689C173.544 175.459 171.481 176.167 170.95 176.344H170.832V176.521L171.716 189.857H173.721H177.907L177.318 183.956Z" fill="#D9AD42"/>
<path d="M191.41 139.875H196.893V143.298H191.233C191.233 143.239 191.233 143.121 191.233 143.062C191.292 142 191.351 140.938 191.41 139.875Z" fill="#E5B645"/>
<path d="M181.681 103.407L181.622 102.817V102.64C181.563 102.64 181.504 102.699 181.445 102.699C181.209 102.817 180.915 102.935 180.561 103.053C175.372 105.059 171.127 105.649 171.127 105.649L171.186 105.59C170.714 105.649 170.242 105.767 169.771 105.826C165.467 105.118 161.752 103.879 158.745 102.581L158.627 103.525L157.389 112.967L170.007 117.51L174.606 115.858L182.683 112.967L181.681 103.407Z" fill="#D1ADA3"/>
<path d="M181.622 102.699C181.563 102.699 181.504 102.758 181.445 102.758C181.209 102.876 180.915 102.994 180.561 103.112C178.851 103.82 175.785 105.059 174.429 105.059L174.606 115.858L182.683 112.967L181.681 103.466L181.622 102.876V102.699Z" fill="#BC9B92"/>
<path d="M192.059 55.4904L191.823 55.4311C191.882 55.4904 191.941 55.5496 192.059 55.6089V55.4904Z" fill="#EDC1B2"/>
<path d="M148.132 56.1982C148.132 56.1982 148.073 87.651 151.552 99.2171C151.552 99.2171 159.04 104.882 170.184 106.711C181.386 105.177 188.992 99.6891 188.992 99.6891C192.707 88.2411 193.591 56.7884 193.591 56.7884C172.306 37.6099 148.132 56.1982 148.132 56.1982Z" fill="#EDC1B2"/>
<path d="M167.412 73.3114L154.676 73.1933L152.259 75.3767L159.983 78.3273L162.636 76.4389L167.53 78.9174L167.412 73.3114Z" fill="#D5ADA0"/>
<path d="M193.591 56.7884C188.226 51.9495 182.683 49.53 177.377 48.5859L181.681 73.1933H174.37L175.844 85.0545V85.1135H172.129L173.132 93.493L166.115 93.198L176.492 97.4467L177.554 100.397L171.952 106.18L171.775 106.298L171.599 106.475C182.035 104.705 188.992 99.6891 188.992 99.6891C192.707 88.2411 193.591 56.7884 193.591 56.7884Z" fill="#D5ADA0"/>
<path d="M157.507 58.4997C157.271 58.4997 157.094 58.6177 157.035 58.8537L155.974 62.4534C155.915 62.6894 156.033 62.9845 156.327 63.0435C156.386 63.0435 156.445 63.0435 156.445 63.0435C156.681 63.0435 156.858 62.9255 156.917 62.6894L157.978 59.0898C158.037 58.8537 157.919 58.5587 157.625 58.4997C157.625 58.4997 157.566 58.4997 157.507 58.4997Z" fill="#F6E0D9"/>
<path d="M155.856 63.9286C155.62 63.9286 155.443 64.0467 155.384 64.2827L154.677 66.4661C154.618 66.7022 154.735 66.9972 154.971 67.1152C155.03 67.1152 155.089 67.1152 155.148 67.1152C155.384 67.1152 155.561 66.9972 155.62 66.7612L156.327 64.5778C156.386 64.3417 156.268 64.0467 156.033 63.9286C155.974 63.9286 155.915 63.9286 155.856 63.9286Z" fill="#F6E0D9"/>
<path d="M198.367 52.1265C193.002 48.9399 184.04 46.4615 184.04 46.4615L185.631 36.4297C175.844 37.0198 161.044 44.3371 161.044 44.3371V35.4855C151.139 41.9767 144.004 50.4742 144.004 50.5332C144.004 50.5332 144.004 62.1583 145.596 72.0131L148.309 75.6128L148.662 76.0849L153.32 53.9558L179.735 62.1583L180.089 61.2732H180.148L186.339 55.8442L191.528 56.1392H191.822H191.999L192.396 77.009L192.589 76.8508V76.852L192.595 76.8461L195.832 74.1965C195.773 74.1965 198.721 56.0802 198.367 52.1265Z" fill="#253E4F"/>
<path d="M176.61 50.9463L179.735 62.1583L179.783 62.1695L179.794 62.1577V62.1583L186.28 55.8442L191.528 56.1392L176.61 50.9463Z" fill="#20323E"/>
</g>
<defs>
<clipPath id="clip0_1865_167">
<rect width="351" height="204" fill="white"/>
</clipPath>
</defs>
</svg>