<svg width="30" height="30" viewBox="0 0 30 30" fill="none" xmlns="http://www.w3.org/2000/svg">
<path d="M23.8387 6.16126C22.6818 4.99508 21.3049 4.07001 19.7879 3.43962C18.271 2.80922 16.644 2.48603 15.0012 2.48876C13.3582 2.48619 11.7309 2.80944 10.2135 3.43981C8.69614 4.07019 7.31883 4.99517 6.16125 6.16126C1.2875 11.0338 1.2875 18.965 6.16125 23.8388C7.31885 25.0052 8.69634 25.9303 10.214 26.5607C11.7316 27.1911 13.3592 27.5142 15.0025 27.5113C16.6452 27.5141 18.2721 27.1911 19.789 26.561C21.306 25.9308 22.6829 25.006 23.84 23.84C28.7137 18.9675 28.7137 11.0363 23.8387 6.16126ZM15.2262 5.00001H14.7775C14.8537 4.99876 14.9262 4.98876 15.0025 4.98876C15.0787 4.98876 15.15 4.99876 15.2262 5.00001ZM22.8037 21.25H20L18.4275 24.395C17.3305 24.8003 16.1707 25.0089 15.0012 25.0113C13.8296 25.0091 12.6676 24.8001 11.5687 24.3938L10 21.2625H7.20625C6.17554 19.9811 5.47851 18.4642 5.1775 16.8475L7.5 13.75L5.98 10.7088C6.46501 9.67699 7.12424 8.73656 7.92875 7.92876C9.05473 6.79883 10.4349 5.95489 11.9537 5.46751L15 7.50001L18.0475 5.46876C19.5659 5.95649 20.9459 6.7999 22.0725 7.92876C22.8761 8.73559 23.5349 9.67472 24.02 10.705L22.5 13.75L24.8225 16.8475C24.5229 18.459 23.8294 19.9714 22.8037 21.25Z" fill="white"/>
<path d="M10.625 13.75L12.5 18.75H17.5L19.375 13.75L15 10.625L10.625 13.75Z" fill="white"/>
</svg>
