<svg width="56" height="56" viewBox="0 0 56 56" fill="none" xmlns="http://www.w3.org/2000/svg">
<path fill-rule="evenodd" clip-rule="evenodd" d="M55.5991 27.3273C55.5991 41.8297 43.2593 53.6587 27.9739 53.6587C12.7408 53.6587 0.400879 41.8297 0.400879 27.3273C0.400879 12.7551 12.7408 0.926086 27.9739 0.926086C43.2593 0.926086 55.5991 12.7551 55.5991 27.3273Z" fill="#363636"/>
<path fill-rule="evenodd" clip-rule="evenodd" d="M27.9739 0C43.3987 0 56 12.4406 56 27.9039C56 31.3984 55.3203 34.7532 54.1176 37.9332C54.0305 38.2128 53.8911 38.4399 53.7516 38.737C49.5512 48.8187 39.5991 56 27.9739 56V37.6711L32.3486 37.5314L32.5403 33.3729L30.5185 29.424L31.9129 27.6418L38.6057 26.0693L39.146 24.6715L41.2898 26.0169L39.2331 33.8097L52.3224 37.444C53.4553 34.4911 54.1176 31.2587 54.1176 27.9039C54.1176 13.5239 42.4052 1.78222 27.9739 1.78222V0ZM27.9739 25.2131C32.1743 27.5894 36.2353 25.7548 34.7712 21.2818L27.9739 22.0855V25.2131ZM27.9739 21.4041L39.3203 19.8315L44.1481 16.3894L38.0305 14.1005L35.4335 15.7254L27.9739 16.3894V21.4041ZM27.9739 14.9042L34.8584 14.1529L37.8039 13.2618L33.4641 6.53479L31.4074 7.70546L27.9739 7.82777V14.9042ZM27.9739 56C12.6536 56 0 43.3148 0 27.9039C0 12.4406 12.6536 0 27.9739 0V1.78222C13.6819 1.78222 1.88235 13.5239 1.88235 27.9039C1.88235 31.2237 2.5098 34.3513 3.62527 37.2693L16.0871 33.9145L14.0305 28.5679L14.6057 27.1875L20.3747 26.2964L19.8867 27.6418L21.4902 31.3984L23.0588 37.6711H27.9739V56ZM27.9739 7.82777L26.4924 7.91514L23.0588 7.51326L21.4902 15.0091L23.0588 15.0964H25.8824L27.9739 14.9042V7.82777ZM27.9739 16.3894L25.9695 16.5641L22.8845 16.6515L20.7407 16.5641L14.4314 20.1984L19.085 21.142L25.3769 21.8059L27.9739 21.4041V16.3894ZM27.9739 22.0855L24.854 22.5223L18.9107 21.8059C17.6558 26.5585 21.6819 26.7332 24.854 22.5223C25.8824 23.7803 26.9455 24.6715 27.9739 25.2131V22.0855Z" fill="#979797"/>
</svg>
