<svg id="Layer_1" data-name="Layer 1" xmlns="http://www.w3.org/2000/svg" viewBox="0 0 1000 82.15"><defs><style>.cls-1{fill:#00143c;}.cls-2{fill:#16ff00;}.cls-3{fill:#fff;}</style></defs><title>Game Champions Logo 1</title><path class="cls-1" d="M50,30,52,27.91l3.23-3.46H5.42L4.34,26.6,3.22,29.79c-.54,1.51-1,3.07-1.43,4.62-.15.51-.28,1-.4,1.56-.26,1.13-.5,2.31-.7,3.51l-.13.68v.39C.32,42,.14,43.48,0,44.86s-.17,3-.17,4.4A33.6,33.6,0,0,0,2.92,64a26.86,26.86,0,0,0,9.29,10.71,37.92,37.92,0,0,0,13.23,5.45,73.75,73.75,0,0,0,15.69,1.53H79.41l1.17-6.58L86.9,39.32l.53-3,.08-.47,1-5.92ZM40.43,44c0-.26.07-.53.11-.79l.11-.36.12-.61a8.39,8.39,0,0,1,1.86-4.41L44.4,36l3.84-4.09L47.52,36l-.09.59-1.66,9.56H42.92a12.1,12.1,0,0,1-2.52-.48,4.3,4.3,0,0,1,0-.58C40.37,44.74,40.4,44.39,40.43,44Zm32.3,29.7H41.13a65.75,65.75,0,0,1-14-1.35,29.88,29.88,0,0,1-10.49-4.26,19,19,0,0,1-6.56-7.57,25.59,25.59,0,0,1-2.26-11.3c0-1.19,0-2.47.15-3.81a39.43,39.43,0,0,1,.55-4.2v-.4c.27-1.55.59-3,1-4.37L9.63,36c.33-1.19.7-2.39,1.11-3.55H36.81A13.51,13.51,0,0,0,34.44,36a19.16,19.16,0,0,0-1.53,5l-.1.31a17.59,17.59,0,0,0-.3,2c-.06.63-.11,1.24-.11,1.85a8.61,8.61,0,0,0,2.21,6.26c1.47,1.51,4.12,2.44,7.93,2.77h9.92l2.82-16.16H79.06l-4.3,24.4Z" transform="translate(0.14 -0.07)"/><path class="cls-1" d="M51,34l-.17.82-2.92,13.3h-5a28.4,28.4,0,0,1-4.45-.66,7.6,7.6,0,0,1-.05-.82,11.92,11.92,0,0,1,.11-1.42c.06-.36.11-.73.2-1.09l.19-.51.2-.84a10.72,10.72,0,0,1,3.29-6.14L45.49,34Z" transform="translate(0.14 -0.07)"/><path class="cls-1" d="M52.67.37C42.25.37,32.94,2.14,25,5.61A39.32,39.32,0,0,0,5.43,24.42v0L4.34,26.6,3.22,29.79c-.54,1.51-1,3.07-1.43,4.62-.15.51-.28,1-.4,1.56H48.46c.64,0,1.26,0,1.88-.08H87.56l1.14-6.6L92.11,9.71,93.76.37ZM48.46,28H12.54a34.92,34.92,0,0,1,2-3.55A30.82,30.82,0,0,1,28.24,12.91q10.4-4.56,24.43-4.57h31.6L80.86,27.91H51c-.47,0-.91,0-1.31.05S48.86,28,48.46,28Z" transform="translate(0.14 -0.07)"/><path class="cls-1" d="M151.48,32.42l5.62,41.33H133.63l-1.61-10H107.75l-5.22,10H78.05L98.21,32.42h24.88l-7,13.84h13.75l-2.21-13.84h23.87m7-8H93.24l-2.19,4.47L70.89,70.25,65.3,81.72h42.07l2.23-4.3,3-5.74h12.65l.53,3.33,1.07,6.71h39.4l-1.23-9-5.62-41.33-.94-6.89Z" transform="translate(0.14 -0.07)"/><path class="cls-1" d="M148.17,8.34,150.88,28H100.42l9.63-19.66h38.12m7-8h-50L102.9,4.83,93.27,24.5,87.65,36H160l-1.24-9.06L156.07,7.25,155.12.37Z" transform="translate(0.14 -0.07)"/><path class="cls-1" d="M252.81,32.42l-7.23,41.33H221.71l4.51-25.58L206.06,73.75h-4L190.71,48.17l-4.52,25.58H162.42l7.22-41.33h83.17m9.48-8H162.94l-1.15,6.6-7.22,41.33-1.63,9.34h39.94L194,75.29l.75,1.69,2.1,4.74h13.06l2.39-3,.56-.7-.66,3.74h40.07l1.15-6.6,7.22-41.33,1.64-9.34Z" transform="translate(0.14 -0.07)"/><path class="cls-1" d="M198.13,8.34l9,19.66H170.44L174,8.34h24.17m5.11-8h-36l-1.17,6.57L162.6,26.6,160.93,36h58.66L214.4,24.68,205.37,5,203.24.37Z" transform="translate(0.14 -0.07)"/><path class="cls-1" d="M257.12,8.34,253.61,28H215.29L231,8.34h26.08m9.52-8H227.21l-2.39,3L209.07,23,198.69,36h61.59l1.17-6.57L265,9.74,266.64.37Z" transform="translate(0.14 -0.07)"/><path class="cls-1" d="M324.93,8.34,321.42,28H260.83l3.51-19.66h60.59m9.52-8H257.67L256.5,6.94,253,26.6,251.31,36h76.78l1.18-6.57,3.51-19.66L334.45.37Z" transform="translate(0.14 -0.07)"/><path class="cls-1" d="M318,32.42,314.9,49.67H280.79l-.7,4.42h36.82L313.4,73.75H252.8L260,32.42h58m9.53-8H253.33l-1.15,6.6L245,72.38l-1.63,9.34h76.75l1.17-6.57,3.51-19.66,1.68-9.37h-2.79l2.21-12.29,1.69-9.38Z" transform="translate(0.14 -0.07)"/><path class="cls-1" d="M350.62.37a23,23,0,0,0-9.91,2.49,40.09,40.09,0,0,0-7.56,4.71l-.86.7a39,39,0,0,0-7,7.49,25.34,25.34,0,0,0-4.09,8.69c-.08.32-.15.65-.21,1l-.21,1.16L320,31l-.16.94-.73,4h76.7l.64-3.55.54-3,.25-1.41.63-3.55,2.63-14.71.25-1.4,1.42-8ZM389.14,28h-60.5l.21-1.1a11.36,11.36,0,0,1,.72-2.45,14,14,0,0,1,.94-2,18.33,18.33,0,0,1,1.29-2.07,31.43,31.43,0,0,1,5.58-6A33.09,33.09,0,0,1,344.15,10a15.26,15.26,0,0,1,6.47-1.7h42l-2.86,16.11Z" transform="translate(0.14 -0.07)"/><path class="cls-1" d="M357.46,46.12,358.75,39l0-.14,0-.16a15,15,0,0,1,.35-1.75c.1-.34.19-.66.3-.93l.12-.25,3.5-7.72,1.63-3.55H321.15L320,31l-.16.94-.72,4-3,17.29a11.92,11.92,0,0,0-.3,2.93v1a22,22,0,0,0,2.16,9.39,28.84,28.84,0,0,0,5,7.34,27.12,27.12,0,0,0,7,5.39,19.2,19.2,0,0,0,9.18,2.39h48.7L389,75.14l.26-1.4,3.25-18.25,1.67-9.37Zm23.65,27.62h-42a11.3,11.3,0,0,1-5.42-1.45,19,19,0,0,1-4.92-3.81,20.36,20.36,0,0,1-3.6-5.32,13.67,13.67,0,0,1-1.41-6v-1a2.53,2.53,0,0,1,.1-1L327.22,36l.63-3.55h24.47a16.86,16.86,0,0,0-.86,2.4c-.09.39-.19.77-.27,1.15s-.19,1-.27,1.56l-1.42,7.73a18.38,18.38,0,0,0-.28,3,6.52,6.52,0,0,0,1.29,4.22c.87,1.07,2.55,1.61,5,1.61h29.1Z" transform="translate(0.14 -0.07)"/><path class="cls-1" d="M470.39,8.34,466.88,28H443.11l3.51-19.66h23.77m9.52-8H440l-1.18,6.57L435.26,26.6,433.59,36h40l1.18-6.57,3.51-19.66L479.91.37Z" transform="translate(0.14 -0.07)"/><path class="cls-1" d="M388.85,24.45,388.23,28l-.53,3.05-.84,4.86,0,.06-1.77,10.15-1.4,8-3.19,18.28-.23,1.37-1.41,8h40L420,75.13,423,57.65h6.79l-2.58,14.72-1.63,9.34h39.95l1.15-6.58,7.24-41.34,1.62-9.34Zm70,49.29H435.08l4.21-24.06h-23L412.1,73.74H388.33l4.82-27.62L394.94,36l.62-3.55h70.52Z" transform="translate(0.14 -0.07)"/><path class="cls-1" d="M388,35.12l-2,11.4H355l1.45-8.05,0-.16,0-.18a17.16,17.16,0,0,1,.39-2c.11-.37.22-.73.34-1Z" transform="translate(0.14 -0.07)"/><path class="cls-1" d="M423.64,8.34,420.13,28H396.36l3.51-19.66Zm9.52-8h-40L392,6.94,388.51,26.6,386.84,36h40L428,29.4l3.51-19.66L433.16.37Z" transform="translate(0.14 -0.07)"/><path class="cls-1" d="M537.61,32.42l5.61,41.33H519.75l-1.61-10H493.87l-5.22,10H464.17l20.17-41.33h24.88l-7,13.84h13.75l-2.21-13.84h23.88m6.95-8h-65.2l-2.18,4.47L457,70.25l-5.59,11.47h42.07l2.23-4.3,3-5.74h12.64l.53,3.33L513,81.72h39.4l-1.23-9L545.5,31.34l-.94-6.89Z" transform="translate(0.14 -0.07)"/><path class="cls-1" d="M534.3,8.34,537,28H486.54l9.63-19.66H534.3m6.94-8h-50L489,4.83,479.39,24.5,473.77,36h72.38l-1.25-9.06L542.19,7.25l-1-6.88Z" transform="translate(0.14 -0.07)"/><path class="cls-1" d="M584.25,8.34l9,19.66H556.57l3.51-19.66h24.17m5.11-8h-36l-1.17,6.57L548.72,26.6,547.05,36h58.66l-5.19-11.29L591.49,5,589.36.37Z" transform="translate(0.14 -0.07)"/><path class="cls-1" d="M643.24,8.34,639.73,28H601.41L617.16,8.34h26.08m9.52-8H613.33l-2.39,3L595.19,23,584.82,36H646.4l1.17-6.57,3.51-19.66L652.76.37Z" transform="translate(0.14 -0.07)"/><path class="cls-1" d="M638.93,32.42,631.7,73.75H607.83l4.51-25.58L592.18,73.75h-4L576.83,48.17l-4.51,25.58H548.54l7.22-41.33h83.17m9.48-8H549.07l-1.16,6.6-7.22,41.33-1.63,9.34H579l1.13-6.43.75,1.69,2.1,4.74H596l2.4-3L599,78l-.66,3.74H638.4l1.15-6.6,7.23-41.33,1.63-9.34Z" transform="translate(0.14 -0.07)"/><path class="cls-1" d="M701.12,8.34a14.16,14.16,0,0,1,6.42,1.5,17.71,17.71,0,0,1,5.27,4,19.86,19.86,0,0,1,3.56,5.61,16.27,16.27,0,0,1,1.31,6.32c0,.41,0,.79,0,1.16s-.09.72-.15,1.05H647l3.51-19.66h50.66m0-8H643.79l-1.17,6.57L639.11,26.6,637.43,36,647,44.11,717.48,36H724l1.26-6.43a18.3,18.3,0,0,0,.27-1.85c.06-.61.08-1.25.08-1.9a24.12,24.12,0,0,0-1.92-9.39,27.45,27.45,0,0,0-5-7.87,25.57,25.57,0,0,0-7.62-5.81,22.14,22.14,0,0,0-10-2.35Z" transform="translate(0.14 -0.07)"/><path class="cls-1" d="M716.67,32.42l-.6,3.71a18.09,18.09,0,0,1-3,6.87,32.94,32.94,0,0,1-5.77,6.47,32.73,32.73,0,0,1-7.22,4.77,17.13,17.13,0,0,1-7.37,1.85H665.81L662.7,73.75H638.93l7.22-41.33h23.77l-.7,4.31h16.15c2.48,0,4.18-.37,5.12-1.1a5.65,5.65,0,0,0,1.91-3.21h24.27m9.37-8H686.11l-1,4.31h-6.49l.7-4.31H639.45l-1.15,6.6-7.22,41.33-1.64,9.34h39.95l1.16-6.59,2-11.07h20.2a25,25,0,0,0,10.82-2.64,40.44,40.44,0,0,0,9-5.93,40.85,40.85,0,0,0,7.15-8,26.15,26.15,0,0,0,4.25-9.9v-.08l0-.07.6-3.72,1.5-9.24Z" transform="translate(0.14 -0.07)"/><path class="cls-1" d="M747.67,32.42l-7.22,41.33H716.67l7.22-41.33h23.78m9.48-8H717.2L716,31.05l-7.22,41.33-1.63,9.34h39.95l1.16-6.6,7.22-41.33,1.63-9.34Z" transform="translate(0.14 -0.07)"/><path class="cls-1" d="M752,8.34,748.47,28H724.7l3.51-19.66H752m9.52-8h-40l-1.18,6.57L716.85,26.6,715.18,36h40l1.18-6.57,3.51-19.66L761.5.37Z" transform="translate(0.14 -0.07)"/><path class="cls-1" d="M840.21,29.6l-.51-3c-.13-.75-.29-1.48-.48-2.2a28.83,28.83,0,0,0-4.59-10.14A29.52,29.52,0,0,0,825,5.8a42.89,42.89,0,0,0-12.47-4.43A75.09,75.09,0,0,0,798.13.07c-10.45,0-19.81,1.81-27.84,5.41a40.84,40.84,0,0,0-19.86,18.83l-.07.14-1.12,2.13L744.33,36h97ZM757.49,28c.66-1.24,1.38-2.44,2.12-3.55a32.52,32.52,0,0,1,13.95-11.7Q784.08,8,798.13,8A65.53,65.53,0,0,1,811,9.2a34,34,0,0,1,10.12,3.55A21.49,21.49,0,0,1,828.17,19,20.2,20.2,0,0,1,831,24.45a23.93,23.93,0,0,1,.89,3.55Z" transform="translate(0.14 -0.07)"/><path class="cls-1" d="M750.1,24.45l-.86,2.13-1.15,2.87a43.62,43.62,0,0,0-1.67,5.15c-.11.45-.22.91-.32,1.37-.29,1.21-.54,2.46-.76,3.71l-.12.67v.18a38.64,38.64,0,0,0-.52,4.1c-.13,1.46-.18,2.93-.18,4.35a33.78,33.78,0,0,0,3.19,15.12,28.15,28.15,0,0,0,9.37,10.84,38.56,38.56,0,0,0,13.55,5.69,74,74,0,0,0,15.87,1.59,79.66,79.66,0,0,0,18.25-2,47.69,47.69,0,0,0,16-7,42.27,42.27,0,0,0,11.93-12.59,50.79,50.79,0,0,0,6.6-18l.13-.7v-.21c.24-1.42.43-2.77.56-4.05.06-.57.11-1.14.12-1.72.08-1,.12-2,.12-2.95V24.45ZM795,27.53l.25.47,4.19,8,.08.14a3.82,3.82,0,0,1,.08.93c0,.38,0,.8,0,1.23s-.12.81-.2,1.21l-.16.78v.19a14.77,14.77,0,0,1-1,3.19,4,4,0,0,1-1.08,1.46,5.82,5.82,0,0,1-2.15,1,17.37,17.37,0,0,1-4.92.56,16.11,16.11,0,0,1-4.93-.54,3.81,3.81,0,0,1-.05-.72c0-.75,0-1.26,0-1.59l.37-.73V41.77a10.33,10.33,0,0,1,1.8-4.41l1.1-1.39,6.26-8Zm37,9.35c-.13,1.31-.33,2.69-.59,4.16v.21a42.9,42.9,0,0,1-5.53,15.2,34.08,34.08,0,0,1-9.67,10.23,39.78,39.78,0,0,1-13.34,5.77,70.87,70.87,0,0,1-16.4,1.8,66.3,66.3,0,0,1-14.15-1.4,30.21,30.21,0,0,1-10.74-4.46,20.34,20.34,0,0,1-6.76-7.83A25.85,25.85,0,0,1,752.49,49c0-1.22,0-2.46.14-3.72a36.34,36.34,0,0,1,.56-4V41c.26-1.53.58-3,.94-4.46,0-.21.11-.4.16-.61a36.08,36.08,0,0,1,1.2-3.55H781A15.54,15.54,0,0,0,778.9,36,22.54,22.54,0,0,0,777.46,41v.21a12.6,12.6,0,0,0-.4,4.2,8.38,8.38,0,0,0,2.86,6.87q2.87,2.37,10.09,2.36a25.72,25.72,0,0,0,7.21-.89,13.74,13.74,0,0,0,5-2.62A12,12,0,0,0,805.4,47a25.11,25.11,0,0,0,1.75-5.72V41a17.45,17.45,0,0,0,.31-2c.06-.67.09-1.32.09-2a9.36,9.36,0,0,0,0-1.07,8.9,8.9,0,0,0-.94-3.55h25.68V33a29.37,29.37,0,0,1-.13,2.95C832.09,36.27,832.06,36.58,832,36.88Z" transform="translate(0.14 -0.07)"/><path class="cls-1" d="M802,28.19c0,.78,0,1.63-.07,2.51s-.15,1.67-.26,2.48l-.22,1.6v.39a43,43,0,0,1-1.4,6.53,9,9,0,0,1-1.49,3,7.69,7.69,0,0,1-3,2.16A16.79,16.79,0,0,1,788.83,48c-4.07,0-6-.75-6.76-1.11a10.05,10.05,0,0,1-.07-1.47c0-1.53,0-2.58,0-3.26l.51-1.5V37.88a27.58,27.58,0,0,1,2.47-9L786.53,26h15.25l.11.29A11.28,11.28,0,0,1,802,28.19Z" transform="translate(0.14 -0.07)"/><path class="cls-1" d="M867.55,8.34,879.49,28H840.87l3.51-19.66h23.17m4.48-8H837.71l-1.18,6.57L833,26.6,831.35,36h62.3l-7.35-12.1L874.36,4.2,872,.37Z" transform="translate(0.14 -0.07)"/><path class="cls-1" d="M914.9,8.34,911.39,28H887.61l3.51-19.66H914.9m9.52-8h-40l-1.17,6.57L879.77,26.6,878.1,36h40l1.17-6.57,3.51-19.66L924.42.37Z" transform="translate(0.14 -0.07)"/><path class="cls-1" d="M910.59,32.42l-7.23,41.33H880.29l-18.36-30-5.31,30H832.84l7.22-41.33H882.2l3.61,5.81,1-5.81h23.78m9.48-8h-86.7l-1.16,6.6L825,72.38l-1.63,9.34h39.93l1.17-6.58,1.65-9.3,7.38,12.07,2.34,3.81h34.23l1.15-6.6,7.23-41.33,1.63-9.34Z" transform="translate(0.14 -0.07)"/><path class="cls-1" d="M990.34,8.34,986.83,28H930.35a5.53,5.53,0,0,1-.15-.75,5.25,5.25,0,0,1-.05-.85v-.61a11.84,11.84,0,0,1,.3-2.4,17.78,17.78,0,0,1,2.26-6,19.59,19.59,0,0,1,4-4.77,18.54,18.54,0,0,1,5.12-3.16,15,15,0,0,1,5.71-1.15h42.84m-42.83-8a23,23,0,0,0-8.75,1.75,27,27,0,0,0-7.32,4.51,28,28,0,0,0-5.56,6.7,25.6,25.6,0,0,0-3.24,8.49,26.23,26.23,0,0,0-.39,2.63c-.52,4.56,1.29,9.64,2,11.52H993.5l1.18-6.56,3.5-19.67L999.86.37Z" transform="translate(0.14 -0.07)"/><path class="cls-1" d="M961.65,32.42c1.54,2,3,4,4.51,5.92a63,63,0,0,1,4,5.86A34.41,34.41,0,0,1,973,50.27a19,19,0,0,1,1.11,6.42,23.9,23.9,0,0,1-.3,3.72,15.74,15.74,0,0,1-1.91,5.31,17.55,17.55,0,0,1-3.41,4.22,14.84,14.84,0,0,1-4.56,2.8,14.59,14.59,0,0,1-5.37,1H910.59l3.51-19.66h32.5q-1.8-2.42-4-5c-1.47-1.71-2.91-3.46-4.32-5.27s-2.7-3.66-3.91-5.57a31.34,31.34,0,0,1-2.91-5.86h30.2m18.84,15.19A40.85,40.85,0,0,0,977,40.15c-.81-1.41-1.72-2.79-2.69-4.18-.56-.83-1.15-1.64-1.77-2.45-1.48-2-3-3.94-4.54-6l-2.39-3.12H922.25a12.41,12.41,0,0,0-.07,1.34v.6a15.2,15.2,0,0,0,.13,2,15.27,15.27,0,0,0,.32,1.55l1.24,4.95s.3.8.42,1.07a38.64,38.64,0,0,0,3.33,6.57c.76,1.21,1.57,2.4,2.4,3.58H907.43l-1.18,6.57-3.51,19.66-1.67,9.36h57.46a22.43,22.43,0,0,0,8.29-1.55,22.94,22.94,0,0,0,7-4.3,25.18,25.18,0,0,0,5-6.12,23.54,23.54,0,0,0,2.88-8v0l0-.06a31.37,31.37,0,0,0,.4-5A27,27,0,0,0,980.49,47.61Z" transform="translate(0.14 -0.07)"/><path class="cls-2" d="M8.53,40.84c.27-1.53.59-3,1-4.36s.79-2.72,1.26-4.06H36.82a16,16,0,0,0-3.91,8.52l-.1.3a18,18,0,0,0-.3,2,17.08,17.08,0,0,0-.1,1.86,8.61,8.61,0,0,0,2.2,6.27c1.47,1.5,4.12,2.42,7.93,2.76h9.93l2.81-16.16H79.05L72.73,73.75H41.13a65.07,65.07,0,0,1-14-1.36,30,30,0,0,1-10.48-4.26,18.85,18.85,0,0,1-6.57-7.57A25.68,25.68,0,0,1,7.83,49.27q0-1.8.15-3.81a40.11,40.11,0,0,1,.55-4.22ZM51,27.9c-.47,0-.91,0-1.31.05s-.8.05-1.2.05H12.54a31.4,31.4,0,0,1,15.7-15.1q10.4-4.56,24.43-4.56h31.6L80.86,27.9Z" transform="translate(0.14 -0.07)"/><path class="cls-2" d="M132,63.72H107.75l-5.22,10H78.05L98.21,32.42h24.88l-7,13.84h13.75l-2.21-13.84h23.87l5.62,41.33H133.63ZM100.42,28l9.63-19.66h38.12L150.88,28Z" transform="translate(0.14 -0.07)"/><path class="cls-2" d="M245.58,73.75H221.71l4.51-25.58L206.06,73.75h-4L190.71,48.17l-4.52,25.58H162.42l7.22-41.33h83.17ZM170.44,28,174,8.34h24.17l9,19.66Zm44.85,0L231,8.34h26.08L253.61,28Z" transform="translate(0.14 -0.07)"/><path class="cls-2" d="M314.9,49.67H280.79l-.7,4.42h36.82L313.4,73.75H252.8L260,32.42h58ZM246.66,28l3.51-19.66h74.76L321.42,28Z" transform="translate(0.14 -0.07)"/><path class="cls-3" d="M400.4,73.75H339.08a11.38,11.38,0,0,1-5.42-1.46,19,19,0,0,1-4.92-3.81,20.73,20.73,0,0,1-3.61-5.32,13.87,13.87,0,0,1-1.4-6v-1a2.37,2.37,0,0,1,.1-1l4-22.77h24.48a14.71,14.71,0,0,0-.85,2.4,21.31,21.31,0,0,0-.55,2.71l-1.41,7.73a17.65,17.65,0,0,0-.3,3,6.46,6.46,0,0,0,1.3,4.21q1.31,1.6,5,1.61h48.38ZM328.64,28l.2-1.1a16.78,16.78,0,0,1,3-6.52,31.13,31.13,0,0,1,5.57-6,32.74,32.74,0,0,1,6.77-4.36,15.17,15.17,0,0,1,6.47-1.71h42L389.14,28h-60.5Z" transform="translate(0.14 -0.07)"/><path class="cls-3" d="M435.08,73.75l4.21-24.08h-23l-4.21,24.08H388.33l7.23-41.33h70.52l-7.22,41.33ZM423.64,8.34,420.13,28H396.36l3.51-19.66Zm46.75,0L466.88,28H443.11l3.51-19.66Z" transform="translate(0.14 -0.07)"/><path class="cls-3" d="M518.14,63.72H493.87l-5.22,10H464.17l20.17-41.33h24.88l-7,13.84h13.75l-2.21-13.84h23.88l5.61,41.33H519.75ZM486.54,28l9.63-19.66H534.3L537,28Z" transform="translate(0.14 -0.07)"/><path class="cls-3" d="M631.7,73.75H607.83l4.51-25.58L592.18,73.75h-4L576.83,48.17l-4.51,25.58H548.54l7.22-41.33h83.17ZM556.57,28l3.51-19.66h24.17l9,19.66Zm44.84,0L617.16,8.34h26.08L639.73,28Z" transform="translate(0.14 -0.07)"/><path class="cls-3" d="M662.7,73.75H638.93l6.47-37h40c2.48,0,4.18-.37,5.12-1.1a5.65,5.65,0,0,0,1.91-3.21h24.27l-.6,3.71a18.09,18.09,0,0,1-3,6.87,32.94,32.94,0,0,1-5.77,6.47,32.73,32.73,0,0,1-7.22,4.77,17.13,17.13,0,0,1-7.37,1.85H665.81ZM635.68,28l3.51-19.66h61.93a14.16,14.16,0,0,1,6.42,1.5,17.71,17.71,0,0,1,5.27,4,19.86,19.86,0,0,1,3.56,5.61,16.27,16.27,0,0,1,1.31,6.32c0,.41,0,.79,0,1.16s-.09.72-.15,1.05Z" transform="translate(0.14 -0.07)"/><path class="cls-3" d="M740.45,73.75H716.67l7.22-41.33h23.78ZM752,8.34,748.47,28H724.7l3.51-19.66Z" transform="translate(0.14 -0.07)"/><path class="cls-3" d="M786.49,74.25a65.77,65.77,0,0,1-14.14-1.4,30.22,30.22,0,0,1-10.74-4.47,20.42,20.42,0,0,1-6.77-7.82A26,26,0,0,1,752.48,49c0-1.2,0-2.44.16-3.71a36.71,36.71,0,0,1,.55-4V41c.26-1.53.58-3,.95-4.46a34.86,34.86,0,0,1,1.35-4.16H781A18.82,18.82,0,0,0,777.46,41v.2a13,13,0,0,0-.4,4.22,8.41,8.41,0,0,0,2.86,6.87q2.87,2.36,10.08,2.36a25.48,25.48,0,0,0,7.23-.9,14,14,0,0,0,5-2.61A12,12,0,0,0,805.4,47a24.18,24.18,0,0,0,1.76-5.72V41c.13-.66.23-1.33.3-2s.1-1.34.1-2a9.87,9.87,0,0,0-1-4.61h25.68V33c0,1.27-.07,2.56-.2,3.86s-.34,2.69-.6,4.16v.2a42.68,42.68,0,0,1-5.52,15.2,34.39,34.39,0,0,1-9.68,10.24,39.51,39.51,0,0,1-13.35,5.76A70.25,70.25,0,0,1,786.49,74.25ZM757.5,28a33,33,0,0,1,16-15.25Q784.08,8,798.13,8A66.91,66.91,0,0,1,811,9.19a34.51,34.51,0,0,1,10.13,3.56A21.73,21.73,0,0,1,828.18,19a21.56,21.56,0,0,1,3.66,9Z" transform="translate(0.14 -0.07)"/><path class="cls-3" d="M903.36,73.75H880.29l-18.36-30-5.31,30H832.84l7.22-41.33H882.2l3.61,5.81,1-5.81h23.78ZM840.87,28l3.51-19.66h23.17L879.49,28Zm46.74,0,3.51-19.66H914.9L911.39,28Z" transform="translate(0.14 -0.07)"/><path class="cls-3" d="M891.89,73.75l3.51-19.66h51.2q-1.8-2.42-4-5c-1.47-1.71-2.91-3.46-4.32-5.27s-2.7-3.66-3.91-5.57a31.34,31.34,0,0,1-2.91-5.86h30.2c1.54,2,3,4,4.51,5.92a63,63,0,0,1,4,5.86A34.41,34.41,0,0,1,973,50.27a19,19,0,0,1,1.11,6.42,23.9,23.9,0,0,1-.3,3.72,15.74,15.74,0,0,1-1.91,5.31,17.55,17.55,0,0,1-3.41,4.22,14.84,14.84,0,0,1-4.56,2.8,14.59,14.59,0,0,1-5.37,1ZM986.83,28H930.35a5.53,5.53,0,0,1-.15-.75,5.25,5.25,0,0,1-.05-.85v-.61a11.84,11.84,0,0,1,.3-2.4,17.78,17.78,0,0,1,2.26-6,19.59,19.59,0,0,1,4-4.77,18.54,18.54,0,0,1,5.12-3.16,15,15,0,0,1,5.71-1.15h42.84Z" transform="translate(0.14 -0.07)"/></svg>