<svg width="237" height="89" viewBox="0 0 237 89" fill="none" xmlns="http://www.w3.org/2000/svg">
<g clip-path="url(#clip0_163_4)">
<mask id="mask0_163_4" style="mask-type:luminance" maskUnits="userSpaceOnUse" x="0" y="0" width="237" height="89">
<path d="M237 0H0V89H237V0Z" fill="white"/>
</mask>
<g mask="url(#mask0_163_4)">
<path d="M166.53 48.0308V88.3019H157.599L138.306 62.1331V88.3019H129.75V51.7947L127.795 48.0308H138.857L157.974 74.5617V48.0308H166.53Z" fill="#C28F2C"/>
<path d="M77.6091 88.9975C80.5546 89.0133 83.2754 88.518 85.7714 87.5176C88.2705 86.5169 90.4244 85.129 92.2426 83.3599C94.0575 81.5907 95.4815 79.4912 96.5142 77.0679C97.2573 75.324 97.7363 73.482 97.9546 71.5443C98.0394 70.7917 98.1858 67.7551 98.0293 65.9226H77.6939L74.0737 73.1833H88.5834C88.0229 75.4764 86.7554 77.3663 84.7875 78.7892C82.8159 80.2154 80.4571 80.9205 77.7101 80.9077C75.944 80.8982 74.2953 80.5553 72.7671 79.8786C71.2389 79.2022 69.9094 78.2875 68.7788 77.1346C67.6448 75.9815 66.7618 74.6284 66.1199 73.0754C65.4812 71.5221 65.1653 69.8642 65.175 68.1045C65.1848 66.345 65.5171 64.6902 66.1721 63.1433C66.827 61.5966 67.7262 60.253 68.8733 59.1096C70.0171 57.9662 71.3465 57.0768 72.8616 56.4321C74.3767 55.7905 76.0157 55.4729 77.7851 55.4793C80.1799 55.492 82.2948 56.0191 84.1356 57.0609C85.9766 58.1028 87.4006 59.6019 88.4108 61.5585L96.4395 57.8105C94.768 54.5517 92.2979 51.9949 89.0298 50.1401C85.7617 48.2883 82.0469 47.3513 77.886 47.3291C74.9405 47.3132 72.1512 47.8469 69.5185 48.9236C66.8825 50.0002 64.5884 51.4804 62.6366 53.3672C60.6848 55.2506 59.1307 57.4548 57.9805 59.9735C56.827 62.4922 56.2471 65.1889 56.2306 68.0569C56.2145 70.9249 56.7618 73.628 57.8665 76.1595C58.9743 78.6907 60.483 80.9077 62.3957 82.8103C64.3082 84.713 66.5697 86.2185 69.1731 87.3207C71.7734 88.4226 74.5887 88.9816 77.6091 88.9975Z" fill="#C28F2C"/>
<path d="M10.8929 48.0283H0L2.05605 52.1921V84.1445L0 88.3055H24.9985L27.2663 80.4254H10.8929V48.0283Z" fill="#C28F2C"/>
<path d="M30.2839 88.3055H54.6503V80.4285H39.1533V71.5924H51.1346L53.3047 64.0202H39.1533V55.8734H54.6503V48.0283H30.2839V88.3055Z" fill="#C28F2C"/>
<path d="M101.124 88.3055H125.49V80.4285H109.993V71.5924H121.978L124.145 64.0202H109.993V55.8734H125.49V48.0283H101.124V88.3055Z" fill="#C28F2C"/>
<path d="M116.733 41.6692C119.679 41.6851 122.399 41.1898 124.895 40.1891C127.394 39.1886 129.548 37.8005 131.366 36.0314C133.181 34.2625 134.605 32.1629 135.638 29.7393C136.381 27.9958 136.86 26.1535 137.078 24.2161C137.163 23.4633 137.31 20.4269 137.153 18.5942H116.818L113.198 25.8518H127.707C127.147 28.1451 125.879 30.0347 123.911 31.4579C121.94 32.8838 119.581 33.5889 116.834 33.5764C115.068 33.5669 113.419 33.2237 111.891 32.5473C110.363 31.8706 109.033 30.9559 107.903 29.803C106.769 28.6499 105.886 27.297 105.244 25.7438C104.605 24.1907 104.289 22.5327 104.299 20.7731C104.308 19.0135 104.641 17.3587 105.296 15.8119C105.951 14.2651 106.85 12.9215 107.997 11.7781C109.141 10.6347 110.47 9.74536 111.985 9.10058C113.5 8.459 115.14 8.14139 116.909 8.14773C119.304 8.16044 121.418 8.68768 123.26 9.72948C125.101 10.7713 126.524 12.2704 127.534 14.227L135.563 10.4791C133.892 7.22029 131.422 4.66346 128.154 2.80856C124.885 0.956836 121.171 0.0198615 117.01 -0.0023718C114.064 -0.0182528 111.275 0.515346 108.642 1.59208C106.006 2.6688 103.712 4.1489 101.761 6.03556C99.8088 7.91905 98.2544 10.1233 97.1042 12.642C95.9507 15.1608 95.3708 17.8573 95.3546 20.7254C95.3382 23.5935 95.8855 26.2965 96.9902 28.8279C98.098 31.3594 99.6067 33.5764 101.519 35.4787C103.432 37.3814 105.693 38.8869 108.297 39.9891C110.897 41.0974 113.709 41.6564 116.733 41.6692Z" fill="#C28F2C"/>
<path d="M10.8929 0.702103H0L2.05605 4.86608V36.8185L0 40.9795H24.9985L27.2663 33.096H10.8929V0.702103Z" fill="#C28F2C"/>
<path d="M30.2839 40.9795H54.6503V33.0991H39.1533V24.2662H51.1346L53.3047 16.6942H39.1533V8.54728H54.6503V0.702103H30.2839V40.9795Z" fill="#C28F2C"/>
<path d="M177.245 40.9795H201.608V33.0991H186.114V24.2662H198.095L200.262 16.6942H186.114V8.54728H201.608V0.702103H177.245V40.9795Z" fill="#C28F2C"/>
<path d="M81.9658 0.702103H69.3654L72.0307 5.83801L57.4786 40.9825H66.5437L69.6326 33.1247H86.0224L89.1993 40.9825H98.44L81.9658 0.702103ZM72.6597 25.4224L77.9805 11.8886L83.093 25.4224H72.6597Z" fill="#C28F2C"/>
<path d="M224.758 11.7782V29.892H229.323V23.7683H234.035L235.175 19.7854H229.323V15.8818H236.016V11.7782H224.758Z" fill="#C28F2C"/>
<path d="M213.474 11.4183C208.157 11.4183 203.833 15.6427 203.833 20.8357C203.833 26.0288 208.157 30.253 213.474 30.253C218.792 30.253 223.116 26.0288 223.116 20.8357C223.116 15.6427 218.789 11.4183 213.474 11.4183ZM213.474 25.8827C210.63 25.8827 208.316 23.6181 208.316 20.8357C208.316 18.0534 210.63 15.7888 213.474 15.7888C216.319 15.7888 218.632 18.0534 218.632 20.8357C218.632 23.6181 216.319 25.8827 213.474 25.8827Z" fill="#C28F2C"/>
<path d="M156.811 41.6781C154.217 41.6781 151.897 41.2843 149.854 40.4997C147.811 39.7151 146.081 38.594 144.667 37.1361C143.253 35.6815 142.161 33.9187 141.395 31.8478C140.629 29.7802 140.245 27.4806 140.245 24.9523V0.702103H149.205V24.4949C149.205 27.2169 149.854 29.3608 151.151 30.9331C152.448 32.5053 154.334 33.2899 156.811 33.2899C159.287 33.2899 161.174 32.5053 162.47 30.9331C163.767 29.3608 164.416 27.2169 164.416 24.4949V0.702103H173.376V24.9555C173.376 27.4837 172.992 29.7833 172.226 31.8509C171.461 33.9187 170.369 35.6815 168.955 37.1394C167.541 38.5971 165.81 39.7151 163.767 40.5028C161.721 41.2843 159.404 41.6781 156.811 41.6781Z" fill="#C28F2C"/>
<path d="M225.393 64.4204L219.815 63.3752C217.306 62.9052 215.924 61.5332 215.924 59.5098C215.924 56.7531 218.824 55.1046 221.627 55.1046C222.581 55.1046 227.332 55.346 228.309 59.964L235.996 56.3053C234.862 53.0209 231.467 47.326 221.571 47.326C213.591 47.326 207.097 53.0401 207.097 60.0625C207.097 66.018 211.183 70.3851 218.023 71.7446L223.604 72.8437C226.361 73.3802 228.007 74.9082 228.007 76.9283C228.007 79.5421 225.735 81.1302 222.079 81.1683C217.645 81.2128 214.06 77.9985 213.507 74.8351L206.12 78.8529C207.814 84.2301 213.034 89.0072 222.024 89.0072C227.681 89.0072 231.174 86.8759 233.106 85.0879C235.586 82.7978 237.006 79.6439 237.006 76.436C237 70.3756 232.552 65.7735 225.393 64.4204Z" fill="#C28F2C"/>
<path d="M203.667 60.3228C202.569 57.8739 201.07 55.7521 199.171 53.9512C197.268 52.1537 195.042 50.7369 192.494 49.7015C189.943 48.666 186.313 48.0213 184.374 48.0213H170.402V88.2955H184.348C187.212 88.2955 189.92 87.7904 192.471 86.7614C195.023 85.7292 197.248 84.3158 199.154 82.5211C201.057 80.7235 202.563 78.6048 203.661 76.1562C204.762 73.7103 205.313 71.0709 205.316 68.241C205.313 65.4111 204.765 62.7717 203.667 60.3228ZM195.303 72.9385C194.674 74.3931 193.821 75.6542 192.742 76.7247C191.66 77.7949 190.376 78.6462 188.884 79.2751C187.392 79.9039 185.802 80.2185 184.117 80.2185H179.233V56.2383H184.133C185.821 56.2383 187.408 56.5559 188.9 57.1878C190.389 57.82 191.673 58.671 192.755 59.7415C193.833 60.8151 194.684 62.0856 195.313 63.5593C195.938 65.0331 196.254 66.5926 196.251 68.2346C196.248 69.9212 195.932 71.487 195.303 72.9385Z" fill="#C28F2C"/>
</g>
</g>
<defs>
<clipPath id="clip0_163_4">
<rect width="237" height="89" fill="white"/>
</clipPath>
</defs>
</svg>
