<svg width="30" height="31" viewBox="0 0 30 31" fill="none" xmlns="http://www.w3.org/2000/svg">
<path d="M15 3.24106C12.5895 3.24106 10.2332 3.95584 8.22899 5.29502C6.22476 6.6342 4.66266 8.53763 3.74022 10.7646C2.81777 12.9916 2.57642 15.4421 3.04668 17.8062C3.51694 20.1704 4.67768 22.342 6.38214 24.0464C8.08659 25.7509 10.2582 26.9116 12.6223 27.3819C14.9865 27.8521 17.437 27.6108 19.664 26.6883C21.8909 25.7659 23.7944 24.2038 25.1335 22.1996C26.4727 20.1953 27.1875 17.839 27.1875 15.4286C27.1841 12.1973 25.899 9.09932 23.6141 6.81446C21.3292 4.5296 18.2313 3.24447 15 3.24106ZM7.03125 8.88598C8.34703 10.4788 9.14909 12.4331 9.33164 14.4911H4.73086C4.91585 12.4337 5.71763 10.4801 7.03125 8.88598ZM15.9375 14.4911V5.15942C18.0392 5.34977 20.0312 6.18331 21.6422 7.54653C19.9761 9.49897 18.9754 11.9314 18.7852 14.4911H15.9375ZM14.0625 14.4911H11.2148C11.0246 11.9314 10.0239 9.49897 8.35781 7.54653C9.96877 6.18331 11.9608 5.34977 14.0625 5.15942V14.4911ZM9.33164 16.3661C9.14909 18.424 8.34703 20.3783 7.03125 21.9711C5.71763 20.377 4.91585 18.4234 4.73086 16.3661H9.33164ZM11.2148 16.3661H14.0625V25.6977C11.9608 25.5073 9.96877 24.6738 8.35781 23.3106C10.0237 21.358 11.0244 18.9256 11.2148 16.3661ZM15.9375 16.3661H18.7852C18.9756 18.9256 19.9763 21.358 21.6422 23.3106C20.0312 24.6738 18.0392 25.5073 15.9375 25.6977V16.3661ZM20.6684 16.3661H25.2691C25.0841 18.4234 24.2824 20.377 22.9688 21.9711C21.653 20.3783 20.8509 18.424 20.6684 16.3661ZM20.6684 14.4911C20.8509 12.4331 21.653 10.4788 22.9688 8.88598C24.2824 10.4801 25.0841 12.4337 25.2691 14.4911H20.6684Z" fill="white"/>
</svg>
