<svg width="30" height="31" viewBox="0 0 30 31" fill="none" xmlns="http://www.w3.org/2000/svg">
<path d="M26.843 6.74379C26.7091 5.95483 26.3332 5.22702 25.7674 4.66117C25.2015 4.09531 24.4737 3.71943 23.6848 3.58558C19.8914 2.94223 12.7406 2.64809 7.48125 7.9098C2.22188 13.1715 2.51367 20.32 3.15703 24.1133C3.29124 24.9031 3.66798 25.6315 4.23497 26.1974C4.80196 26.7634 5.53107 27.1388 6.32109 27.2715C7.65018 27.4982 8.99587 27.6134 10.3441 27.6161C14.1047 27.6161 18.7875 26.6786 22.5187 22.9473C27.7793 17.6879 27.4863 10.5371 26.843 6.74379ZM19.623 5.10316C20.88 5.1076 22.1344 5.21736 23.373 5.43129C23.7787 5.50057 24.1528 5.69421 24.4435 5.9854C24.7343 6.27659 24.9274 6.65094 24.9961 7.05668C25.2379 8.45805 25.3438 9.87948 25.3125 11.3012L19.1262 5.11605C19.2902 5.10668 19.4531 5.10433 19.623 5.10433V5.10316ZM6.62813 25.4246C6.22244 25.3556 5.84823 25.1623 5.55725 24.8713C5.26626 24.5803 5.0729 24.2061 5.00391 23.8004C4.76212 22.3991 4.65616 20.9776 4.6875 19.5559L10.8727 25.7411C9.45091 25.773 8.02942 25.667 6.62813 25.4246ZM21.1945 21.6231C19.834 22.9825 17.2957 24.8727 13.2996 25.5219L4.90664 17.1289C5.55586 13.1328 7.44609 10.5946 8.80547 9.23402C10.1648 7.87348 12.7031 5.98324 16.6992 5.33402L25.0934 13.7282C24.4441 17.7243 22.5539 20.2625 21.1945 21.6231ZM19.4109 11.0176C19.5866 11.1934 19.6853 11.4318 19.6853 11.6803C19.6853 11.9288 19.5866 12.1672 19.4109 12.343L17.7305 14.0223L18.4734 14.7653C18.5661 14.851 18.6405 14.9545 18.6921 15.0697C18.7438 15.1848 18.7716 15.3092 18.7741 15.4354C18.7765 15.5616 18.7534 15.687 18.7062 15.804C18.659 15.9211 18.5886 16.0274 18.4994 16.1166C18.4101 16.2058 18.3037 16.2761 18.1866 16.3232C18.0695 16.3703 17.9441 16.3932 17.8179 16.3907C17.6917 16.3882 17.5674 16.3602 17.4523 16.3084C17.3372 16.2567 17.2337 16.1822 17.148 16.0895L16.4062 15.3477L14.9191 16.8348L15.6621 17.5778C15.7548 17.6634 15.8293 17.7669 15.8811 17.882C15.9328 17.9971 15.9608 18.1215 15.9633 18.2477C15.9659 18.3738 15.9429 18.4992 15.8958 18.6163C15.8487 18.7334 15.7784 18.8398 15.6892 18.9291C15.6 19.0184 15.4937 19.0887 15.3767 19.1359C15.2596 19.1831 15.1342 19.2062 15.008 19.2038C14.8819 19.2014 14.7575 19.1735 14.6423 19.1218C14.5271 19.0702 14.4236 18.9958 14.3379 18.9032L13.5938 18.159L11.9133 19.8395C11.8271 19.9302 11.7236 20.0028 11.6089 20.0529C11.4943 20.103 11.3707 20.1296 11.2456 20.1312C11.1205 20.1328 10.9963 20.1093 10.8804 20.0622C10.7645 20.015 10.6592 19.9452 10.5707 19.8567C10.4822 19.7682 10.4123 19.6629 10.3652 19.547C10.3181 19.4311 10.2946 19.3069 10.2962 19.1818C10.2978 19.0566 10.3244 18.9331 10.3745 18.8184C10.4246 18.7038 10.4972 18.6003 10.5879 18.5141L12.2695 16.8348L11.5266 16.0918C11.3622 15.9139 11.2731 15.6792 11.2779 15.4369C11.2828 15.1947 11.3812 14.9638 11.5526 14.7925C11.724 14.6213 11.955 14.5231 12.1973 14.5184C12.4395 14.5138 12.6741 14.6031 12.852 14.7676L13.5949 15.5106L15.0809 14.0223L14.3379 13.2793C14.1734 13.1015 14.084 12.8669 14.0887 12.6247C14.0933 12.3824 14.1916 12.1514 14.3628 11.98C14.534 11.8086 14.765 11.7102 15.0072 11.7053C15.2494 11.7005 15.4841 11.7896 15.6621 11.9539L16.4062 12.6981L18.0867 11.0176C18.2625 10.8423 18.5006 10.7438 18.7488 10.7438C18.9971 10.7438 19.2352 10.8423 19.4109 11.0176Z" fill="white"/>
</svg>
