<svg width="30" height="30" viewBox="0 0 30 30" fill="none" xmlns="http://www.w3.org/2000/svg">
<circle cx="15" cy="15" r="14" stroke="white" stroke-width="2"/>
<path d="M21.7692 11.4808H19.0708C19.1008 11.4544 19.1315 11.4288 19.1608 11.4008C19.3944 11.185 19.5827 10.9213 19.7138 10.6263C19.845 10.3314 19.9162 10.0114 19.9231 9.68653C19.9332 9.33109 19.8733 8.97726 19.7472 8.64675C19.621 8.31624 19.4313 8.01603 19.1895 7.76456C18.9477 7.51308 18.6591 7.31564 18.3413 7.18435C18.0236 7.05307 17.6833 6.99071 17.3415 7.00112C17.029 7.00812 16.7212 7.08214 16.4374 7.21855C16.1536 7.35496 15.9 7.55081 15.6923 7.79386C15.405 8.14015 15.1714 8.53096 15 8.95218C14.8286 8.53096 14.595 8.14015 14.3077 7.79386C14.1 7.55081 13.8464 7.35496 13.5626 7.21855C13.2788 7.08214 12.971 7.00812 12.6585 7.00112C12.3167 6.99071 11.9764 7.05307 11.6587 7.18435C11.3409 7.31564 11.0523 7.51308 10.8105 7.76456C10.5687 8.01603 10.379 8.31624 10.2528 8.64675C10.1267 8.97726 10.0668 9.33109 10.0769 9.68653C10.0838 10.0114 10.155 10.3314 10.2862 10.6263C10.4173 10.9213 10.6056 11.185 10.8392 11.4008C10.8685 11.4272 10.8992 11.4528 10.9292 11.4808H8.23077C7.90435 11.4808 7.5913 11.6157 7.36048 11.8557C7.12967 12.0957 7 12.4213 7 12.7607V15.3205C7 15.66 7.12967 15.9855 7.36048 16.2256C7.5913 16.4656 7.90435 16.6004 8.23077 16.6004V21.7201C8.23077 22.0595 8.36044 22.3851 8.59125 22.6251C8.82207 22.8652 9.13512 23 9.46154 23H20.5385C20.8649 23 21.1779 22.8652 21.4087 22.6251C21.6396 22.3851 21.7692 22.0595 21.7692 21.7201V16.6004C22.0957 16.6004 22.4087 16.4656 22.6395 16.2256C22.8703 15.9855 23 15.66 23 15.3205V12.7607C23 12.4213 22.8703 12.0957 22.6395 11.8557C22.4087 11.6157 22.0957 11.4808 21.7692 11.4808ZM16.6154 8.6418C16.7128 8.52991 16.8315 8.44017 16.9638 8.37822C17.0962 8.31627 17.2395 8.28346 17.3846 8.28183H17.4223C17.5924 8.28293 17.7606 8.31934 17.9171 8.38892C18.0735 8.45849 18.215 8.55984 18.3333 8.68701C18.4516 8.81419 18.5442 8.96463 18.6059 9.12953C18.6675 9.29443 18.6969 9.47047 18.6923 9.64733C18.6907 9.79828 18.6592 9.94726 18.5996 10.0849C18.54 10.2226 18.4538 10.3459 18.3462 10.4473C17.6162 11.1192 16.4046 11.356 15.6538 11.4392C15.7462 10.5921 16 9.36095 16.6154 8.6418ZM11.6854 8.6706C11.9238 8.42269 12.2467 8.28268 12.5838 8.28103H12.6215C12.7667 8.28266 12.91 8.31547 13.0423 8.37742C13.1747 8.43937 13.2933 8.52911 13.3908 8.641C14.0362 9.39935 14.2638 10.6569 14.3438 11.4344C13.5962 11.3544 12.3869 11.1144 11.6577 10.4433C11.5501 10.3419 11.4638 10.2186 11.4042 10.0809C11.3447 9.94326 11.3131 9.79428 11.3115 9.64333C11.3068 9.46353 11.3372 9.2846 11.4009 9.11739C11.4646 8.95018 11.5604 8.79817 11.6823 8.6706H11.6854ZM8.23077 12.7607H14.3846V15.3205H8.23077V12.7607ZM9.46154 16.6004H14.3846V21.7201H9.46154V16.6004ZM20.5385 21.7201H15.6154V16.6004H20.5385V21.7201ZM21.7692 15.3205H15.6154V12.7607H21.7692V15.3205Z" fill="white"/>
</svg>
