<svg width="30" height="30" viewBox="0 0 30 30" fill="none" xmlns="http://www.w3.org/2000/svg">
<circle cx="15" cy="15" r="14" stroke="white" stroke-width="2"/>
<path d="M11.6667 11.1429C11.6667 9.72455 12.8625 8.57143 14.3333 8.57143H15.6667C17.1375 8.57143 18.3333 9.72455 18.3333 11.1429V11.2875C18.3333 12.1634 17.8708 12.979 17.1083 13.4491L15.35 14.5379C14.3 15.1888 13.6667 16.3098 13.6667 17.5112V17.5714C13.6667 18.2826 14.2625 18.8571 15 18.8571C15.7375 18.8571 16.3333 18.2826 16.3333 17.5714V17.5152C16.3333 17.1857 16.5083 16.8804 16.7917 16.7036L18.55 15.6147C20.075 14.6665 21 13.0393 21 11.2875V11.1429C21 8.30223 18.6125 6 15.6667 6H14.3333C11.3875 6 9 8.30223 9 11.1429C9 11.854 9.59583 12.4286 10.3333 12.4286C11.0708 12.4286 11.6667 11.854 11.6667 11.1429ZM15 24C15.442 24 15.866 23.8307 16.1785 23.5293C16.4911 23.2279 16.6667 22.8191 16.6667 22.3929C16.6667 21.9666 16.4911 21.5578 16.1785 21.2564C15.866 20.955 15.442 20.7857 15 20.7857C14.558 20.7857 14.134 20.955 13.8215 21.2564C13.5089 21.5578 13.3333 21.9666 13.3333 22.3929C13.3333 22.8191 13.5089 23.2279 13.8215 23.5293C14.134 23.8307 14.558 24 15 24Z" fill="white"/>
</svg>
