<svg width="30" height="31" viewBox="0 0 30 31" fill="none" xmlns="http://www.w3.org/2000/svg">
<path d="M23.4375 9.80355H21.5625V7.92855C21.5616 7.16721 21.3291 6.42416 20.8957 5.79819C20.4623 5.17222 19.8487 4.693 19.1364 4.42422C18.424 4.15545 17.6468 4.10986 16.9079 4.29351C16.169 4.47717 15.5036 4.88137 15 5.45238C14.5201 4.90842 13.8927 4.51534 13.1938 4.32077C12.495 4.1262 11.7547 4.1385 11.0627 4.35618C10.3708 4.57386 9.75676 4.98758 9.29517 5.54718C8.83357 6.10679 8.5442 6.78827 8.46211 7.50902C7.89256 7.1744 7.24473 6.99616 6.58417 6.99235C5.92361 6.98853 5.27376 7.15927 4.70038 7.48729C4.127 7.8153 3.65045 8.28896 3.31893 8.86032C2.98742 9.43169 2.81272 10.0805 2.8125 10.7411V15.4286C2.8125 18.6609 4.09654 21.7608 6.38214 24.0464C8.66774 26.332 11.7677 27.6161 15 27.6161C18.2323 27.6161 21.3323 26.332 23.6179 24.0464C25.9035 21.7608 27.1875 18.6609 27.1875 15.4286V13.5536C27.1875 12.559 26.7924 11.6052 26.0891 10.9019C25.3859 10.1986 24.4321 9.80355 23.4375 9.80355ZM17.8125 6.05355C18.3098 6.05355 18.7867 6.2511 19.1383 6.60273C19.49 6.95436 19.6875 7.43127 19.6875 7.92855V9.80355H15.9375V7.92855C15.9375 7.43127 16.135 6.95436 16.4867 6.60273C16.8383 6.2511 17.3152 6.05355 17.8125 6.05355ZM10.3125 7.92855C10.3125 7.43127 10.51 6.95436 10.8617 6.60273C11.2133 6.2511 11.6902 6.05355 12.1875 6.05355C12.6848 6.05355 13.1617 6.2511 13.5133 6.60273C13.865 6.95436 14.0625 7.43127 14.0625 7.92855V12.6161C14.0625 13.1133 13.865 13.5902 13.5133 13.9419C13.1617 14.2935 12.6848 14.4911 12.1875 14.4911C11.6902 14.4911 11.2133 14.2935 10.8617 13.9419C10.51 13.5902 10.3125 13.1133 10.3125 12.6161V7.92855ZM4.6875 10.7411C4.6875 10.2438 4.88504 9.76686 5.23667 9.41523C5.58831 9.0636 6.06522 8.86605 6.5625 8.86605C7.05978 8.86605 7.53669 9.0636 7.88832 9.41523C8.23996 9.76686 8.4375 10.2438 8.4375 10.7411V12.6161C8.4375 13.1133 8.23996 13.5902 7.88832 13.9419C7.53669 14.2935 7.05978 14.4911 6.5625 14.4911C6.06522 14.4911 5.58831 14.2935 5.23667 13.9419C4.88504 13.5902 4.6875 13.1133 4.6875 12.6161V10.7411ZM25.3125 15.4286C25.3125 18.1255 24.2559 20.7151 22.3693 22.6424C20.4827 24.5696 17.9161 25.6811 15.2198 25.7385C12.5234 25.796 9.91187 24.7949 7.94484 22.9498C5.9778 21.1048 4.81185 18.5625 4.69688 15.868C5.44624 16.299 6.32171 16.4572 7.17452 16.3158C8.02733 16.1744 8.80487 15.742 9.375 15.0922C10.0211 15.8284 10.9302 16.2819 11.9069 16.3553C12.8837 16.4287 13.8503 16.1162 14.5992 15.4848C14.9365 16.0437 15.4129 16.5056 15.982 16.8254C15.3788 17.3524 14.8955 18.0023 14.5644 18.7316C14.2333 19.4609 14.0621 20.2526 14.0625 21.0536C14.0625 21.3022 14.1613 21.5407 14.3371 21.7165C14.5129 21.8923 14.7514 21.9911 15 21.9911C15.2486 21.9911 15.4871 21.8923 15.6629 21.7165C15.8387 21.5407 15.9375 21.3022 15.9375 21.0536C15.9375 20.059 16.3326 19.1052 17.0359 18.4019C17.7391 17.6986 18.6929 17.3036 19.6875 17.3036C19.9361 17.3036 20.1746 17.2048 20.3504 17.029C20.5262 16.8532 20.625 16.6147 20.625 16.3661C20.625 16.1174 20.5262 15.879 20.3504 15.7031C20.1746 15.5273 19.9361 15.4286 19.6875 15.4286H17.8125C17.3152 15.4286 16.8383 15.231 16.4867 14.8794C16.135 14.5277 15.9375 14.0508 15.9375 13.5536V11.6786H23.4375C23.9348 11.6786 24.4117 11.8761 24.7633 12.2277C25.115 12.5794 25.3125 13.0563 25.3125 13.5536V15.4286Z" fill="white"/>
</svg>
