<svg width="30" height="30" viewBox="0 0 30 30" fill="none" xmlns="http://www.w3.org/2000/svg">
<path d="M27.1875 14.0625H26.2102C25.9852 11.4134 24.8306 8.92922 22.9507 7.04929C21.0708 5.16936 18.5866 4.01481 15.9375 3.78984V2.8125C15.9375 2.56386 15.8387 2.3254 15.6629 2.14959C15.4871 1.97377 15.2486 1.875 15 1.875C14.7514 1.875 14.5129 1.97377 14.3371 2.14959C14.1613 2.3254 14.0625 2.56386 14.0625 2.8125V3.78984C11.4134 4.01481 8.92922 5.16936 7.04929 7.04929C5.16936 8.92922 4.01481 11.4134 3.78984 14.0625H2.8125C2.56386 14.0625 2.3254 14.1613 2.14959 14.3371C1.97377 14.5129 1.875 14.7514 1.875 15C1.875 15.2486 1.97377 15.4871 2.14959 15.6629C2.3254 15.8387 2.56386 15.9375 2.8125 15.9375H3.78984C4.01481 18.5866 5.16936 21.0708 7.04929 22.9507C8.92922 24.8306 11.4134 25.9852 14.0625 26.2102V27.1875C14.0625 27.4361 14.1613 27.6746 14.3371 27.8504C14.5129 28.0262 14.7514 28.125 15 28.125C15.2486 28.125 15.4871 28.0262 15.6629 27.8504C15.8387 27.6746 15.9375 27.4361 15.9375 27.1875V26.2102C18.5866 25.9852 21.0708 24.8306 22.9507 22.9507C24.8306 21.0708 25.9852 18.5866 26.2102 15.9375H27.1875C27.4361 15.9375 27.6746 15.8387 27.8504 15.6629C28.0262 15.4871 28.125 15.2486 28.125 15C28.125 14.7514 28.0262 14.5129 27.8504 14.3371C27.6746 14.1613 27.4361 14.0625 27.1875 14.0625ZM15.9375 24.3281V23.4375C15.9375 23.1889 15.8387 22.9504 15.6629 22.7746C15.4871 22.5988 15.2486 22.5 15 22.5C14.7514 22.5 14.5129 22.5988 14.3371 22.7746C14.1613 22.9504 14.0625 23.1889 14.0625 23.4375V24.3281C11.912 24.1087 9.90294 23.1542 8.37438 21.6256C6.84582 20.0971 5.89131 18.088 5.67188 15.9375H6.5625C6.81114 15.9375 7.0496 15.8387 7.22541 15.6629C7.40123 15.4871 7.5 15.2486 7.5 15C7.5 14.7514 7.40123 14.5129 7.22541 14.3371C7.0496 14.1613 6.81114 14.0625 6.5625 14.0625H5.67188C5.89131 11.912 6.84582 9.90294 8.37438 8.37438C9.90294 6.84582 11.912 5.89131 14.0625 5.67188V6.5625C14.0625 6.81114 14.1613 7.0496 14.3371 7.22541C14.5129 7.40123 14.7514 7.5 15 7.5C15.2486 7.5 15.4871 7.40123 15.6629 7.22541C15.8387 7.0496 15.9375 6.81114 15.9375 6.5625V5.67188C18.088 5.89131 20.0971 6.84582 21.6256 8.37438C23.1542 9.90294 24.1087 11.912 24.3281 14.0625H23.4375C23.1889 14.0625 22.9504 14.1613 22.7746 14.3371C22.5988 14.5129 22.5 14.7514 22.5 15C22.5 15.2486 22.5988 15.4871 22.7746 15.6629C22.9504 15.8387 23.1889 15.9375 23.4375 15.9375H24.3281C24.1087 18.088 23.1542 20.0971 21.6256 21.6256C20.0971 23.1542 18.088 24.1087 15.9375 24.3281ZM15 10.3125C14.0729 10.3125 13.1666 10.5874 12.3958 11.1025C11.6249 11.6176 11.0241 12.3496 10.6693 13.2062C10.3145 14.0627 10.2217 15.0052 10.4026 15.9145C10.5834 16.8238 11.0299 17.659 11.6854 18.3146C12.341 18.9701 13.1762 19.4166 14.0855 19.5974C14.9948 19.7783 15.9373 19.6855 16.7938 19.3307C17.6504 18.9759 18.3824 18.3751 18.8975 17.6042C19.4126 16.8334 19.6875 15.9271 19.6875 15C19.6875 13.7568 19.1936 12.5645 18.3146 11.6854C17.4355 10.8064 16.2432 10.3125 15 10.3125ZM15 17.8125C14.4437 17.8125 13.9 17.6476 13.4375 17.3385C12.9749 17.0295 12.6145 16.5902 12.4016 16.0763C12.1887 15.5624 12.133 14.9969 12.2415 14.4513C12.3501 13.9057 12.6179 13.4046 13.0113 13.0113C13.4046 12.6179 13.9057 12.3501 14.4513 12.2415C14.9969 12.133 15.5624 12.1887 16.0763 12.4016C16.5902 12.6145 17.0295 12.9749 17.3385 13.4375C17.6476 13.9 17.8125 14.4437 17.8125 15C17.8125 15.7459 17.5162 16.4613 16.9887 16.9887C16.4613 17.5162 15.7459 17.8125 15 17.8125Z" fill="white"/>
</svg>
